G04 #@! TF.FileFunction,Soldermask,Top*
%FSLAX46Y46*%
G04 Gerber Fmt 4.6, Leading zero omitted, Abs format (unit mm)*
G04 Created by KiCad (PCBNEW 4.0.0-rc1-stable) date 2/20/2017 10:27:06 PM*
%MOMM*%
G01*
G04 APERTURE LIST*
%ADD10C,0.100000*%
%ADD11C,0.700000*%
%ADD12C,0.200000*%
%ADD13C,1.500000*%
%ADD14R,3.600000X2.900000*%
%ADD15C,4.400000*%
%ADD16R,1.650000X1.400000*%
%ADD17R,1.400000X1.650000*%
%ADD18R,4.400000X1.700000*%
%ADD19R,2.127200X2.432000*%
%ADD20O,2.127200X2.432000*%
%ADD21R,0.640000X0.390000*%
%ADD22R,0.980000X2.540000*%
%ADD23R,2.432000X2.432000*%
%ADD24O,2.432000X2.432000*%
%ADD25R,0.900000X1.300000*%
%ADD26R,1.300000X0.900000*%
G04 APERTURE END LIST*
D10*
D11*
X164401500Y-106616500D02*
X166370000Y-104648000D01*
D12*
X145923000Y-112649000D02*
X141605000Y-96647000D01*
X141605000Y-96647000D02*
X135382000Y-98298000D01*
X143764000Y-113157000D02*
X145923000Y-112649000D01*
X139319000Y-113157000D02*
X143764000Y-113157000D01*
X135382000Y-98298000D02*
X139319000Y-113157000D01*
D13*
X163072568Y-104597701D02*
X161816864Y-104934165D01*
X162554930Y-102665849D02*
X161299226Y-103002313D01*
X162037292Y-100733998D02*
X160781588Y-101070462D01*
X161519654Y-98802146D02*
X160263950Y-99138610D01*
X161002015Y-96870294D02*
X159746311Y-97206758D01*
X160484377Y-94938443D02*
X159228673Y-95274907D01*
D10*
G36*
X149092044Y-112888633D02*
X147643155Y-113276861D01*
X146918462Y-110572269D01*
X148367351Y-110184041D01*
X149092044Y-112888633D01*
X149092044Y-112888633D01*
G37*
D13*
X150105337Y-111840665D02*
X149768873Y-110584961D01*
X152037188Y-111323027D02*
X151700724Y-110067323D01*
X153969040Y-110805389D02*
X153632576Y-109549685D01*
X155900892Y-110287751D02*
X155564428Y-109032047D01*
X157832743Y-109770113D02*
X157496279Y-108514409D01*
X159764595Y-109252474D02*
X159428131Y-107996770D01*
X161696447Y-108734836D02*
X161359983Y-107479132D01*
X157555342Y-93280023D02*
X157218878Y-92024319D01*
X155623490Y-93797661D02*
X155287026Y-92541957D01*
X153691639Y-94315299D02*
X153355175Y-93059595D01*
X151759787Y-94832937D02*
X151423323Y-93577233D01*
X149827935Y-95350576D02*
X149491471Y-94094872D01*
X147896084Y-95868214D02*
X147559620Y-94612510D01*
X145964232Y-96385852D02*
X145627768Y-95130148D01*
X144032380Y-96903490D02*
X143695916Y-95647786D01*
D14*
X97917000Y-95541204D03*
X97917000Y-106641204D03*
X119888000Y-95541204D03*
X119888000Y-106641204D03*
X76073000Y-95541204D03*
X76073000Y-106641204D03*
D15*
X176530000Y-101600000D03*
X182330000Y-101600000D03*
X179530000Y-96800000D03*
D16*
X173095186Y-97930308D03*
X173095186Y-99930308D03*
D17*
X169682186Y-101978308D03*
X171682186Y-101978308D03*
D18*
X166364186Y-98977308D03*
X166364186Y-101677308D03*
D19*
X179451000Y-108839000D03*
D20*
X176911000Y-108839000D03*
X174371000Y-108839000D03*
X171831000Y-108839000D03*
X169291000Y-108839000D03*
X166751000Y-108839000D03*
D21*
X171251186Y-98787308D03*
X171251186Y-98287308D03*
X171251186Y-97787308D03*
X171251186Y-97287308D03*
X171251186Y-96787308D03*
X169351186Y-97787308D03*
X169351186Y-98287308D03*
X169351186Y-98787308D03*
X169351186Y-97287308D03*
X169351186Y-96787308D03*
D22*
X170301186Y-97787308D03*
X170301186Y-97787308D03*
D23*
X85852000Y-108966000D03*
D24*
X88392000Y-108966000D03*
D23*
X129667000Y-109220000D03*
D24*
X132207000Y-109220000D03*
D23*
X107696000Y-109220000D03*
D24*
X110236000Y-109220000D03*
D25*
X166630186Y-96644308D03*
X168130186Y-96644308D03*
D26*
X136296400Y-112382300D03*
X136296400Y-110882300D03*
X136296400Y-107948600D03*
X136296400Y-109448600D03*
M02*
