G04 #@! TF.FileFunction,Soldermask,Bot*
%FSLAX46Y46*%
G04 Gerber Fmt 4.6, Leading zero omitted, Abs format (unit mm)*
G04 Created by KiCad (PCBNEW 4.0.0-rc1-stable) date 2/20/2017 10:27:06 PM*
%MOMM*%
G01*
G04 APERTURE LIST*
%ADD10C,0.100000*%
%ADD11C,0.200000*%
%ADD12R,2.000000X1.400000*%
%ADD13R,1.700000X1.100000*%
%ADD14R,1.500000X0.650000*%
%ADD15R,2.130000X2.400000*%
%ADD16R,1.150000X1.200000*%
%ADD17R,0.900000X1.300000*%
%ADD18R,2.500000X1.800000*%
%ADD19R,1.620000X1.310000*%
%ADD20C,4.400000*%
%ADD21R,1.197560X1.197560*%
%ADD22R,2.127200X2.432000*%
%ADD23O,2.127200X2.432000*%
%ADD24R,1.300000X0.900000*%
%ADD25R,2.432000X2.432000*%
%ADD26O,2.432000X2.432000*%
%ADD27R,1.303020X0.901700*%
G04 APERTURE END LIST*
D10*
D11*
X143764000Y-113157000D02*
X139319000Y-113157000D01*
X143764000Y-113157000D02*
X145923000Y-112649000D01*
X135382000Y-98298000D02*
X139319000Y-113157000D01*
X141605000Y-96647000D02*
X135382000Y-98298000D01*
X145923000Y-112649000D02*
X141605000Y-96647000D01*
D12*
X109502938Y-101625958D03*
X109502938Y-104625958D03*
D13*
X106835938Y-99757958D03*
X106835938Y-97857958D03*
D14*
X100113938Y-101077958D03*
X100113938Y-100577958D03*
X100113938Y-100077958D03*
X100113938Y-99577958D03*
X100113938Y-99077958D03*
X104413938Y-99077958D03*
X104413938Y-99577958D03*
X104413938Y-100077958D03*
X104413938Y-100577958D03*
X104413938Y-101077958D03*
D15*
X102263938Y-100077958D03*
D13*
X109121938Y-99757958D03*
X109121938Y-97857958D03*
D12*
X106962938Y-101649958D03*
X106962938Y-104649958D03*
X104584500Y-109665204D03*
X104584500Y-106665204D03*
X99377500Y-109665204D03*
X99377500Y-106665204D03*
X102044500Y-109665204D03*
X102044500Y-106665204D03*
D16*
X100139500Y-102767704D03*
X100139500Y-104267704D03*
D17*
X98615500Y-104164704D03*
X97115500Y-104164704D03*
D16*
X98326938Y-97930958D03*
X98326938Y-99430958D03*
D18*
X95532938Y-102277958D03*
X95532938Y-97877958D03*
D16*
X98326938Y-102478958D03*
X98326938Y-100978958D03*
D19*
X92484938Y-98553958D03*
X92484938Y-101823958D03*
D14*
X122084938Y-101077958D03*
X122084938Y-100577958D03*
X122084938Y-100077958D03*
X122084938Y-99577958D03*
X122084938Y-99077958D03*
X126384938Y-99077958D03*
X126384938Y-99577958D03*
X126384938Y-100077958D03*
X126384938Y-100577958D03*
X126384938Y-101077958D03*
D15*
X124234938Y-100077958D03*
D16*
X120297938Y-102478958D03*
X120297938Y-100978958D03*
D18*
X117503938Y-102277958D03*
X117503938Y-97877958D03*
D16*
X120297938Y-97930958D03*
X120297938Y-99430958D03*
D19*
X114455938Y-98553958D03*
X114455938Y-101823958D03*
D17*
X120586500Y-104164704D03*
X119086500Y-104164704D03*
D12*
X126555500Y-109665204D03*
X126555500Y-106665204D03*
X124015500Y-109665204D03*
X124015500Y-106665204D03*
X121348500Y-109665204D03*
X121348500Y-106665204D03*
D13*
X131092938Y-99757958D03*
X131092938Y-97857958D03*
D12*
X128933938Y-101649958D03*
X128933938Y-104649958D03*
X131473938Y-101625958D03*
X131473938Y-104625958D03*
D13*
X128806938Y-99757958D03*
X128806938Y-97857958D03*
D16*
X122110500Y-102767704D03*
X122110500Y-104267704D03*
D12*
X85118938Y-101649958D03*
X85118938Y-104649958D03*
D14*
X78269938Y-101077958D03*
X78269938Y-100577958D03*
X78269938Y-100077958D03*
X78269938Y-99577958D03*
X78269938Y-99077958D03*
X82569938Y-99077958D03*
X82569938Y-99577958D03*
X82569938Y-100077958D03*
X82569938Y-100577958D03*
X82569938Y-101077958D03*
D15*
X80419938Y-100077958D03*
D13*
X84991938Y-99757958D03*
X84991938Y-97857958D03*
X87277938Y-99757958D03*
X87277938Y-97857958D03*
D16*
X78295500Y-102767704D03*
X78295500Y-104267704D03*
D12*
X87658938Y-101625958D03*
X87658938Y-104625958D03*
D16*
X76482938Y-97930958D03*
X76482938Y-99430958D03*
D17*
X76771500Y-104164704D03*
X75271500Y-104164704D03*
D19*
X70640938Y-98553958D03*
X70640938Y-101823958D03*
D18*
X73688938Y-102277958D03*
X73688938Y-97877958D03*
D16*
X76482938Y-102478958D03*
X76482938Y-100978958D03*
D12*
X80200500Y-109665204D03*
X80200500Y-106665204D03*
X82740500Y-109665204D03*
X82740500Y-106665204D03*
X77533500Y-109665204D03*
X77533500Y-106665204D03*
D20*
X176530000Y-101600000D03*
X182330000Y-101600000D03*
X179530000Y-96800000D03*
D16*
X151384000Y-94095000D03*
X151384000Y-92595000D03*
X149479000Y-94095000D03*
X149479000Y-92595000D03*
X147574000Y-94107000D03*
X147574000Y-92607000D03*
D21*
X162433000Y-102984300D03*
X162433000Y-101485700D03*
D22*
X179451000Y-108839000D03*
D23*
X176911000Y-108839000D03*
X174371000Y-108839000D03*
X171831000Y-108839000D03*
X169291000Y-108839000D03*
X166751000Y-108839000D03*
D24*
X151384000Y-95643000D03*
X151384000Y-97143000D03*
X149479000Y-95655000D03*
X149479000Y-97155000D03*
X147574000Y-95643000D03*
X147574000Y-97143000D03*
X162433000Y-104660000D03*
X162433000Y-106160000D03*
X155575000Y-108307000D03*
X155575000Y-106807000D03*
D17*
X162064000Y-97028000D03*
X163564000Y-97028000D03*
D24*
X162433000Y-98564000D03*
X162433000Y-100064000D03*
D17*
X157607000Y-95504000D03*
X156107000Y-95504000D03*
D25*
X85852000Y-108966000D03*
D26*
X88392000Y-108966000D03*
D25*
X129667000Y-109220000D03*
D26*
X132207000Y-109220000D03*
D25*
X107696000Y-109220000D03*
D26*
X110236000Y-109220000D03*
D27*
X155747720Y-99949000D03*
X159893000Y-99949000D03*
X155747720Y-97800160D03*
X159893000Y-97800160D03*
X155788360Y-105468420D03*
X159933640Y-105468420D03*
X155788360Y-103319580D03*
X159933640Y-103319580D03*
D17*
X136398700Y-112509300D03*
X134898700Y-112509300D03*
X143726600Y-92913200D03*
X142226600Y-92913200D03*
X131507800Y-112966500D03*
X133007800Y-112966500D03*
X138595800Y-92913200D03*
X137095800Y-92913200D03*
M02*
