G04 #@! TF.FileFunction,Copper,L1,Top,Signal*
%FSLAX46Y46*%
G04 Gerber Fmt 4.6, Leading zero omitted, Abs format (unit mm)*
G04 Created by KiCad (PCBNEW 4.0.0-rc1-stable) date 2/20/2017 10:27:06 PM*
%MOMM*%
G01*
G04 APERTURE LIST*
%ADD10C,0.100000*%
%ADD11C,1.100000*%
%ADD12C,0.889000*%
%ADD13R,3.200000X2.500000*%
%ADD14C,0.635000*%
%ADD15C,4.000000*%
%ADD16R,1.250000X1.000000*%
%ADD17R,1.000000X1.250000*%
%ADD18R,4.000000X1.300000*%
%ADD19R,1.727200X2.032000*%
%ADD20O,1.727200X2.032000*%
%ADD21R,0.500000X0.250000*%
%ADD22C,0.250000*%
%ADD23R,0.840000X2.400000*%
%ADD24R,2.032000X2.032000*%
%ADD25O,2.032000X2.032000*%
%ADD26R,0.500000X0.900000*%
%ADD27R,0.900000X0.500000*%
%ADD28C,0.600000*%
%ADD29C,0.635000*%
%ADD30C,0.250000*%
%ADD31C,0.750000*%
%ADD32C,0.500000*%
%ADD33C,0.254000*%
G04 APERTURE END LIST*
D10*
D11*
X163072568Y-104597701D02*
X161816864Y-104934165D01*
X162554930Y-102665849D02*
X161299226Y-103002313D01*
X162037292Y-100733998D02*
X160781588Y-101070462D01*
X161519654Y-98802146D02*
X160263950Y-99138610D01*
X161002015Y-96870294D02*
X159746311Y-97206758D01*
X160484377Y-94938443D02*
X159228673Y-95274907D01*
D10*
G36*
X148847095Y-112747212D02*
X147784577Y-113031912D01*
X147163411Y-110713690D01*
X148225929Y-110428990D01*
X148847095Y-112747212D01*
X148847095Y-112747212D01*
G37*
D11*
X150105337Y-111840665D02*
X149768873Y-110584961D01*
X152037188Y-111323027D02*
X151700724Y-110067323D01*
X153969040Y-110805389D02*
X153632576Y-109549685D01*
X155900892Y-110287751D02*
X155564428Y-109032047D01*
X157832743Y-109770113D02*
X157496279Y-108514409D01*
X159764595Y-109252474D02*
X159428131Y-107996770D01*
X161696447Y-108734836D02*
X161359983Y-107479132D01*
X157555342Y-93280023D02*
X157218878Y-92024319D01*
X155623490Y-93797661D02*
X155287026Y-92541957D01*
X153691639Y-94315299D02*
X153355175Y-93059595D01*
X151759787Y-94832937D02*
X151423323Y-93577233D01*
X149827935Y-95350576D02*
X149491471Y-94094872D01*
X147896084Y-95868214D02*
X147559620Y-94612510D01*
X145964232Y-96385852D02*
X145627768Y-95130148D01*
X144032380Y-96903490D02*
X143695916Y-95647786D01*
D12*
X67665600Y-94208600D03*
X67665600Y-108966000D03*
X67665600Y-99060000D03*
X67665600Y-96520000D03*
X67665600Y-101600000D03*
X67665600Y-104140000D03*
X67665600Y-106680000D03*
X171323000Y-100076000D03*
X170053000Y-100076000D03*
D13*
X97917000Y-95541204D03*
X97917000Y-106641204D03*
D12*
X108775500Y-106133204D03*
X109664500Y-106133204D03*
X106235500Y-95719204D03*
X105346500Y-95719204D03*
X106235500Y-94830204D03*
X105346500Y-94830204D03*
X96710500Y-93496704D03*
X95504000Y-93853000D03*
X94234000Y-94488000D03*
X93091000Y-94488000D03*
X91948000Y-94488000D03*
X95504000Y-95274704D03*
X95504000Y-96417704D03*
X98996500Y-93496704D03*
X97853500Y-93496704D03*
X101790500Y-94830204D03*
X101790500Y-96608204D03*
X100901500Y-96608204D03*
X101790500Y-95719204D03*
X100901500Y-94830204D03*
X100901500Y-95719204D03*
X105346500Y-104418704D03*
X107886500Y-106133204D03*
X106997500Y-106133204D03*
X105346500Y-105307704D03*
X102679500Y-96608204D03*
X102679500Y-94830204D03*
X102679500Y-95719204D03*
X103568500Y-96608204D03*
X103568500Y-94830204D03*
X103568500Y-95719204D03*
X104457500Y-94830204D03*
X104457500Y-95719204D03*
X103568500Y-104418704D03*
X102679500Y-105307704D03*
X103568500Y-105307704D03*
X104457500Y-105307704D03*
X97536000Y-108736704D03*
X97536000Y-109752704D03*
X103568500Y-102640704D03*
X102679500Y-102640704D03*
X101790500Y-101751704D03*
X102679500Y-101751704D03*
D14*
X101727000Y-100735704D03*
X102806500Y-100735704D03*
D12*
X101790500Y-102640704D03*
X102679500Y-104418704D03*
X102679500Y-103529704D03*
X103568500Y-103529704D03*
X104457500Y-104418704D03*
X104457500Y-103529704D03*
D14*
X101727000Y-99402204D03*
D12*
X101790500Y-98386204D03*
D14*
X102806500Y-99402204D03*
D12*
X102679500Y-98386204D03*
X102679500Y-97497204D03*
X101790500Y-97497204D03*
X101790500Y-105307704D03*
X101790500Y-104418704D03*
X101790500Y-103529704D03*
D14*
X99250500Y-101878704D03*
D12*
X93345000Y-108228704D03*
X92202000Y-108228704D03*
X94424500Y-108228704D03*
X95504000Y-108228704D03*
X94996000Y-103720204D03*
X95948500Y-103720204D03*
X96520000Y-108736704D03*
X97282000Y-102450204D03*
X72580500Y-93496704D03*
X71437500Y-93496704D03*
X73723500Y-93496704D03*
X74866500Y-93496704D03*
X76009500Y-93496704D03*
X77152500Y-93496704D03*
D13*
X119888000Y-95541204D03*
X119888000Y-106641204D03*
D12*
X119824500Y-93496704D03*
X120967500Y-93496704D03*
X122872500Y-95719204D03*
X122872500Y-94830204D03*
X117538500Y-93496704D03*
X118681500Y-93496704D03*
X117475000Y-95274704D03*
X116395500Y-93496704D03*
X114109500Y-93496704D03*
X115252500Y-93496704D03*
X117475000Y-96417704D03*
X123761500Y-95719204D03*
X123761500Y-94830204D03*
X124650500Y-95719204D03*
X124650500Y-94830204D03*
X126428500Y-94830204D03*
X127317500Y-94830204D03*
X128206500Y-94830204D03*
X125539500Y-95719204D03*
X125539500Y-94830204D03*
X126428500Y-95719204D03*
X127317500Y-95719204D03*
X128206500Y-95719204D03*
X122872500Y-96608204D03*
X125539500Y-96608204D03*
X123761500Y-96608204D03*
X124650500Y-96608204D03*
X123761500Y-97497204D03*
X124650500Y-97497204D03*
X124650500Y-98386204D03*
X123761500Y-98386204D03*
D14*
X124777500Y-99402204D03*
X123698000Y-99402204D03*
D12*
X119253000Y-102450204D03*
X117919500Y-103720204D03*
X116967000Y-103720204D03*
X126428500Y-105307704D03*
X123761500Y-105307704D03*
X125539500Y-105307704D03*
X127317500Y-105307704D03*
X124650500Y-105307704D03*
X128968500Y-106133204D03*
X131635500Y-106133204D03*
X130746500Y-106133204D03*
X129857500Y-106133204D03*
X116395500Y-108228704D03*
X119507000Y-109752704D03*
X117475000Y-108228704D03*
X119507000Y-108736704D03*
X114173000Y-108228704D03*
X118491000Y-108736704D03*
X115316000Y-108228704D03*
D14*
X124777500Y-100735704D03*
X123698000Y-100735704D03*
D12*
X124650500Y-101751704D03*
X123761500Y-101751704D03*
D14*
X121221500Y-101878704D03*
D12*
X125539500Y-104418704D03*
X126428500Y-103529704D03*
X126428500Y-104418704D03*
X127317500Y-104418704D03*
X125539500Y-103529704D03*
X124650500Y-102640704D03*
X123761500Y-103529704D03*
X123761500Y-104418704D03*
X123761500Y-102640704D03*
X125539500Y-102640704D03*
X124650500Y-103529704D03*
X124650500Y-104418704D03*
X70294500Y-93496704D03*
X70358000Y-108228704D03*
X71501000Y-108228704D03*
X72580500Y-108228704D03*
X73660000Y-108228704D03*
X75692000Y-109752704D03*
X74676000Y-108736704D03*
X75692000Y-108736704D03*
X87820500Y-106133204D03*
X86931500Y-106133204D03*
X86042500Y-106133204D03*
X85153500Y-106133204D03*
X81724500Y-105307704D03*
X82613500Y-105307704D03*
X80835500Y-105307704D03*
X79946500Y-105307704D03*
X83502500Y-105307704D03*
X84391500Y-94830204D03*
X83502500Y-94830204D03*
X84391500Y-95719204D03*
X83502500Y-95719204D03*
X83502500Y-104418704D03*
X82613500Y-104418704D03*
X82613500Y-103529704D03*
X79946500Y-104418704D03*
X80835500Y-104418704D03*
X81724500Y-104418704D03*
X81724500Y-103529704D03*
X81724500Y-102640704D03*
X75438000Y-102450204D03*
X73152000Y-103720204D03*
X74104500Y-103720204D03*
D14*
X77406500Y-101878704D03*
D12*
X80835500Y-103529704D03*
X79946500Y-103529704D03*
X79946500Y-101751704D03*
X80835500Y-101751704D03*
X79946500Y-102640704D03*
X80835500Y-102640704D03*
X73660000Y-96417704D03*
X73660000Y-95274704D03*
X82613500Y-94830204D03*
X82613500Y-95719204D03*
X81724500Y-94830204D03*
X80835500Y-94830204D03*
X79946500Y-94830204D03*
X79057500Y-94830204D03*
X79057500Y-95719204D03*
X79946500Y-95719204D03*
X80835500Y-95719204D03*
X81724500Y-95719204D03*
X81724500Y-96608204D03*
X79057500Y-96608204D03*
X80835500Y-96608204D03*
X79946500Y-96608204D03*
X79946500Y-97497204D03*
X80835500Y-97497204D03*
X80835500Y-98386204D03*
X79946500Y-98386204D03*
D14*
X79883000Y-99402204D03*
X80962500Y-99402204D03*
X80962500Y-100735704D03*
D13*
X76073000Y-95541204D03*
X76073000Y-106641204D03*
D14*
X79883000Y-100735704D03*
D15*
X176530000Y-101600000D03*
X182330000Y-101600000D03*
X179530000Y-96800000D03*
D16*
X173095186Y-97930308D03*
X173095186Y-99930308D03*
D17*
X169682186Y-101978308D03*
X171682186Y-101978308D03*
D18*
X166364186Y-98977308D03*
X166364186Y-101677308D03*
D19*
X179451000Y-108839000D03*
D20*
X176911000Y-108839000D03*
X174371000Y-108839000D03*
X171831000Y-108839000D03*
X169291000Y-108839000D03*
X166751000Y-108839000D03*
D21*
X171251186Y-98787308D03*
X171251186Y-98287308D03*
X171251186Y-97787308D03*
X171251186Y-97287308D03*
X171251186Y-96787308D03*
X169351186Y-97787308D03*
X169351186Y-98287308D03*
X169351186Y-98787308D03*
X169351186Y-97287308D03*
X169351186Y-96787308D03*
D22*
X170301186Y-98737308D03*
X170301186Y-97787308D03*
X170301186Y-96837308D03*
D23*
X170301186Y-97787308D03*
D24*
X85852000Y-108966000D03*
D25*
X88392000Y-108966000D03*
D24*
X129667000Y-109220000D03*
D25*
X132207000Y-109220000D03*
D24*
X107696000Y-109220000D03*
D25*
X110236000Y-109220000D03*
D26*
X166630186Y-96644308D03*
X168130186Y-96644308D03*
D27*
X136296400Y-112382300D03*
X136296400Y-110882300D03*
X136296400Y-107948600D03*
X136296400Y-109448600D03*
D28*
X130556000Y-112966500D03*
X157556200Y-96723200D03*
X146431000Y-92265020D03*
X152425400Y-92265020D03*
X139547600Y-92913200D03*
X76073000Y-104990204D03*
X159016700Y-106845100D03*
X157226000Y-107188000D03*
X163957000Y-108331000D03*
X163957000Y-109146555D03*
X168402000Y-100330000D03*
X168393238Y-97673259D03*
X119888000Y-104990204D03*
X145684251Y-93741251D03*
X97917000Y-104990204D03*
X149479000Y-98298000D03*
X153416000Y-108204000D03*
X154432000Y-105537000D03*
X151257000Y-108839000D03*
X158623000Y-98552000D03*
X154432000Y-99949000D03*
X155194000Y-95504000D03*
X134952751Y-110774020D03*
D29*
X175688735Y-97930308D02*
X176530000Y-98771573D01*
X176530000Y-98771573D02*
X176530000Y-101600000D01*
X174536746Y-97930308D02*
X175293397Y-97930308D01*
X175293397Y-97930308D02*
X175688735Y-97930308D01*
D30*
X171251186Y-98287308D02*
X171594680Y-97943814D01*
X171594680Y-97943814D02*
X171608186Y-97930308D01*
X171251186Y-97787308D02*
X171438174Y-97787308D01*
X171438174Y-97787308D02*
X171594680Y-97943814D01*
X171608186Y-97930308D02*
X173095186Y-97930308D01*
D29*
X174536746Y-97930308D02*
X174865692Y-97930308D01*
X173095186Y-97930308D02*
X174536746Y-97930308D01*
D30*
X135583700Y-107948600D02*
X135055904Y-107948600D01*
X136296400Y-107948600D02*
X135055904Y-107948600D01*
X135055904Y-107948600D02*
X134898000Y-107948600D01*
X135807719Y-107948600D02*
X135583700Y-107948600D01*
X135807719Y-107948600D02*
X136296400Y-107948600D01*
X136283700Y-107948600D02*
X135807719Y-107948600D01*
X135583700Y-107948600D02*
X135582300Y-107950000D01*
X157556200Y-96298936D02*
X157556200Y-95478600D01*
X157556200Y-96723200D02*
X157556200Y-96298936D01*
D31*
X170301186Y-96837308D02*
X170301186Y-95560614D01*
D32*
X132207000Y-109220000D02*
X132207000Y-106704704D01*
X132207000Y-106704704D02*
X131635500Y-106133204D01*
X110236000Y-106704704D02*
X109664500Y-106133204D01*
X88392000Y-108966000D02*
X88392000Y-106704704D01*
X88392000Y-106704704D02*
X87820500Y-106133204D01*
X110236000Y-109220000D02*
X110236000Y-106704704D01*
D30*
X170301186Y-96837308D02*
X170301186Y-98800186D01*
X170301186Y-98800186D02*
X171251186Y-99750186D01*
X171251186Y-99750186D02*
X171431308Y-99930308D01*
X171431308Y-99930308D02*
X173095186Y-99930308D01*
X171251186Y-98787308D02*
X171251186Y-99750186D01*
X169351186Y-96787308D02*
X170251186Y-96787308D01*
X170251186Y-96787308D02*
X170301186Y-96837308D01*
X171251186Y-97287308D02*
X170751186Y-97287308D01*
X170751186Y-97287308D02*
X170301186Y-96837308D01*
X171251186Y-96787308D02*
X170351186Y-96787308D01*
X170351186Y-96787308D02*
X170301186Y-96837308D01*
X76073000Y-108355704D02*
X75692000Y-108736704D01*
X76073000Y-106641204D02*
X76073000Y-108355704D01*
X76073000Y-104990204D02*
X76073000Y-106628704D01*
X159016700Y-106845100D02*
X159016700Y-108044959D01*
X159016700Y-108044959D02*
X159596363Y-108624622D01*
X157226000Y-107188000D02*
X157226000Y-108703750D01*
X157226000Y-108703750D02*
X157664511Y-109142261D01*
D29*
X162911016Y-108106984D02*
X163797125Y-107220875D01*
X161528215Y-108106984D02*
X162911016Y-108106984D01*
X163797125Y-107220875D02*
X164034155Y-106983845D01*
X164034155Y-106983845D02*
X163957000Y-107061000D01*
X163957000Y-107061000D02*
X163957000Y-108331000D01*
X164408213Y-108695342D02*
X163957000Y-109146555D01*
X164034155Y-106983845D02*
X164408213Y-106609787D01*
X164721431Y-106296569D02*
X166364186Y-104653814D01*
X164408213Y-106609787D02*
X164721431Y-106296569D01*
X164408213Y-106609787D02*
X164408213Y-108695342D01*
D30*
X166364186Y-101677308D02*
X167054692Y-101677308D01*
X167054692Y-101677308D02*
X168402000Y-100330000D01*
X169682186Y-101978308D02*
X169381186Y-101677308D01*
X169381186Y-101677308D02*
X166364186Y-101677308D01*
D29*
X166364186Y-104653814D02*
X166364186Y-101677308D01*
D30*
X168783000Y-99695000D02*
X168783000Y-99949000D01*
X168783000Y-99949000D02*
X168402000Y-100330000D01*
X169351186Y-99126814D02*
X168783000Y-99695000D01*
X169351186Y-98787308D02*
X169351186Y-99126814D01*
X169351186Y-97787308D02*
X168507287Y-97787308D01*
X168507287Y-97787308D02*
X168393238Y-97673259D01*
X166630186Y-97542186D02*
X166761259Y-97673259D01*
X166761259Y-97673259D02*
X168393238Y-97673259D01*
X166630186Y-96644308D02*
X166630186Y-97542186D01*
X76073000Y-95541204D02*
X74223000Y-95541204D01*
X74223000Y-95541204D02*
X73660000Y-96104204D01*
X73660000Y-96104204D02*
X73660000Y-96417704D01*
X76073000Y-95528704D02*
X75311000Y-95528704D01*
X119888000Y-95541204D02*
X118038000Y-95541204D01*
X118038000Y-95541204D02*
X117771500Y-95274704D01*
X117771500Y-95274704D02*
X117475000Y-95274704D01*
X119888000Y-95528704D02*
X119126000Y-95528704D01*
X119888000Y-106641204D02*
X119888000Y-108355704D01*
X119888000Y-108355704D02*
X119507000Y-108736704D01*
X119888000Y-104990204D02*
X119888000Y-106628704D01*
X166364186Y-98977308D02*
X168201184Y-98977308D01*
X168201184Y-98977308D02*
X168891184Y-98287308D01*
X168891184Y-98287308D02*
X169351186Y-98287308D01*
X169351186Y-97287308D02*
X168891184Y-97287308D01*
X168891184Y-97287308D02*
X168776185Y-97172309D01*
X168776185Y-97172309D02*
X168776185Y-96790307D01*
X168776185Y-96790307D02*
X168630186Y-96644308D01*
X168630186Y-96644308D02*
X168130186Y-96644308D01*
X145684251Y-93741251D02*
X146228741Y-93741251D01*
X146228741Y-93741251D02*
X147727852Y-95240362D01*
X146328007Y-93840517D02*
X147727852Y-95240362D01*
X147727852Y-94362452D02*
X147727852Y-95240362D01*
X97917000Y-95541204D02*
X96067000Y-95541204D01*
X96067000Y-95541204D02*
X95800500Y-95274704D01*
X95800500Y-95274704D02*
X95504000Y-95274704D01*
X97917000Y-95528704D02*
X97155000Y-95528704D01*
X97917000Y-108355704D02*
X97536000Y-108736704D01*
X97917000Y-106641204D02*
X97917000Y-108355704D01*
X97917000Y-104990204D02*
X97917000Y-106628704D01*
X149479000Y-98298000D02*
X150114000Y-97663000D01*
X150114000Y-97663000D02*
X150114000Y-95885000D01*
X150114000Y-95885000D02*
X149659703Y-94722724D01*
X153416000Y-108204000D02*
X153416000Y-109792729D01*
X153416000Y-109792729D02*
X153800808Y-110177537D01*
X154432000Y-105537000D02*
X152984200Y-105537000D01*
X148703079Y-109818121D02*
X147994771Y-109818121D01*
X152984200Y-105537000D02*
X148703079Y-109818121D01*
X147994771Y-109818121D02*
X147701000Y-110111892D01*
X147701000Y-110111892D02*
X147701000Y-111426198D01*
X147701000Y-111426198D02*
X148005253Y-111730451D01*
X151257000Y-108839000D02*
X151257000Y-110083219D01*
X151257000Y-110083219D02*
X151868956Y-110695175D01*
X158623000Y-98552000D02*
X155067000Y-98552000D01*
X155067000Y-98552000D02*
X153924000Y-97409000D01*
X153924000Y-94088040D02*
X153523407Y-93687447D01*
X153924000Y-97409000D02*
X153924000Y-94088040D01*
X151591555Y-94205085D02*
X151591555Y-97108555D01*
X151591555Y-97108555D02*
X154432000Y-99949000D01*
X151591555Y-94949555D02*
X151591555Y-94205085D01*
X155455258Y-93169809D02*
X155455258Y-95242742D01*
X155455258Y-95242742D02*
X155194000Y-95504000D01*
X145796000Y-95758000D02*
X145796000Y-97282000D01*
X160063473Y-106445594D02*
X160840222Y-109472957D01*
X145796000Y-97282000D02*
X151516679Y-103002679D01*
X151516679Y-103002679D02*
X156620558Y-103002679D01*
X156620558Y-103002679D02*
X160063473Y-106445594D01*
X160840222Y-109472957D02*
X161281333Y-109914068D01*
X161281333Y-109914068D02*
X161289059Y-109914068D01*
X161289059Y-109914068D02*
X161610991Y-110236000D01*
X161610991Y-110236000D02*
X164987978Y-110236000D01*
X164987978Y-110236000D02*
X165156541Y-110236000D01*
X174371000Y-108839000D02*
X174371000Y-110109000D01*
X174371000Y-110109000D02*
X174244000Y-110236000D01*
X174244000Y-110236000D02*
X164987978Y-110236000D01*
X143864148Y-96275638D02*
X143864148Y-96747148D01*
X158007635Y-106864884D02*
X159004000Y-110236000D01*
X143864148Y-96747148D02*
X145345990Y-98228990D01*
X145345990Y-98228990D02*
X146106580Y-98228990D01*
X146106580Y-98228990D02*
X151330279Y-103452689D01*
X159454010Y-110686010D02*
X160247573Y-110686010D01*
X151330279Y-103452689D02*
X156157689Y-103452689D01*
X156157689Y-103452689D02*
X158007635Y-105302635D01*
X159004000Y-110236000D02*
X159454010Y-110686010D01*
X158007635Y-105302635D02*
X158007635Y-106864884D01*
X164915010Y-110686010D02*
X162860717Y-110686010D01*
X162860717Y-110686010D02*
X160849600Y-110686010D01*
X160247573Y-110686010D02*
X162860717Y-110686010D01*
X161936066Y-110686010D02*
X161678772Y-110686010D01*
X176714990Y-110686010D02*
X161936066Y-110686010D01*
X160247573Y-110686010D02*
X161678772Y-110686010D01*
X161936066Y-110686010D02*
X160247573Y-110686010D01*
X161678772Y-110686010D02*
X161424591Y-110686010D01*
X176911000Y-108839000D02*
X176911000Y-110490000D01*
X176911000Y-110490000D02*
X176714990Y-110686010D01*
X155732660Y-111525312D02*
X155732660Y-111752912D01*
X155732660Y-111869040D02*
X153885900Y-113715800D01*
X155732660Y-109659899D02*
X155732660Y-111525312D01*
X155732660Y-111525312D02*
X155732660Y-111869040D01*
X136296400Y-112382300D02*
X136296400Y-112735134D01*
X136296400Y-112735134D02*
X136296400Y-112882300D01*
X136626600Y-113715800D02*
X136296400Y-113385600D01*
X136296400Y-113385600D02*
X136296400Y-112735134D01*
X153885900Y-113715800D02*
X136626600Y-113715800D01*
X154345948Y-113255752D02*
X153885900Y-113715800D01*
X136296400Y-110882300D02*
X136296400Y-109448600D01*
X134952751Y-110774020D02*
X136188120Y-110774020D01*
X136188120Y-110774020D02*
X136296400Y-110882300D01*
D33*
G36*
X77787180Y-96888792D02*
X69671564Y-96875802D01*
X69653209Y-93223277D01*
X70345486Y-92531000D01*
X77776260Y-92531000D01*
X77787180Y-96888792D01*
X77787180Y-96888792D01*
G37*
X77787180Y-96888792D02*
X69671564Y-96875802D01*
X69653209Y-93223277D01*
X70345486Y-92531000D01*
X77776260Y-92531000D01*
X77787180Y-96888792D01*
G36*
X88125867Y-96861813D02*
X88125866Y-96862204D01*
X88125866Y-107212704D01*
X78359000Y-107212704D01*
X78359000Y-107085704D01*
X78320440Y-106880824D01*
X78320440Y-105391204D01*
X78276162Y-105155887D01*
X78137090Y-104939763D01*
X77924890Y-104794773D01*
X77673000Y-104743764D01*
X76982845Y-104743764D01*
X76866117Y-104461261D01*
X76603327Y-104198012D01*
X76259799Y-104055366D01*
X75887833Y-104055042D01*
X75544057Y-104197087D01*
X75280808Y-104459877D01*
X75162927Y-104743764D01*
X74473000Y-104743764D01*
X74237683Y-104788042D01*
X74021559Y-104927114D01*
X73876569Y-105139314D01*
X73825560Y-105391204D01*
X73825560Y-106451036D01*
X72568366Y-106451143D01*
X72568366Y-100037204D01*
X79235866Y-100037204D01*
X79285276Y-100027198D01*
X79326901Y-99998757D01*
X79354181Y-99956363D01*
X79362866Y-99910204D01*
X79362866Y-97560704D01*
X79352860Y-97511294D01*
X79315951Y-97462138D01*
X78549059Y-96839038D01*
X78539569Y-93052204D01*
X88137608Y-93052204D01*
X88125867Y-96861813D01*
X88125867Y-96861813D01*
G37*
X88125867Y-96861813D02*
X88125866Y-96862204D01*
X88125866Y-107212704D01*
X78359000Y-107212704D01*
X78359000Y-107085704D01*
X78320440Y-106880824D01*
X78320440Y-105391204D01*
X78276162Y-105155887D01*
X78137090Y-104939763D01*
X77924890Y-104794773D01*
X77673000Y-104743764D01*
X76982845Y-104743764D01*
X76866117Y-104461261D01*
X76603327Y-104198012D01*
X76259799Y-104055366D01*
X75887833Y-104055042D01*
X75544057Y-104197087D01*
X75280808Y-104459877D01*
X75162927Y-104743764D01*
X74473000Y-104743764D01*
X74237683Y-104788042D01*
X74021559Y-104927114D01*
X73876569Y-105139314D01*
X73825560Y-105391204D01*
X73825560Y-106451036D01*
X72568366Y-106451143D01*
X72568366Y-100037204D01*
X79235866Y-100037204D01*
X79285276Y-100027198D01*
X79326901Y-99998757D01*
X79354181Y-99956363D01*
X79362866Y-99910204D01*
X79362866Y-97560704D01*
X79352860Y-97511294D01*
X79315951Y-97462138D01*
X78549059Y-96839038D01*
X78539569Y-93052204D01*
X88137608Y-93052204D01*
X88125867Y-96861813D01*
G36*
X77597000Y-107847704D02*
X77607006Y-107897114D01*
X77635447Y-107938739D01*
X77677841Y-107966019D01*
X77724000Y-107974704D01*
X87085264Y-107974704D01*
X86866675Y-108301845D01*
X86741000Y-108933655D01*
X86741000Y-108998345D01*
X86866675Y-109630155D01*
X87203136Y-110133704D01*
X69989796Y-110133704D01*
X69661323Y-109805231D01*
X69671693Y-107213389D01*
X77597000Y-107212715D01*
X77597000Y-107847704D01*
X77597000Y-107847704D01*
G37*
X77597000Y-107847704D02*
X77607006Y-107897114D01*
X77635447Y-107938739D01*
X77677841Y-107966019D01*
X77724000Y-107974704D01*
X87085264Y-107974704D01*
X86866675Y-108301845D01*
X86741000Y-108933655D01*
X86741000Y-108998345D01*
X86866675Y-109630155D01*
X87203136Y-110133704D01*
X69989796Y-110133704D01*
X69661323Y-109805231D01*
X69671693Y-107213389D01*
X77597000Y-107212715D01*
X77597000Y-107847704D01*
G36*
X121412000Y-107847704D02*
X121422006Y-107897114D01*
X121450447Y-107938739D01*
X121492841Y-107966019D01*
X121539000Y-107974704D01*
X131107689Y-107974704D01*
X131039567Y-108020222D01*
X130681675Y-108555845D01*
X130556000Y-109187655D01*
X130556000Y-109252345D01*
X130681675Y-109884155D01*
X130848418Y-110133704D01*
X113473993Y-110133704D01*
X113462309Y-107213389D01*
X121412000Y-107212715D01*
X121412000Y-107847704D01*
X121412000Y-107847704D01*
G37*
X121412000Y-107847704D02*
X121422006Y-107897114D01*
X121450447Y-107938739D01*
X121492841Y-107966019D01*
X121539000Y-107974704D01*
X131107689Y-107974704D01*
X131039567Y-108020222D01*
X130681675Y-108555845D01*
X130556000Y-109187655D01*
X130556000Y-109252345D01*
X130681675Y-109884155D01*
X130848418Y-110133704D01*
X113473993Y-110133704D01*
X113462309Y-107213389D01*
X121412000Y-107212715D01*
X121412000Y-107847704D01*
G36*
X131940867Y-96861813D02*
X131940866Y-96862204D01*
X131940866Y-107212704D01*
X122174000Y-107212704D01*
X122174000Y-107085704D01*
X122135440Y-106880824D01*
X122135440Y-105391204D01*
X122091162Y-105155887D01*
X121952090Y-104939763D01*
X121739890Y-104794773D01*
X121488000Y-104743764D01*
X120797845Y-104743764D01*
X120681117Y-104461261D01*
X120418327Y-104198012D01*
X120074799Y-104055366D01*
X119702833Y-104055042D01*
X119359057Y-104197087D01*
X119095808Y-104459877D01*
X118977927Y-104743764D01*
X118288000Y-104743764D01*
X118052683Y-104788042D01*
X117836559Y-104927114D01*
X117691569Y-105139314D01*
X117640560Y-105391204D01*
X117640560Y-106451035D01*
X116383366Y-106451142D01*
X116383366Y-100037204D01*
X123050866Y-100037204D01*
X123100276Y-100027198D01*
X123141901Y-99998757D01*
X123169181Y-99956363D01*
X123177866Y-99910204D01*
X123177866Y-97560704D01*
X123167860Y-97511294D01*
X123130951Y-97462138D01*
X122364500Y-96839397D01*
X122364500Y-93052204D01*
X131952608Y-93052204D01*
X131940867Y-96861813D01*
X131940867Y-96861813D01*
G37*
X131940867Y-96861813D02*
X131940866Y-96862204D01*
X131940866Y-107212704D01*
X122174000Y-107212704D01*
X122174000Y-107085704D01*
X122135440Y-106880824D01*
X122135440Y-105391204D01*
X122091162Y-105155887D01*
X121952090Y-104939763D01*
X121739890Y-104794773D01*
X121488000Y-104743764D01*
X120797845Y-104743764D01*
X120681117Y-104461261D01*
X120418327Y-104198012D01*
X120074799Y-104055366D01*
X119702833Y-104055042D01*
X119359057Y-104197087D01*
X119095808Y-104459877D01*
X118977927Y-104743764D01*
X118288000Y-104743764D01*
X118052683Y-104788042D01*
X117836559Y-104927114D01*
X117691569Y-105139314D01*
X117640560Y-105391204D01*
X117640560Y-106451035D01*
X116383366Y-106451142D01*
X116383366Y-100037204D01*
X123050866Y-100037204D01*
X123100276Y-100027198D01*
X123141901Y-99998757D01*
X123169181Y-99956363D01*
X123177866Y-99910204D01*
X123177866Y-97560704D01*
X123167860Y-97511294D01*
X123130951Y-97462138D01*
X122364500Y-96839397D01*
X122364500Y-93052204D01*
X131952608Y-93052204D01*
X131940867Y-96861813D01*
G36*
X121602500Y-96862022D02*
X113462198Y-96850382D01*
X113474102Y-93052204D01*
X121602500Y-93052204D01*
X121602500Y-96862022D01*
X121602500Y-96862022D01*
G37*
X121602500Y-96862022D02*
X113462198Y-96850382D01*
X113474102Y-93052204D01*
X121602500Y-93052204D01*
X121602500Y-96862022D01*
G36*
X109969867Y-96861813D02*
X109969866Y-96862204D01*
X109969866Y-107212704D01*
X100203000Y-107212704D01*
X100203000Y-107085704D01*
X100164440Y-106880824D01*
X100164440Y-105391204D01*
X100120162Y-105155887D01*
X99981090Y-104939763D01*
X99768890Y-104794773D01*
X99517000Y-104743764D01*
X98826845Y-104743764D01*
X98710117Y-104461261D01*
X98447327Y-104198012D01*
X98103799Y-104055366D01*
X97731833Y-104055042D01*
X97388057Y-104197087D01*
X97124808Y-104459877D01*
X97006927Y-104743764D01*
X96317000Y-104743764D01*
X96081683Y-104788042D01*
X95865559Y-104927114D01*
X95720569Y-105139314D01*
X95669560Y-105391204D01*
X95669560Y-106451037D01*
X94412366Y-106451144D01*
X94412366Y-100037204D01*
X101079866Y-100037204D01*
X101129276Y-100027198D01*
X101170901Y-99998757D01*
X101198181Y-99956363D01*
X101206866Y-99910204D01*
X101206866Y-97560704D01*
X101196860Y-97511294D01*
X101159951Y-97462138D01*
X100393697Y-96839557D01*
X100399642Y-93052204D01*
X109981608Y-93052204D01*
X109969867Y-96861813D01*
X109969867Y-96861813D01*
G37*
X109969867Y-96861813D02*
X109969866Y-96862204D01*
X109969866Y-107212704D01*
X100203000Y-107212704D01*
X100203000Y-107085704D01*
X100164440Y-106880824D01*
X100164440Y-105391204D01*
X100120162Y-105155887D01*
X99981090Y-104939763D01*
X99768890Y-104794773D01*
X99517000Y-104743764D01*
X98826845Y-104743764D01*
X98710117Y-104461261D01*
X98447327Y-104198012D01*
X98103799Y-104055366D01*
X97731833Y-104055042D01*
X97388057Y-104197087D01*
X97124808Y-104459877D01*
X97006927Y-104743764D01*
X96317000Y-104743764D01*
X96081683Y-104788042D01*
X95865559Y-104927114D01*
X95720569Y-105139314D01*
X95669560Y-105391204D01*
X95669560Y-106451037D01*
X94412366Y-106451144D01*
X94412366Y-100037204D01*
X101079866Y-100037204D01*
X101129276Y-100027198D01*
X101170901Y-99998757D01*
X101198181Y-99956363D01*
X101206866Y-99910204D01*
X101206866Y-97560704D01*
X101196860Y-97511294D01*
X101159951Y-97462138D01*
X100393697Y-96839557D01*
X100399642Y-93052204D01*
X109981608Y-93052204D01*
X109969867Y-96861813D01*
G36*
X99441000Y-107847704D02*
X99451006Y-107897114D01*
X99479447Y-107938739D01*
X99521841Y-107966019D01*
X99568000Y-107974704D01*
X109136689Y-107974704D01*
X109068567Y-108020222D01*
X108710675Y-108555845D01*
X108585000Y-109187655D01*
X108585000Y-109252345D01*
X108710675Y-109884155D01*
X109068567Y-110419778D01*
X109604190Y-110777670D01*
X109982000Y-110852821D01*
X109982000Y-111050000D01*
X94528091Y-111050000D01*
X94228046Y-110749954D01*
X93997705Y-110596046D01*
X93726000Y-110542000D01*
X91513280Y-110542000D01*
X91540564Y-107213389D01*
X99441000Y-107212715D01*
X99441000Y-107847704D01*
X99441000Y-107847704D01*
G37*
X99441000Y-107847704D02*
X99451006Y-107897114D01*
X99479447Y-107938739D01*
X99521841Y-107966019D01*
X99568000Y-107974704D01*
X109136689Y-107974704D01*
X109068567Y-108020222D01*
X108710675Y-108555845D01*
X108585000Y-109187655D01*
X108585000Y-109252345D01*
X108710675Y-109884155D01*
X109068567Y-110419778D01*
X109604190Y-110777670D01*
X109982000Y-110852821D01*
X109982000Y-111050000D01*
X94528091Y-111050000D01*
X94228046Y-110749954D01*
X93997705Y-110596046D01*
X93726000Y-110542000D01*
X91513280Y-110542000D01*
X91540564Y-107213389D01*
X99441000Y-107212715D01*
X99441000Y-107847704D01*
G36*
X99631699Y-96837500D02*
X91503700Y-96837500D01*
X91510460Y-92531000D01*
X93726000Y-92531000D01*
X93949105Y-92486622D01*
X94138243Y-92360243D01*
X97015486Y-89483000D01*
X99643244Y-89483000D01*
X99631699Y-96837500D01*
X99631699Y-96837500D01*
G37*
X99631699Y-96837500D02*
X91503700Y-96837500D01*
X91510460Y-92531000D01*
X93726000Y-92531000D01*
X93949105Y-92486622D01*
X94138243Y-92360243D01*
X97015486Y-89483000D01*
X99643244Y-89483000D01*
X99631699Y-96837500D01*
G36*
X169492722Y-98987308D02*
X169506964Y-99062997D01*
X169064830Y-99615664D01*
X169041777Y-99660497D01*
X169037000Y-99695000D01*
X169037000Y-101346000D01*
X169047006Y-101395410D01*
X169075447Y-101437035D01*
X169117841Y-101464315D01*
X169164000Y-101473000D01*
X170053000Y-101473000D01*
X170053000Y-102870000D01*
X164211000Y-102870000D01*
X164211000Y-99983765D01*
X164213052Y-99985167D01*
X164364186Y-100015772D01*
X168364186Y-100015772D01*
X168505376Y-99989205D01*
X168635051Y-99905762D01*
X168722045Y-99778442D01*
X168752650Y-99627308D01*
X168752650Y-99141434D01*
X169088084Y-98806000D01*
X169492722Y-98806000D01*
X169492722Y-98987308D01*
X169492722Y-98987308D01*
G37*
X169492722Y-98987308D02*
X169506964Y-99062997D01*
X169064830Y-99615664D01*
X169041777Y-99660497D01*
X169037000Y-99695000D01*
X169037000Y-101346000D01*
X169047006Y-101395410D01*
X169075447Y-101437035D01*
X169117841Y-101464315D01*
X169164000Y-101473000D01*
X170053000Y-101473000D01*
X170053000Y-102870000D01*
X164211000Y-102870000D01*
X164211000Y-99983765D01*
X164213052Y-99985167D01*
X164364186Y-100015772D01*
X168364186Y-100015772D01*
X168505376Y-99989205D01*
X168635051Y-99905762D01*
X168722045Y-99778442D01*
X168752650Y-99627308D01*
X168752650Y-99141434D01*
X169088084Y-98806000D01*
X169492722Y-98806000D01*
X169492722Y-98987308D01*
G36*
X173990000Y-98298000D02*
X171620473Y-98298000D01*
X171501186Y-98273844D01*
X171109650Y-98273844D01*
X171109650Y-97800772D01*
X171501186Y-97800772D01*
X171558434Y-97790000D01*
X171577000Y-97790000D01*
X171626410Y-97779994D01*
X171632152Y-97776129D01*
X171642376Y-97774205D01*
X171772051Y-97690762D01*
X171859045Y-97563442D01*
X171859777Y-97559829D01*
X172137606Y-97282000D01*
X173990000Y-97282000D01*
X173990000Y-98298000D01*
X173990000Y-98298000D01*
G37*
X173990000Y-98298000D02*
X171620473Y-98298000D01*
X171501186Y-98273844D01*
X171109650Y-98273844D01*
X171109650Y-97800772D01*
X171501186Y-97800772D01*
X171558434Y-97790000D01*
X171577000Y-97790000D01*
X171626410Y-97779994D01*
X171632152Y-97776129D01*
X171642376Y-97774205D01*
X171772051Y-97690762D01*
X171859045Y-97563442D01*
X171859777Y-97559829D01*
X172137606Y-97282000D01*
X173990000Y-97282000D01*
X173990000Y-98298000D01*
G36*
X159951559Y-92270441D02*
X160099496Y-92369289D01*
X160274000Y-92404000D01*
X183707118Y-92404000D01*
X184716559Y-93413441D01*
X184864496Y-93512289D01*
X185039000Y-93547000D01*
X187504000Y-93547000D01*
X187504000Y-109653000D01*
X185039000Y-109653000D01*
X184864496Y-109687711D01*
X184755218Y-109760728D01*
X184716559Y-109786559D01*
X183707118Y-110796000D01*
X177303405Y-110796000D01*
X177378483Y-110683638D01*
X177417000Y-110490000D01*
X177417000Y-110148776D01*
X177791065Y-109898834D01*
X178060860Y-109495057D01*
X178155600Y-109018769D01*
X178155600Y-108659231D01*
X178060860Y-108182943D01*
X177820354Y-107823000D01*
X178198936Y-107823000D01*
X178198936Y-109855000D01*
X178225503Y-109996190D01*
X178308946Y-110125865D01*
X178436266Y-110212859D01*
X178587400Y-110243464D01*
X180314600Y-110243464D01*
X180455790Y-110216897D01*
X180585465Y-110133454D01*
X180672459Y-110006134D01*
X180703064Y-109855000D01*
X180703064Y-107823000D01*
X180676497Y-107681810D01*
X180593054Y-107552135D01*
X180465734Y-107465141D01*
X180314600Y-107434536D01*
X178587400Y-107434536D01*
X178446210Y-107461103D01*
X178316535Y-107544546D01*
X178229541Y-107671866D01*
X178198936Y-107823000D01*
X177820354Y-107823000D01*
X177791065Y-107779166D01*
X177387288Y-107509371D01*
X176911000Y-107414631D01*
X176434712Y-107509371D01*
X176030935Y-107779166D01*
X175761140Y-108182943D01*
X175666400Y-108659231D01*
X175666400Y-109018769D01*
X175761140Y-109495057D01*
X176030935Y-109898834D01*
X176405000Y-110148776D01*
X176405000Y-110180010D01*
X174862875Y-110180010D01*
X174867875Y-110154873D01*
X175251065Y-109898834D01*
X175520860Y-109495057D01*
X175615600Y-109018769D01*
X175615600Y-108659231D01*
X175520860Y-108182943D01*
X175251065Y-107779166D01*
X174847288Y-107509371D01*
X174371000Y-107414631D01*
X173894712Y-107509371D01*
X173490935Y-107779166D01*
X173221140Y-108182943D01*
X173126400Y-108659231D01*
X173126400Y-109018769D01*
X173221140Y-109495057D01*
X173378124Y-109730000D01*
X172823876Y-109730000D01*
X172980860Y-109495057D01*
X173075600Y-109018769D01*
X173075600Y-108659231D01*
X172980860Y-108182943D01*
X172711065Y-107779166D01*
X172307288Y-107509371D01*
X171831000Y-107414631D01*
X171354712Y-107509371D01*
X170950935Y-107779166D01*
X170681140Y-108182943D01*
X170586400Y-108659231D01*
X170586400Y-109018769D01*
X170681140Y-109495057D01*
X170838124Y-109730000D01*
X170283876Y-109730000D01*
X170440860Y-109495057D01*
X170535600Y-109018769D01*
X170535600Y-108659231D01*
X170440860Y-108182943D01*
X170171065Y-107779166D01*
X169767288Y-107509371D01*
X169291000Y-107414631D01*
X168814712Y-107509371D01*
X168410935Y-107779166D01*
X168141140Y-108182943D01*
X168138296Y-108197243D01*
X168042954Y-107924680D01*
X167653036Y-107488268D01*
X167125791Y-107234291D01*
X167110026Y-107231642D01*
X166878000Y-107352783D01*
X166878000Y-108712000D01*
X166898000Y-108712000D01*
X166898000Y-108966000D01*
X166878000Y-108966000D01*
X166878000Y-108986000D01*
X166624000Y-108986000D01*
X166624000Y-108966000D01*
X165410076Y-108966000D01*
X165265816Y-109200913D01*
X165450889Y-109730000D01*
X164328254Y-109730000D01*
X164342252Y-109724216D01*
X164376004Y-109690522D01*
X164450914Y-109640469D01*
X164902127Y-109189256D01*
X165053543Y-108962646D01*
X165106713Y-108695342D01*
X165106713Y-108477087D01*
X165265816Y-108477087D01*
X165410076Y-108712000D01*
X166624000Y-108712000D01*
X166624000Y-107352783D01*
X166391974Y-107231642D01*
X166376209Y-107234291D01*
X165848964Y-107488268D01*
X165459046Y-107924680D01*
X165265816Y-108477087D01*
X165106713Y-108477087D01*
X165106713Y-106899115D01*
X166858100Y-105147728D01*
X166983527Y-104960013D01*
X167009516Y-104921118D01*
X167062686Y-104653814D01*
X167062686Y-103378000D01*
X170180000Y-103378000D01*
X170318477Y-103351944D01*
X170445660Y-103270104D01*
X170530983Y-103145230D01*
X170561000Y-102997000D01*
X170561000Y-102762968D01*
X170643859Y-102963007D01*
X170822488Y-103141635D01*
X171055877Y-103238308D01*
X171396436Y-103238308D01*
X171555186Y-103079558D01*
X171555186Y-102105308D01*
X171809186Y-102105308D01*
X171809186Y-103079558D01*
X171967936Y-103238308D01*
X172308495Y-103238308D01*
X172541884Y-103141635D01*
X172720513Y-102963007D01*
X172817186Y-102729618D01*
X172817186Y-102264058D01*
X172658436Y-102105308D01*
X171809186Y-102105308D01*
X171555186Y-102105308D01*
X171535186Y-102105308D01*
X171535186Y-101854000D01*
X173736000Y-101854000D01*
X173782159Y-101845315D01*
X173824553Y-101818035D01*
X173852994Y-101776410D01*
X173863000Y-101727000D01*
X173863000Y-101058472D01*
X174079885Y-100968635D01*
X174258513Y-100790006D01*
X174355186Y-100556617D01*
X174355186Y-100216058D01*
X174196436Y-100057308D01*
X173863000Y-100057308D01*
X173863000Y-99803308D01*
X174196436Y-99803308D01*
X174355186Y-99644558D01*
X174355186Y-99303999D01*
X174258513Y-99070610D01*
X174079885Y-98891981D01*
X173863000Y-98802144D01*
X173863000Y-98791160D01*
X173991051Y-98708762D01*
X174045681Y-98628808D01*
X175399407Y-98628808D01*
X175831500Y-99060901D01*
X175831500Y-99312368D01*
X175183034Y-99580309D01*
X174512663Y-100249511D01*
X174149414Y-101124312D01*
X174148587Y-102071532D01*
X174510309Y-102946966D01*
X175179511Y-103617337D01*
X176054312Y-103980586D01*
X177001532Y-103981413D01*
X177876966Y-103619691D01*
X178021887Y-103475022D01*
X180634584Y-103475022D01*
X180855353Y-103845743D01*
X181827012Y-104239119D01*
X182875247Y-104230713D01*
X183804647Y-103845743D01*
X184025416Y-103475022D01*
X182330000Y-101779605D01*
X180634584Y-103475022D01*
X178021887Y-103475022D01*
X178547337Y-102950489D01*
X178910586Y-102075688D01*
X178911413Y-101128468D01*
X178898416Y-101097012D01*
X179690881Y-101097012D01*
X179699287Y-102145247D01*
X180084257Y-103074647D01*
X180454978Y-103295416D01*
X182150395Y-101600000D01*
X182509605Y-101600000D01*
X184205022Y-103295416D01*
X184575743Y-103074647D01*
X184969119Y-102102988D01*
X184960713Y-101054753D01*
X184575743Y-100125353D01*
X184205022Y-99904584D01*
X182509605Y-101600000D01*
X182150395Y-101600000D01*
X180454978Y-99904584D01*
X180084257Y-100125353D01*
X179690881Y-101097012D01*
X178898416Y-101097012D01*
X178549691Y-100253034D01*
X178022556Y-99724978D01*
X180634584Y-99724978D01*
X182330000Y-101420395D01*
X184025416Y-99724978D01*
X183804647Y-99354257D01*
X182832988Y-98960881D01*
X181784753Y-98969287D01*
X180855353Y-99354257D01*
X180634584Y-99724978D01*
X178022556Y-99724978D01*
X177880489Y-99582663D01*
X177228500Y-99311934D01*
X177228500Y-98771573D01*
X177209295Y-98675022D01*
X177834584Y-98675022D01*
X178055353Y-99045743D01*
X179027012Y-99439119D01*
X180075247Y-99430713D01*
X181004647Y-99045743D01*
X181225416Y-98675022D01*
X179530000Y-96979605D01*
X177834584Y-98675022D01*
X177209295Y-98675022D01*
X177175330Y-98504269D01*
X177023914Y-98277659D01*
X176182649Y-97436394D01*
X175956040Y-97284978D01*
X175688735Y-97231808D01*
X174045205Y-97231808D01*
X173998640Y-97159443D01*
X173871320Y-97072449D01*
X173720186Y-97041844D01*
X172470186Y-97041844D01*
X172328996Y-97068411D01*
X172199321Y-97151854D01*
X172136186Y-97244255D01*
X172136186Y-97160306D01*
X172085781Y-97160306D01*
X172116783Y-97085461D01*
X172136186Y-97066058D01*
X172136186Y-97008558D01*
X172116783Y-96989155D01*
X172039513Y-96802609D01*
X171961712Y-96724808D01*
X171977436Y-96724808D01*
X172136186Y-96566058D01*
X172136186Y-96535998D01*
X172039513Y-96302609D01*
X172033916Y-96297012D01*
X176890881Y-96297012D01*
X176899287Y-97345247D01*
X177284257Y-98274647D01*
X177654978Y-98495416D01*
X179350395Y-96800000D01*
X179709605Y-96800000D01*
X181405022Y-98495416D01*
X181775743Y-98274647D01*
X182169119Y-97302988D01*
X182160713Y-96254753D01*
X181775743Y-95325353D01*
X181405022Y-95104584D01*
X179709605Y-96800000D01*
X179350395Y-96800000D01*
X177654978Y-95104584D01*
X177284257Y-95325353D01*
X176890881Y-96297012D01*
X172033916Y-96297012D01*
X171860884Y-96123981D01*
X171627495Y-96027308D01*
X171534936Y-96027308D01*
X171376186Y-96186058D01*
X171376186Y-96527308D01*
X171356186Y-96527308D01*
X171356186Y-96460998D01*
X171259513Y-96227609D01*
X171080884Y-96048981D01*
X170847495Y-95952308D01*
X170586936Y-95952308D01*
X170454992Y-96084252D01*
X170420718Y-96071694D01*
X170146213Y-96083085D01*
X170015436Y-95952308D01*
X169754877Y-95952308D01*
X169521488Y-96048981D01*
X169342859Y-96227609D01*
X169246186Y-96460998D01*
X169246186Y-96609328D01*
X169243668Y-96596669D01*
X169226186Y-96570505D01*
X169226186Y-96186058D01*
X169067436Y-96027308D01*
X168974877Y-96027308D01*
X168754410Y-96118629D01*
X168742083Y-96053118D01*
X168658640Y-95923443D01*
X168531320Y-95836449D01*
X168380186Y-95805844D01*
X167880186Y-95805844D01*
X167738996Y-95832411D01*
X167609321Y-95915854D01*
X167522327Y-96043174D01*
X167491722Y-96194308D01*
X167491722Y-97094308D01*
X167505449Y-97167259D01*
X167253877Y-97167259D01*
X167268650Y-97094308D01*
X167268650Y-96194308D01*
X167242083Y-96053118D01*
X167158640Y-95923443D01*
X167031320Y-95836449D01*
X166880186Y-95805844D01*
X166380186Y-95805844D01*
X166238996Y-95832411D01*
X166109321Y-95915854D01*
X166022327Y-96043174D01*
X165991722Y-96194308D01*
X165991722Y-97094308D01*
X166018289Y-97235498D01*
X166101732Y-97365173D01*
X166124186Y-97380515D01*
X166124186Y-97542186D01*
X166162703Y-97735824D01*
X166272390Y-97899982D01*
X166311252Y-97938844D01*
X164364186Y-97938844D01*
X164222996Y-97965411D01*
X164093321Y-98048854D01*
X164006327Y-98176174D01*
X163977603Y-98318020D01*
X163945523Y-98324056D01*
X163818340Y-98405896D01*
X163733017Y-98530770D01*
X163703000Y-98679000D01*
X163703000Y-102997000D01*
X163729056Y-103135477D01*
X163810896Y-103262660D01*
X163935770Y-103347983D01*
X164084000Y-103378000D01*
X165665686Y-103378000D01*
X165665686Y-104364486D01*
X163449000Y-106581172D01*
X163449000Y-105436907D01*
X163669242Y-105328296D01*
X163908755Y-105055184D01*
X164025521Y-104711204D01*
X164001763Y-104348723D01*
X163841098Y-104022927D01*
X163567985Y-103783415D01*
X163449000Y-103743025D01*
X163449000Y-102952815D01*
X163507883Y-102779352D01*
X163484125Y-102416871D01*
X163449000Y-102345645D01*
X163449000Y-96342200D01*
X163438994Y-96292790D01*
X163410553Y-96251165D01*
X163368159Y-96223885D01*
X163321770Y-96215200D01*
X161682344Y-96218170D01*
X161497432Y-96056008D01*
X161153452Y-95939242D01*
X160790972Y-95963000D01*
X159826115Y-96221533D01*
X154430000Y-96231308D01*
X154430000Y-94897292D01*
X154505925Y-94810716D01*
X154622691Y-94466736D01*
X154598933Y-94104256D01*
X154246435Y-92788716D01*
X154085770Y-92462920D01*
X154003213Y-92390519D01*
X154355974Y-92390519D01*
X154379732Y-92753000D01*
X154732230Y-94068539D01*
X154892895Y-94394335D01*
X154949258Y-94443764D01*
X154949258Y-94868282D01*
X154808748Y-94926339D01*
X154617013Y-95117741D01*
X154513118Y-95367946D01*
X154512882Y-95638865D01*
X154616339Y-95889252D01*
X154807741Y-96080987D01*
X155057946Y-96184882D01*
X155328865Y-96185118D01*
X155579252Y-96081661D01*
X155770987Y-95890259D01*
X155874882Y-95640054D01*
X155874997Y-95507834D01*
X155922741Y-95436380D01*
X155961258Y-95242742D01*
X155961258Y-95161404D01*
X158275720Y-95161404D01*
X158299478Y-95523885D01*
X158460143Y-95849681D01*
X158733255Y-96089193D01*
X159077235Y-96205959D01*
X159439716Y-96182201D01*
X160755255Y-95829703D01*
X161081051Y-95669038D01*
X161320564Y-95395926D01*
X161437330Y-95051946D01*
X161429009Y-94924978D01*
X177834584Y-94924978D01*
X179530000Y-96620395D01*
X181225416Y-94924978D01*
X181004647Y-94554257D01*
X180032988Y-94160881D01*
X178984753Y-94169287D01*
X178055353Y-94554257D01*
X177834584Y-94924978D01*
X161429009Y-94924978D01*
X161413572Y-94689465D01*
X161252907Y-94363669D01*
X160979794Y-94124157D01*
X160635814Y-94007391D01*
X160273334Y-94031149D01*
X158957794Y-94383647D01*
X158631998Y-94544312D01*
X158392486Y-94817424D01*
X158275720Y-95161404D01*
X155961258Y-95161404D01*
X155961258Y-94683070D01*
X156198264Y-94566191D01*
X156437776Y-94293078D01*
X156554542Y-93949098D01*
X156549816Y-93876993D01*
X156692532Y-94102161D01*
X157072829Y-94369763D01*
X157526583Y-94471461D01*
X157552191Y-94465019D01*
X157696241Y-94296554D01*
X157297307Y-92807714D01*
X157277989Y-92812890D01*
X157258987Y-92741974D01*
X157542653Y-92741974D01*
X157941586Y-94230814D01*
X158150570Y-94304684D01*
X158175968Y-94297459D01*
X158518082Y-93982508D01*
X158713627Y-93560610D01*
X158732835Y-93095995D01*
X158564602Y-92468143D01*
X157542653Y-92741974D01*
X157258987Y-92741974D01*
X157212248Y-92567544D01*
X157231567Y-92562368D01*
X156832634Y-91073528D01*
X156646651Y-91007788D01*
X157077979Y-91007788D01*
X157476913Y-92496628D01*
X158498862Y-92222798D01*
X158330630Y-91594946D01*
X158081688Y-91202181D01*
X157701391Y-90934579D01*
X157247637Y-90832881D01*
X157222029Y-90839323D01*
X157077979Y-91007788D01*
X156646651Y-91007788D01*
X156623650Y-90999658D01*
X156598252Y-91006883D01*
X156256138Y-91321834D01*
X156060593Y-91743732D01*
X156049581Y-92010091D01*
X156017621Y-91945282D01*
X155744509Y-91705770D01*
X155400529Y-91589004D01*
X155038048Y-91612762D01*
X154712252Y-91773427D01*
X154472740Y-92046539D01*
X154355974Y-92390519D01*
X154003213Y-92390519D01*
X153812658Y-92223408D01*
X153468678Y-92106642D01*
X153106197Y-92130400D01*
X152780401Y-92291065D01*
X152540889Y-92564177D01*
X152424123Y-92908157D01*
X152447881Y-93270638D01*
X152800379Y-94586177D01*
X152961044Y-94911973D01*
X153234156Y-95151486D01*
X153418000Y-95213893D01*
X153418000Y-96233142D01*
X152097555Y-96235534D01*
X152097555Y-95718346D01*
X152334561Y-95601467D01*
X152574073Y-95328354D01*
X152690839Y-94984374D01*
X152667081Y-94621894D01*
X152314583Y-93306354D01*
X152153918Y-92980558D01*
X151880806Y-92741046D01*
X151536826Y-92624280D01*
X151174345Y-92648038D01*
X150848549Y-92808703D01*
X150609037Y-93081815D01*
X150492271Y-93425795D01*
X150516029Y-93788276D01*
X150868527Y-95103815D01*
X151029192Y-95429611D01*
X151085555Y-95479040D01*
X151085555Y-96237367D01*
X150620000Y-96238210D01*
X150620000Y-95885000D01*
X150617784Y-95873858D01*
X150642221Y-95845993D01*
X150758987Y-95502013D01*
X150735229Y-95139533D01*
X150382731Y-93823993D01*
X150222066Y-93498197D01*
X149948954Y-93258685D01*
X149604974Y-93141919D01*
X149242493Y-93165677D01*
X148916697Y-93326342D01*
X148677185Y-93599454D01*
X148560419Y-93943434D01*
X148584177Y-94305915D01*
X148936675Y-95621454D01*
X149097340Y-95947250D01*
X149370452Y-96186763D01*
X149527839Y-96240189D01*
X148751796Y-96241595D01*
X148827136Y-96019651D01*
X148803378Y-95657171D01*
X148450880Y-94341631D01*
X148290215Y-94015835D01*
X148017103Y-93776323D01*
X147673123Y-93659557D01*
X147310642Y-93683315D01*
X147026514Y-93823432D01*
X146586537Y-93383455D01*
X146422379Y-93273768D01*
X146228741Y-93235251D01*
X146141374Y-93235251D01*
X146070510Y-93164264D01*
X145820305Y-93060369D01*
X145549386Y-93060133D01*
X145298999Y-93163590D01*
X145107264Y-93354992D01*
X145003369Y-93605197D01*
X145003133Y-93876116D01*
X145106590Y-94126503D01*
X145246189Y-94266345D01*
X145052994Y-94361618D01*
X144813482Y-94634730D01*
X144696716Y-94978710D01*
X144720474Y-95341191D01*
X144963576Y-96248458D01*
X144820777Y-96248716D01*
X144587176Y-95376907D01*
X144426511Y-95051111D01*
X144153399Y-94811599D01*
X143809419Y-94694833D01*
X143446938Y-94718591D01*
X143121142Y-94879256D01*
X142881630Y-95152368D01*
X142764864Y-95496348D01*
X142788622Y-95858829D01*
X142894027Y-96252207D01*
X135280170Y-96266000D01*
X135230778Y-96276096D01*
X135189205Y-96304612D01*
X135162002Y-96347055D01*
X135153400Y-96392820D01*
X135133996Y-110111903D01*
X135088805Y-110093138D01*
X134817886Y-110092902D01*
X134567499Y-110196359D01*
X134375764Y-110387761D01*
X134271869Y-110637966D01*
X134271633Y-110908885D01*
X134375090Y-111159272D01*
X134566492Y-111351007D01*
X134816697Y-111454902D01*
X135087616Y-111455138D01*
X135132122Y-111436749D01*
X135128717Y-113844000D01*
X114107881Y-113844000D01*
X111701441Y-111437559D01*
X111661324Y-111410754D01*
X111553504Y-111338711D01*
X111379000Y-111304000D01*
X110744000Y-111304000D01*
X110744000Y-110774177D01*
X111100818Y-110626385D01*
X111573188Y-110188379D01*
X111841983Y-109602946D01*
X111723367Y-109347000D01*
X110744000Y-109347000D01*
X110744000Y-109093000D01*
X111723367Y-109093000D01*
X111841983Y-108837054D01*
X111573188Y-108251621D01*
X111100818Y-107813615D01*
X110706884Y-107650449D01*
X110700573Y-107616909D01*
X110564173Y-107404937D01*
X110356051Y-107262733D01*
X110109000Y-107212704D01*
X100203000Y-107212704D01*
X100203000Y-107088941D01*
X112699805Y-107088941D01*
X112712505Y-110263245D01*
X112755927Y-110491499D01*
X112892327Y-110703471D01*
X113100449Y-110845675D01*
X113347500Y-110895704D01*
X132080000Y-110895704D01*
X132211291Y-110871000D01*
X132334002Y-110871000D01*
X132334002Y-110837344D01*
X132451685Y-110761617D01*
X132589944Y-110825975D01*
X133071818Y-110626385D01*
X133544188Y-110188379D01*
X133812983Y-109602946D01*
X133694367Y-109347000D01*
X132715000Y-109347000D01*
X132715000Y-109093000D01*
X133694367Y-109093000D01*
X133812983Y-108837054D01*
X133544188Y-108251621D01*
X133071818Y-107813615D01*
X132677884Y-107650449D01*
X132671573Y-107616909D01*
X132535173Y-107404937D01*
X132327051Y-107262733D01*
X132080000Y-107212704D01*
X122174000Y-107212704D01*
X122174000Y-107085704D01*
X122130553Y-106854858D01*
X121994135Y-106642898D01*
X121876464Y-106562511D01*
X121876464Y-105391204D01*
X121849897Y-105250014D01*
X121766454Y-105120339D01*
X121639134Y-105033345D01*
X121488000Y-105002740D01*
X120568990Y-105002740D01*
X120569118Y-104855339D01*
X120465661Y-104604952D01*
X120274259Y-104413217D01*
X120024054Y-104309322D01*
X119753135Y-104309086D01*
X119502748Y-104412543D01*
X119311013Y-104603945D01*
X119207118Y-104854150D01*
X119206989Y-105002740D01*
X118288000Y-105002740D01*
X118146810Y-105029307D01*
X118017135Y-105112750D01*
X117930141Y-105240070D01*
X117899536Y-105391204D01*
X117899536Y-106451013D01*
X113334746Y-106451400D01*
X113101640Y-106495755D01*
X112890215Y-106633002D01*
X112748845Y-106841692D01*
X112699805Y-107088941D01*
X100203000Y-107088941D01*
X100203000Y-107085704D01*
X100159553Y-106854858D01*
X100023135Y-106642898D01*
X99905464Y-106562511D01*
X99905464Y-105391204D01*
X99878897Y-105250014D01*
X99795454Y-105120339D01*
X99668134Y-105033345D01*
X99517000Y-105002740D01*
X98597990Y-105002740D01*
X98598118Y-104855339D01*
X98494661Y-104604952D01*
X98303259Y-104413217D01*
X98053054Y-104309322D01*
X97782135Y-104309086D01*
X97531748Y-104412543D01*
X97340013Y-104603945D01*
X97236118Y-104854150D01*
X97235989Y-105002740D01*
X96317000Y-105002740D01*
X96175810Y-105029307D01*
X96046135Y-105112750D01*
X95959141Y-105240070D01*
X95928536Y-105391204D01*
X95928536Y-106451015D01*
X91414546Y-106451400D01*
X91188661Y-106492955D01*
X90975579Y-106627613D01*
X90831674Y-106834563D01*
X90779621Y-107081195D01*
X90749172Y-110796000D01*
X88583252Y-110796000D01*
X88707767Y-110715877D01*
X88818386Y-110553982D01*
X89256818Y-110372385D01*
X89729188Y-109934379D01*
X89997983Y-109348946D01*
X89879367Y-109093000D01*
X88900000Y-109093000D01*
X88900000Y-108839000D01*
X89879367Y-108839000D01*
X89997983Y-108583054D01*
X89729188Y-107997621D01*
X89256818Y-107559615D01*
X88774944Y-107360025D01*
X88703271Y-107393388D01*
X88512051Y-107262733D01*
X88265000Y-107212704D01*
X78359000Y-107212704D01*
X78359000Y-107085704D01*
X78315553Y-106854858D01*
X78179135Y-106642898D01*
X78061464Y-106562511D01*
X78061464Y-105391204D01*
X78034897Y-105250014D01*
X77951454Y-105120339D01*
X77824134Y-105033345D01*
X77673000Y-105002740D01*
X76753990Y-105002740D01*
X76754118Y-104855339D01*
X76650661Y-104604952D01*
X76459259Y-104413217D01*
X76209054Y-104309322D01*
X75938135Y-104309086D01*
X75687748Y-104412543D01*
X75496013Y-104603945D01*
X75392118Y-104854150D01*
X75391989Y-105002740D01*
X74473000Y-105002740D01*
X74331810Y-105029307D01*
X74202135Y-105112750D01*
X74115141Y-105240070D01*
X74084536Y-105391204D01*
X74084536Y-106451014D01*
X69545146Y-106451400D01*
X69316773Y-106493908D01*
X69104258Y-106629459D01*
X68961222Y-106837011D01*
X68910205Y-107083859D01*
X68899926Y-109653000D01*
X66496000Y-109653000D01*
X66496000Y-93547000D01*
X68961000Y-93547000D01*
X69019770Y-93535310D01*
X69037206Y-97005153D01*
X69071647Y-97186479D01*
X69180495Y-97356230D01*
X69346811Y-97470260D01*
X69544387Y-97510599D01*
X77913687Y-97523995D01*
X78100322Y-97488790D01*
X78269625Y-97379246D01*
X78382971Y-97212463D01*
X78422498Y-97014723D01*
X78410944Y-92404000D01*
X90875659Y-92404000D01*
X90868501Y-96963703D01*
X90903242Y-97149136D01*
X91012362Y-97318714D01*
X91178860Y-97432477D01*
X91376500Y-97472500D01*
X99758500Y-97472500D01*
X99942393Y-97438048D01*
X100112142Y-97329194D01*
X100226166Y-97162875D01*
X100264394Y-96975608D01*
X112826802Y-96975608D01*
X112861278Y-97161159D01*
X112970156Y-97330893D01*
X113136491Y-97444894D01*
X113334074Y-97485199D01*
X121728774Y-97497203D01*
X121914136Y-97462462D01*
X122083714Y-97353342D01*
X122197477Y-97186844D01*
X122237500Y-96989204D01*
X122237500Y-92925204D01*
X122202758Y-92740568D01*
X122093638Y-92570990D01*
X121927140Y-92457227D01*
X121729500Y-92417204D01*
X113347500Y-92417204D01*
X113164348Y-92451369D01*
X112994429Y-92559957D01*
X112880145Y-92726098D01*
X112839502Y-92923612D01*
X112826802Y-96975608D01*
X100264394Y-96975608D01*
X100266499Y-96965297D01*
X100278445Y-89356000D01*
X157037118Y-89356000D01*
X159951559Y-92270441D01*
X159951559Y-92270441D01*
G37*
X159951559Y-92270441D02*
X160099496Y-92369289D01*
X160274000Y-92404000D01*
X183707118Y-92404000D01*
X184716559Y-93413441D01*
X184864496Y-93512289D01*
X185039000Y-93547000D01*
X187504000Y-93547000D01*
X187504000Y-109653000D01*
X185039000Y-109653000D01*
X184864496Y-109687711D01*
X184755218Y-109760728D01*
X184716559Y-109786559D01*
X183707118Y-110796000D01*
X177303405Y-110796000D01*
X177378483Y-110683638D01*
X177417000Y-110490000D01*
X177417000Y-110148776D01*
X177791065Y-109898834D01*
X178060860Y-109495057D01*
X178155600Y-109018769D01*
X178155600Y-108659231D01*
X178060860Y-108182943D01*
X177820354Y-107823000D01*
X178198936Y-107823000D01*
X178198936Y-109855000D01*
X178225503Y-109996190D01*
X178308946Y-110125865D01*
X178436266Y-110212859D01*
X178587400Y-110243464D01*
X180314600Y-110243464D01*
X180455790Y-110216897D01*
X180585465Y-110133454D01*
X180672459Y-110006134D01*
X180703064Y-109855000D01*
X180703064Y-107823000D01*
X180676497Y-107681810D01*
X180593054Y-107552135D01*
X180465734Y-107465141D01*
X180314600Y-107434536D01*
X178587400Y-107434536D01*
X178446210Y-107461103D01*
X178316535Y-107544546D01*
X178229541Y-107671866D01*
X178198936Y-107823000D01*
X177820354Y-107823000D01*
X177791065Y-107779166D01*
X177387288Y-107509371D01*
X176911000Y-107414631D01*
X176434712Y-107509371D01*
X176030935Y-107779166D01*
X175761140Y-108182943D01*
X175666400Y-108659231D01*
X175666400Y-109018769D01*
X175761140Y-109495057D01*
X176030935Y-109898834D01*
X176405000Y-110148776D01*
X176405000Y-110180010D01*
X174862875Y-110180010D01*
X174867875Y-110154873D01*
X175251065Y-109898834D01*
X175520860Y-109495057D01*
X175615600Y-109018769D01*
X175615600Y-108659231D01*
X175520860Y-108182943D01*
X175251065Y-107779166D01*
X174847288Y-107509371D01*
X174371000Y-107414631D01*
X173894712Y-107509371D01*
X173490935Y-107779166D01*
X173221140Y-108182943D01*
X173126400Y-108659231D01*
X173126400Y-109018769D01*
X173221140Y-109495057D01*
X173378124Y-109730000D01*
X172823876Y-109730000D01*
X172980860Y-109495057D01*
X173075600Y-109018769D01*
X173075600Y-108659231D01*
X172980860Y-108182943D01*
X172711065Y-107779166D01*
X172307288Y-107509371D01*
X171831000Y-107414631D01*
X171354712Y-107509371D01*
X170950935Y-107779166D01*
X170681140Y-108182943D01*
X170586400Y-108659231D01*
X170586400Y-109018769D01*
X170681140Y-109495057D01*
X170838124Y-109730000D01*
X170283876Y-109730000D01*
X170440860Y-109495057D01*
X170535600Y-109018769D01*
X170535600Y-108659231D01*
X170440860Y-108182943D01*
X170171065Y-107779166D01*
X169767288Y-107509371D01*
X169291000Y-107414631D01*
X168814712Y-107509371D01*
X168410935Y-107779166D01*
X168141140Y-108182943D01*
X168138296Y-108197243D01*
X168042954Y-107924680D01*
X167653036Y-107488268D01*
X167125791Y-107234291D01*
X167110026Y-107231642D01*
X166878000Y-107352783D01*
X166878000Y-108712000D01*
X166898000Y-108712000D01*
X166898000Y-108966000D01*
X166878000Y-108966000D01*
X166878000Y-108986000D01*
X166624000Y-108986000D01*
X166624000Y-108966000D01*
X165410076Y-108966000D01*
X165265816Y-109200913D01*
X165450889Y-109730000D01*
X164328254Y-109730000D01*
X164342252Y-109724216D01*
X164376004Y-109690522D01*
X164450914Y-109640469D01*
X164902127Y-109189256D01*
X165053543Y-108962646D01*
X165106713Y-108695342D01*
X165106713Y-108477087D01*
X165265816Y-108477087D01*
X165410076Y-108712000D01*
X166624000Y-108712000D01*
X166624000Y-107352783D01*
X166391974Y-107231642D01*
X166376209Y-107234291D01*
X165848964Y-107488268D01*
X165459046Y-107924680D01*
X165265816Y-108477087D01*
X165106713Y-108477087D01*
X165106713Y-106899115D01*
X166858100Y-105147728D01*
X166983527Y-104960013D01*
X167009516Y-104921118D01*
X167062686Y-104653814D01*
X167062686Y-103378000D01*
X170180000Y-103378000D01*
X170318477Y-103351944D01*
X170445660Y-103270104D01*
X170530983Y-103145230D01*
X170561000Y-102997000D01*
X170561000Y-102762968D01*
X170643859Y-102963007D01*
X170822488Y-103141635D01*
X171055877Y-103238308D01*
X171396436Y-103238308D01*
X171555186Y-103079558D01*
X171555186Y-102105308D01*
X171809186Y-102105308D01*
X171809186Y-103079558D01*
X171967936Y-103238308D01*
X172308495Y-103238308D01*
X172541884Y-103141635D01*
X172720513Y-102963007D01*
X172817186Y-102729618D01*
X172817186Y-102264058D01*
X172658436Y-102105308D01*
X171809186Y-102105308D01*
X171555186Y-102105308D01*
X171535186Y-102105308D01*
X171535186Y-101854000D01*
X173736000Y-101854000D01*
X173782159Y-101845315D01*
X173824553Y-101818035D01*
X173852994Y-101776410D01*
X173863000Y-101727000D01*
X173863000Y-101058472D01*
X174079885Y-100968635D01*
X174258513Y-100790006D01*
X174355186Y-100556617D01*
X174355186Y-100216058D01*
X174196436Y-100057308D01*
X173863000Y-100057308D01*
X173863000Y-99803308D01*
X174196436Y-99803308D01*
X174355186Y-99644558D01*
X174355186Y-99303999D01*
X174258513Y-99070610D01*
X174079885Y-98891981D01*
X173863000Y-98802144D01*
X173863000Y-98791160D01*
X173991051Y-98708762D01*
X174045681Y-98628808D01*
X175399407Y-98628808D01*
X175831500Y-99060901D01*
X175831500Y-99312368D01*
X175183034Y-99580309D01*
X174512663Y-100249511D01*
X174149414Y-101124312D01*
X174148587Y-102071532D01*
X174510309Y-102946966D01*
X175179511Y-103617337D01*
X176054312Y-103980586D01*
X177001532Y-103981413D01*
X177876966Y-103619691D01*
X178021887Y-103475022D01*
X180634584Y-103475022D01*
X180855353Y-103845743D01*
X181827012Y-104239119D01*
X182875247Y-104230713D01*
X183804647Y-103845743D01*
X184025416Y-103475022D01*
X182330000Y-101779605D01*
X180634584Y-103475022D01*
X178021887Y-103475022D01*
X178547337Y-102950489D01*
X178910586Y-102075688D01*
X178911413Y-101128468D01*
X178898416Y-101097012D01*
X179690881Y-101097012D01*
X179699287Y-102145247D01*
X180084257Y-103074647D01*
X180454978Y-103295416D01*
X182150395Y-101600000D01*
X182509605Y-101600000D01*
X184205022Y-103295416D01*
X184575743Y-103074647D01*
X184969119Y-102102988D01*
X184960713Y-101054753D01*
X184575743Y-100125353D01*
X184205022Y-99904584D01*
X182509605Y-101600000D01*
X182150395Y-101600000D01*
X180454978Y-99904584D01*
X180084257Y-100125353D01*
X179690881Y-101097012D01*
X178898416Y-101097012D01*
X178549691Y-100253034D01*
X178022556Y-99724978D01*
X180634584Y-99724978D01*
X182330000Y-101420395D01*
X184025416Y-99724978D01*
X183804647Y-99354257D01*
X182832988Y-98960881D01*
X181784753Y-98969287D01*
X180855353Y-99354257D01*
X180634584Y-99724978D01*
X178022556Y-99724978D01*
X177880489Y-99582663D01*
X177228500Y-99311934D01*
X177228500Y-98771573D01*
X177209295Y-98675022D01*
X177834584Y-98675022D01*
X178055353Y-99045743D01*
X179027012Y-99439119D01*
X180075247Y-99430713D01*
X181004647Y-99045743D01*
X181225416Y-98675022D01*
X179530000Y-96979605D01*
X177834584Y-98675022D01*
X177209295Y-98675022D01*
X177175330Y-98504269D01*
X177023914Y-98277659D01*
X176182649Y-97436394D01*
X175956040Y-97284978D01*
X175688735Y-97231808D01*
X174045205Y-97231808D01*
X173998640Y-97159443D01*
X173871320Y-97072449D01*
X173720186Y-97041844D01*
X172470186Y-97041844D01*
X172328996Y-97068411D01*
X172199321Y-97151854D01*
X172136186Y-97244255D01*
X172136186Y-97160306D01*
X172085781Y-97160306D01*
X172116783Y-97085461D01*
X172136186Y-97066058D01*
X172136186Y-97008558D01*
X172116783Y-96989155D01*
X172039513Y-96802609D01*
X171961712Y-96724808D01*
X171977436Y-96724808D01*
X172136186Y-96566058D01*
X172136186Y-96535998D01*
X172039513Y-96302609D01*
X172033916Y-96297012D01*
X176890881Y-96297012D01*
X176899287Y-97345247D01*
X177284257Y-98274647D01*
X177654978Y-98495416D01*
X179350395Y-96800000D01*
X179709605Y-96800000D01*
X181405022Y-98495416D01*
X181775743Y-98274647D01*
X182169119Y-97302988D01*
X182160713Y-96254753D01*
X181775743Y-95325353D01*
X181405022Y-95104584D01*
X179709605Y-96800000D01*
X179350395Y-96800000D01*
X177654978Y-95104584D01*
X177284257Y-95325353D01*
X176890881Y-96297012D01*
X172033916Y-96297012D01*
X171860884Y-96123981D01*
X171627495Y-96027308D01*
X171534936Y-96027308D01*
X171376186Y-96186058D01*
X171376186Y-96527308D01*
X171356186Y-96527308D01*
X171356186Y-96460998D01*
X171259513Y-96227609D01*
X171080884Y-96048981D01*
X170847495Y-95952308D01*
X170586936Y-95952308D01*
X170454992Y-96084252D01*
X170420718Y-96071694D01*
X170146213Y-96083085D01*
X170015436Y-95952308D01*
X169754877Y-95952308D01*
X169521488Y-96048981D01*
X169342859Y-96227609D01*
X169246186Y-96460998D01*
X169246186Y-96609328D01*
X169243668Y-96596669D01*
X169226186Y-96570505D01*
X169226186Y-96186058D01*
X169067436Y-96027308D01*
X168974877Y-96027308D01*
X168754410Y-96118629D01*
X168742083Y-96053118D01*
X168658640Y-95923443D01*
X168531320Y-95836449D01*
X168380186Y-95805844D01*
X167880186Y-95805844D01*
X167738996Y-95832411D01*
X167609321Y-95915854D01*
X167522327Y-96043174D01*
X167491722Y-96194308D01*
X167491722Y-97094308D01*
X167505449Y-97167259D01*
X167253877Y-97167259D01*
X167268650Y-97094308D01*
X167268650Y-96194308D01*
X167242083Y-96053118D01*
X167158640Y-95923443D01*
X167031320Y-95836449D01*
X166880186Y-95805844D01*
X166380186Y-95805844D01*
X166238996Y-95832411D01*
X166109321Y-95915854D01*
X166022327Y-96043174D01*
X165991722Y-96194308D01*
X165991722Y-97094308D01*
X166018289Y-97235498D01*
X166101732Y-97365173D01*
X166124186Y-97380515D01*
X166124186Y-97542186D01*
X166162703Y-97735824D01*
X166272390Y-97899982D01*
X166311252Y-97938844D01*
X164364186Y-97938844D01*
X164222996Y-97965411D01*
X164093321Y-98048854D01*
X164006327Y-98176174D01*
X163977603Y-98318020D01*
X163945523Y-98324056D01*
X163818340Y-98405896D01*
X163733017Y-98530770D01*
X163703000Y-98679000D01*
X163703000Y-102997000D01*
X163729056Y-103135477D01*
X163810896Y-103262660D01*
X163935770Y-103347983D01*
X164084000Y-103378000D01*
X165665686Y-103378000D01*
X165665686Y-104364486D01*
X163449000Y-106581172D01*
X163449000Y-105436907D01*
X163669242Y-105328296D01*
X163908755Y-105055184D01*
X164025521Y-104711204D01*
X164001763Y-104348723D01*
X163841098Y-104022927D01*
X163567985Y-103783415D01*
X163449000Y-103743025D01*
X163449000Y-102952815D01*
X163507883Y-102779352D01*
X163484125Y-102416871D01*
X163449000Y-102345645D01*
X163449000Y-96342200D01*
X163438994Y-96292790D01*
X163410553Y-96251165D01*
X163368159Y-96223885D01*
X163321770Y-96215200D01*
X161682344Y-96218170D01*
X161497432Y-96056008D01*
X161153452Y-95939242D01*
X160790972Y-95963000D01*
X159826115Y-96221533D01*
X154430000Y-96231308D01*
X154430000Y-94897292D01*
X154505925Y-94810716D01*
X154622691Y-94466736D01*
X154598933Y-94104256D01*
X154246435Y-92788716D01*
X154085770Y-92462920D01*
X154003213Y-92390519D01*
X154355974Y-92390519D01*
X154379732Y-92753000D01*
X154732230Y-94068539D01*
X154892895Y-94394335D01*
X154949258Y-94443764D01*
X154949258Y-94868282D01*
X154808748Y-94926339D01*
X154617013Y-95117741D01*
X154513118Y-95367946D01*
X154512882Y-95638865D01*
X154616339Y-95889252D01*
X154807741Y-96080987D01*
X155057946Y-96184882D01*
X155328865Y-96185118D01*
X155579252Y-96081661D01*
X155770987Y-95890259D01*
X155874882Y-95640054D01*
X155874997Y-95507834D01*
X155922741Y-95436380D01*
X155961258Y-95242742D01*
X155961258Y-95161404D01*
X158275720Y-95161404D01*
X158299478Y-95523885D01*
X158460143Y-95849681D01*
X158733255Y-96089193D01*
X159077235Y-96205959D01*
X159439716Y-96182201D01*
X160755255Y-95829703D01*
X161081051Y-95669038D01*
X161320564Y-95395926D01*
X161437330Y-95051946D01*
X161429009Y-94924978D01*
X177834584Y-94924978D01*
X179530000Y-96620395D01*
X181225416Y-94924978D01*
X181004647Y-94554257D01*
X180032988Y-94160881D01*
X178984753Y-94169287D01*
X178055353Y-94554257D01*
X177834584Y-94924978D01*
X161429009Y-94924978D01*
X161413572Y-94689465D01*
X161252907Y-94363669D01*
X160979794Y-94124157D01*
X160635814Y-94007391D01*
X160273334Y-94031149D01*
X158957794Y-94383647D01*
X158631998Y-94544312D01*
X158392486Y-94817424D01*
X158275720Y-95161404D01*
X155961258Y-95161404D01*
X155961258Y-94683070D01*
X156198264Y-94566191D01*
X156437776Y-94293078D01*
X156554542Y-93949098D01*
X156549816Y-93876993D01*
X156692532Y-94102161D01*
X157072829Y-94369763D01*
X157526583Y-94471461D01*
X157552191Y-94465019D01*
X157696241Y-94296554D01*
X157297307Y-92807714D01*
X157277989Y-92812890D01*
X157258987Y-92741974D01*
X157542653Y-92741974D01*
X157941586Y-94230814D01*
X158150570Y-94304684D01*
X158175968Y-94297459D01*
X158518082Y-93982508D01*
X158713627Y-93560610D01*
X158732835Y-93095995D01*
X158564602Y-92468143D01*
X157542653Y-92741974D01*
X157258987Y-92741974D01*
X157212248Y-92567544D01*
X157231567Y-92562368D01*
X156832634Y-91073528D01*
X156646651Y-91007788D01*
X157077979Y-91007788D01*
X157476913Y-92496628D01*
X158498862Y-92222798D01*
X158330630Y-91594946D01*
X158081688Y-91202181D01*
X157701391Y-90934579D01*
X157247637Y-90832881D01*
X157222029Y-90839323D01*
X157077979Y-91007788D01*
X156646651Y-91007788D01*
X156623650Y-90999658D01*
X156598252Y-91006883D01*
X156256138Y-91321834D01*
X156060593Y-91743732D01*
X156049581Y-92010091D01*
X156017621Y-91945282D01*
X155744509Y-91705770D01*
X155400529Y-91589004D01*
X155038048Y-91612762D01*
X154712252Y-91773427D01*
X154472740Y-92046539D01*
X154355974Y-92390519D01*
X154003213Y-92390519D01*
X153812658Y-92223408D01*
X153468678Y-92106642D01*
X153106197Y-92130400D01*
X152780401Y-92291065D01*
X152540889Y-92564177D01*
X152424123Y-92908157D01*
X152447881Y-93270638D01*
X152800379Y-94586177D01*
X152961044Y-94911973D01*
X153234156Y-95151486D01*
X153418000Y-95213893D01*
X153418000Y-96233142D01*
X152097555Y-96235534D01*
X152097555Y-95718346D01*
X152334561Y-95601467D01*
X152574073Y-95328354D01*
X152690839Y-94984374D01*
X152667081Y-94621894D01*
X152314583Y-93306354D01*
X152153918Y-92980558D01*
X151880806Y-92741046D01*
X151536826Y-92624280D01*
X151174345Y-92648038D01*
X150848549Y-92808703D01*
X150609037Y-93081815D01*
X150492271Y-93425795D01*
X150516029Y-93788276D01*
X150868527Y-95103815D01*
X151029192Y-95429611D01*
X151085555Y-95479040D01*
X151085555Y-96237367D01*
X150620000Y-96238210D01*
X150620000Y-95885000D01*
X150617784Y-95873858D01*
X150642221Y-95845993D01*
X150758987Y-95502013D01*
X150735229Y-95139533D01*
X150382731Y-93823993D01*
X150222066Y-93498197D01*
X149948954Y-93258685D01*
X149604974Y-93141919D01*
X149242493Y-93165677D01*
X148916697Y-93326342D01*
X148677185Y-93599454D01*
X148560419Y-93943434D01*
X148584177Y-94305915D01*
X148936675Y-95621454D01*
X149097340Y-95947250D01*
X149370452Y-96186763D01*
X149527839Y-96240189D01*
X148751796Y-96241595D01*
X148827136Y-96019651D01*
X148803378Y-95657171D01*
X148450880Y-94341631D01*
X148290215Y-94015835D01*
X148017103Y-93776323D01*
X147673123Y-93659557D01*
X147310642Y-93683315D01*
X147026514Y-93823432D01*
X146586537Y-93383455D01*
X146422379Y-93273768D01*
X146228741Y-93235251D01*
X146141374Y-93235251D01*
X146070510Y-93164264D01*
X145820305Y-93060369D01*
X145549386Y-93060133D01*
X145298999Y-93163590D01*
X145107264Y-93354992D01*
X145003369Y-93605197D01*
X145003133Y-93876116D01*
X145106590Y-94126503D01*
X145246189Y-94266345D01*
X145052994Y-94361618D01*
X144813482Y-94634730D01*
X144696716Y-94978710D01*
X144720474Y-95341191D01*
X144963576Y-96248458D01*
X144820777Y-96248716D01*
X144587176Y-95376907D01*
X144426511Y-95051111D01*
X144153399Y-94811599D01*
X143809419Y-94694833D01*
X143446938Y-94718591D01*
X143121142Y-94879256D01*
X142881630Y-95152368D01*
X142764864Y-95496348D01*
X142788622Y-95858829D01*
X142894027Y-96252207D01*
X135280170Y-96266000D01*
X135230778Y-96276096D01*
X135189205Y-96304612D01*
X135162002Y-96347055D01*
X135153400Y-96392820D01*
X135133996Y-110111903D01*
X135088805Y-110093138D01*
X134817886Y-110092902D01*
X134567499Y-110196359D01*
X134375764Y-110387761D01*
X134271869Y-110637966D01*
X134271633Y-110908885D01*
X134375090Y-111159272D01*
X134566492Y-111351007D01*
X134816697Y-111454902D01*
X135087616Y-111455138D01*
X135132122Y-111436749D01*
X135128717Y-113844000D01*
X114107881Y-113844000D01*
X111701441Y-111437559D01*
X111661324Y-111410754D01*
X111553504Y-111338711D01*
X111379000Y-111304000D01*
X110744000Y-111304000D01*
X110744000Y-110774177D01*
X111100818Y-110626385D01*
X111573188Y-110188379D01*
X111841983Y-109602946D01*
X111723367Y-109347000D01*
X110744000Y-109347000D01*
X110744000Y-109093000D01*
X111723367Y-109093000D01*
X111841983Y-108837054D01*
X111573188Y-108251621D01*
X111100818Y-107813615D01*
X110706884Y-107650449D01*
X110700573Y-107616909D01*
X110564173Y-107404937D01*
X110356051Y-107262733D01*
X110109000Y-107212704D01*
X100203000Y-107212704D01*
X100203000Y-107088941D01*
X112699805Y-107088941D01*
X112712505Y-110263245D01*
X112755927Y-110491499D01*
X112892327Y-110703471D01*
X113100449Y-110845675D01*
X113347500Y-110895704D01*
X132080000Y-110895704D01*
X132211291Y-110871000D01*
X132334002Y-110871000D01*
X132334002Y-110837344D01*
X132451685Y-110761617D01*
X132589944Y-110825975D01*
X133071818Y-110626385D01*
X133544188Y-110188379D01*
X133812983Y-109602946D01*
X133694367Y-109347000D01*
X132715000Y-109347000D01*
X132715000Y-109093000D01*
X133694367Y-109093000D01*
X133812983Y-108837054D01*
X133544188Y-108251621D01*
X133071818Y-107813615D01*
X132677884Y-107650449D01*
X132671573Y-107616909D01*
X132535173Y-107404937D01*
X132327051Y-107262733D01*
X132080000Y-107212704D01*
X122174000Y-107212704D01*
X122174000Y-107085704D01*
X122130553Y-106854858D01*
X121994135Y-106642898D01*
X121876464Y-106562511D01*
X121876464Y-105391204D01*
X121849897Y-105250014D01*
X121766454Y-105120339D01*
X121639134Y-105033345D01*
X121488000Y-105002740D01*
X120568990Y-105002740D01*
X120569118Y-104855339D01*
X120465661Y-104604952D01*
X120274259Y-104413217D01*
X120024054Y-104309322D01*
X119753135Y-104309086D01*
X119502748Y-104412543D01*
X119311013Y-104603945D01*
X119207118Y-104854150D01*
X119206989Y-105002740D01*
X118288000Y-105002740D01*
X118146810Y-105029307D01*
X118017135Y-105112750D01*
X117930141Y-105240070D01*
X117899536Y-105391204D01*
X117899536Y-106451013D01*
X113334746Y-106451400D01*
X113101640Y-106495755D01*
X112890215Y-106633002D01*
X112748845Y-106841692D01*
X112699805Y-107088941D01*
X100203000Y-107088941D01*
X100203000Y-107085704D01*
X100159553Y-106854858D01*
X100023135Y-106642898D01*
X99905464Y-106562511D01*
X99905464Y-105391204D01*
X99878897Y-105250014D01*
X99795454Y-105120339D01*
X99668134Y-105033345D01*
X99517000Y-105002740D01*
X98597990Y-105002740D01*
X98598118Y-104855339D01*
X98494661Y-104604952D01*
X98303259Y-104413217D01*
X98053054Y-104309322D01*
X97782135Y-104309086D01*
X97531748Y-104412543D01*
X97340013Y-104603945D01*
X97236118Y-104854150D01*
X97235989Y-105002740D01*
X96317000Y-105002740D01*
X96175810Y-105029307D01*
X96046135Y-105112750D01*
X95959141Y-105240070D01*
X95928536Y-105391204D01*
X95928536Y-106451015D01*
X91414546Y-106451400D01*
X91188661Y-106492955D01*
X90975579Y-106627613D01*
X90831674Y-106834563D01*
X90779621Y-107081195D01*
X90749172Y-110796000D01*
X88583252Y-110796000D01*
X88707767Y-110715877D01*
X88818386Y-110553982D01*
X89256818Y-110372385D01*
X89729188Y-109934379D01*
X89997983Y-109348946D01*
X89879367Y-109093000D01*
X88900000Y-109093000D01*
X88900000Y-108839000D01*
X89879367Y-108839000D01*
X89997983Y-108583054D01*
X89729188Y-107997621D01*
X89256818Y-107559615D01*
X88774944Y-107360025D01*
X88703271Y-107393388D01*
X88512051Y-107262733D01*
X88265000Y-107212704D01*
X78359000Y-107212704D01*
X78359000Y-107085704D01*
X78315553Y-106854858D01*
X78179135Y-106642898D01*
X78061464Y-106562511D01*
X78061464Y-105391204D01*
X78034897Y-105250014D01*
X77951454Y-105120339D01*
X77824134Y-105033345D01*
X77673000Y-105002740D01*
X76753990Y-105002740D01*
X76754118Y-104855339D01*
X76650661Y-104604952D01*
X76459259Y-104413217D01*
X76209054Y-104309322D01*
X75938135Y-104309086D01*
X75687748Y-104412543D01*
X75496013Y-104603945D01*
X75392118Y-104854150D01*
X75391989Y-105002740D01*
X74473000Y-105002740D01*
X74331810Y-105029307D01*
X74202135Y-105112750D01*
X74115141Y-105240070D01*
X74084536Y-105391204D01*
X74084536Y-106451014D01*
X69545146Y-106451400D01*
X69316773Y-106493908D01*
X69104258Y-106629459D01*
X68961222Y-106837011D01*
X68910205Y-107083859D01*
X68899926Y-109653000D01*
X66496000Y-109653000D01*
X66496000Y-93547000D01*
X68961000Y-93547000D01*
X69019770Y-93535310D01*
X69037206Y-97005153D01*
X69071647Y-97186479D01*
X69180495Y-97356230D01*
X69346811Y-97470260D01*
X69544387Y-97510599D01*
X77913687Y-97523995D01*
X78100322Y-97488790D01*
X78269625Y-97379246D01*
X78382971Y-97212463D01*
X78422498Y-97014723D01*
X78410944Y-92404000D01*
X90875659Y-92404000D01*
X90868501Y-96963703D01*
X90903242Y-97149136D01*
X91012362Y-97318714D01*
X91178860Y-97432477D01*
X91376500Y-97472500D01*
X99758500Y-97472500D01*
X99942393Y-97438048D01*
X100112142Y-97329194D01*
X100226166Y-97162875D01*
X100264394Y-96975608D01*
X112826802Y-96975608D01*
X112861278Y-97161159D01*
X112970156Y-97330893D01*
X113136491Y-97444894D01*
X113334074Y-97485199D01*
X121728774Y-97497203D01*
X121914136Y-97462462D01*
X122083714Y-97353342D01*
X122197477Y-97186844D01*
X122237500Y-96989204D01*
X122237500Y-92925204D01*
X122202758Y-92740568D01*
X122093638Y-92570990D01*
X121927140Y-92457227D01*
X121729500Y-92417204D01*
X113347500Y-92417204D01*
X113164348Y-92451369D01*
X112994429Y-92559957D01*
X112880145Y-92726098D01*
X112839502Y-92923612D01*
X112826802Y-96975608D01*
X100264394Y-96975608D01*
X100266499Y-96965297D01*
X100278445Y-89356000D01*
X157037118Y-89356000D01*
X159951559Y-92270441D01*
G36*
X170433768Y-97743114D02*
X170389574Y-97787308D01*
X170433768Y-97831502D01*
X170345380Y-97919890D01*
X170301186Y-97875696D01*
X170256992Y-97919890D01*
X170168604Y-97831502D01*
X170212798Y-97787308D01*
X170168604Y-97743114D01*
X170256992Y-97654726D01*
X170301186Y-97698920D01*
X170345380Y-97654726D01*
X170433768Y-97743114D01*
X170433768Y-97743114D01*
G37*
X170433768Y-97743114D02*
X170389574Y-97787308D01*
X170433768Y-97831502D01*
X170345380Y-97919890D01*
X170301186Y-97875696D01*
X170256992Y-97919890D01*
X170168604Y-97831502D01*
X170212798Y-97787308D01*
X170168604Y-97743114D01*
X170256992Y-97654726D01*
X170301186Y-97698920D01*
X170345380Y-97654726D01*
X170433768Y-97743114D01*
G36*
X170428186Y-96787532D02*
X170428186Y-96798696D01*
X170389574Y-96837308D01*
X170428186Y-96875920D01*
X170428186Y-96886317D01*
X170427644Y-96887626D01*
X170345380Y-96969890D01*
X170301186Y-96925696D01*
X170256992Y-96969890D01*
X170174186Y-96887084D01*
X170174186Y-96875920D01*
X170212798Y-96837308D01*
X170174186Y-96798696D01*
X170174186Y-96787532D01*
X170256992Y-96704726D01*
X170301186Y-96748920D01*
X170345380Y-96704726D01*
X170428186Y-96787532D01*
X170428186Y-96787532D01*
G37*
X170428186Y-96787532D02*
X170428186Y-96798696D01*
X170389574Y-96837308D01*
X170428186Y-96875920D01*
X170428186Y-96886317D01*
X170427644Y-96887626D01*
X170345380Y-96969890D01*
X170301186Y-96925696D01*
X170256992Y-96969890D01*
X170174186Y-96887084D01*
X170174186Y-96875920D01*
X170212798Y-96837308D01*
X170174186Y-96798696D01*
X170174186Y-96787532D01*
X170256992Y-96704726D01*
X170301186Y-96748920D01*
X170345380Y-96704726D01*
X170428186Y-96787532D01*
G36*
X172470186Y-98818772D02*
X173609000Y-98818772D01*
X173609000Y-101600000D01*
X170570650Y-101600000D01*
X170570650Y-101353308D01*
X170544083Y-101212118D01*
X170460640Y-101082443D01*
X170333320Y-100995449D01*
X170182186Y-100964844D01*
X169545000Y-100964844D01*
X169545000Y-99828648D01*
X169969511Y-99298009D01*
X170022983Y-99208230D01*
X170053000Y-99060000D01*
X170053000Y-98806000D01*
X172407115Y-98806000D01*
X172470186Y-98818772D01*
X172470186Y-98818772D01*
G37*
X172470186Y-98818772D02*
X173609000Y-98818772D01*
X173609000Y-101600000D01*
X170570650Y-101600000D01*
X170570650Y-101353308D01*
X170544083Y-101212118D01*
X170460640Y-101082443D01*
X170333320Y-100995449D01*
X170182186Y-100964844D01*
X169545000Y-100964844D01*
X169545000Y-99828648D01*
X169969511Y-99298009D01*
X170022983Y-99208230D01*
X170053000Y-99060000D01*
X170053000Y-98806000D01*
X172407115Y-98806000D01*
X172470186Y-98818772D01*
M02*
