M48
INCH,TZ
T1C0.008
T2C0.013
T3C0.016
T4C0.025
T5C0.040
T6C0.118
%
G90
G05
T1
X67048Y-38125
X67048Y-38499
X67048Y-38873
T2
X30475Y-40110
X31450Y-39135
X31450Y-39660
X31875Y-39135
X31875Y-39660
X39075Y-40110
X40050Y-39135
X40050Y-39660
X40475Y-39135
X40475Y-39660
X47725Y-40110
X48700Y-39135
X48700Y-39660
X49125Y-39135
X49125Y-39660
T3
X29950Y-41335
X38550Y-41335
X47200Y-41335
X51400Y-44475
X53131Y-43612
X54940Y-36580
X57356Y-36906
X57650Y-36325
X58850Y-38700
X59550Y-42850
X60010Y-36325
X60400Y-42600
X60800Y-39350
X60800Y-41550
X61100Y-37600
X61900Y-42200
X62030Y-38080
X62450Y-38800
X62605Y-42065
X64550Y-42650
X64550Y-42971
X66297Y-38454
X66300Y-39500
T4
X26640Y-37090
X26640Y-38000
X26640Y-39000
X26640Y-40000
X26640Y-41000
X26640Y-42000
X26640Y-42900
X27675Y-36810
X27700Y-42610
X28125Y-36810
X28150Y-42610
X28575Y-36810
X28575Y-42610
X28800Y-40835
X29000Y-37510
X29000Y-37960
X29000Y-42610
X29025Y-36810
X29175Y-40835
X29400Y-42810
X29475Y-36810
X29700Y-40335
X29800Y-42810
X29800Y-43210
X29925Y-36810
X30375Y-36810
X31125Y-37335
X31125Y-37685
X31125Y-38035
X31475Y-37335
X31475Y-37685
X31475Y-38035
X31475Y-38385
X31475Y-38735
X31475Y-40060
X31475Y-40410
X31475Y-40760
X31475Y-41110
X31475Y-41460
X31825Y-37335
X31825Y-37685
X31825Y-38035
X31825Y-38385
X31825Y-38735
X31825Y-40060
X31825Y-40410
X31825Y-40760
X31825Y-41110
X31825Y-41460
X32175Y-37335
X32175Y-37685
X32175Y-38035
X32175Y-40410
X32175Y-40760
X32175Y-41110
X32175Y-41460
X32525Y-37335
X32525Y-37685
X32525Y-40760
X32525Y-41110
X32525Y-41460
X32875Y-37335
X32875Y-37685
X32875Y-41110
X32875Y-41460
X33225Y-37335
X33225Y-37685
X33525Y-41785
X33875Y-41785
X34225Y-41785
X34575Y-41785
X36200Y-37200
X36300Y-42610
X36650Y-37200
X36750Y-42610
X37100Y-37200
X37175Y-42610
X37400Y-40835
X37600Y-36950
X37600Y-37510
X37600Y-37960
X37600Y-42610
X37775Y-40835
X38000Y-42810
X38075Y-36810
X38300Y-40335
X38400Y-42810
X38400Y-43210
X38525Y-36810
X38975Y-36810
X39725Y-37335
X39725Y-37685
X39725Y-38035
X40075Y-37335
X40075Y-37685
X40075Y-38035
X40075Y-38385
X40075Y-38735
X40075Y-40060
X40075Y-40410
X40075Y-40760
X40075Y-41110
X40075Y-41460
X40425Y-37335
X40425Y-37685
X40425Y-38035
X40425Y-38385
X40425Y-38735
X40425Y-40060
X40425Y-40410
X40425Y-40760
X40425Y-41110
X40425Y-41460
X40775Y-37335
X40775Y-37685
X40775Y-38035
X40775Y-40410
X40775Y-40760
X40775Y-41110
X40775Y-41460
X41125Y-37335
X41125Y-37685
X41125Y-40760
X41125Y-41110
X41125Y-41460
X41475Y-37335
X41475Y-37685
X41475Y-41110
X41475Y-41460
X41825Y-37335
X41825Y-37685
X42125Y-41785
X42475Y-41785
X42825Y-41785
X43175Y-41785
X44925Y-36810
X44950Y-42610
X45375Y-36810
X45400Y-42610
X45825Y-36810
X45825Y-42610
X46050Y-40835
X46250Y-37510
X46250Y-37960
X46250Y-42610
X46275Y-36810
X46425Y-40835
X46650Y-42810
X46725Y-36810
X46950Y-40335
X47050Y-42810
X47050Y-43210
X47175Y-36810
X47625Y-36810
X48375Y-37335
X48375Y-37685
X48375Y-38035
X48725Y-37335
X48725Y-37685
X48725Y-38035
X48725Y-38385
X48725Y-38735
X48725Y-40060
X48725Y-40410
X48725Y-40760
X48725Y-41110
X48725Y-41460
X49075Y-37335
X49075Y-37685
X49075Y-38035
X49075Y-38385
X49075Y-38735
X49075Y-40060
X49075Y-40410
X49075Y-40760
X49075Y-41110
X49075Y-41460
X49425Y-37335
X49425Y-37685
X49425Y-38035
X49425Y-40410
X49425Y-40760
X49425Y-41110
X49425Y-41460
X49775Y-37335
X49775Y-37685
X49775Y-40760
X49775Y-41110
X49775Y-41460
X50125Y-37335
X50125Y-37685
X50125Y-41110
X50125Y-41460
X50475Y-37335
X50475Y-37685
X50775Y-41785
X51125Y-41785
X51475Y-41785
X51825Y-41785
X66950Y-39400
X67450Y-39400
T5
X33800Y-42900
X34800Y-42900
X42400Y-43000
X43400Y-43000
X51050Y-43000
X52050Y-43000
X65650Y-42850
X66650Y-42850
X67650Y-42850
X68650Y-42850
X69650Y-42850
X70650Y-42850
T6
X69500Y-40000
X70681Y-38110
X71783Y-40000
T0
M30
