G04 #@! TF.FileFunction,Legend,Bot*
%FSLAX46Y46*%
G04 Gerber Fmt 4.6, Leading zero omitted, Abs format (unit mm)*
G04 Created by KiCad (PCBNEW 4.0.0-rc1-stable) date 2/20/2017 10:27:06 PM*
%MOMM*%
G01*
G04 APERTURE LIST*
%ADD10C,0.100000*%
%ADD11C,0.177800*%
%ADD12C,0.200000*%
%ADD13C,0.150000*%
%ADD14C,0.127000*%
G04 APERTURE END LIST*
D10*
D11*
X177421419Y-105862967D02*
X176937610Y-105524301D01*
X177421419Y-105282396D02*
X176405419Y-105282396D01*
X176405419Y-105669443D01*
X176453800Y-105766205D01*
X176502181Y-105814586D01*
X176598943Y-105862967D01*
X176744086Y-105862967D01*
X176840848Y-105814586D01*
X176889229Y-105766205D01*
X176937610Y-105669443D01*
X176937610Y-105282396D01*
X176405419Y-106201634D02*
X177421419Y-106878967D01*
X176405419Y-106878967D02*
X177421419Y-106201634D01*
X173827319Y-105258205D02*
X173827319Y-105838776D01*
X174843319Y-105548491D02*
X173827319Y-105548491D01*
X173827319Y-106080681D02*
X174843319Y-106758014D01*
X173827319Y-106758014D02*
X174843319Y-106080681D01*
X171134919Y-104329896D02*
X171134919Y-104958848D01*
X171521967Y-104620182D01*
X171521967Y-104765324D01*
X171570348Y-104862086D01*
X171618729Y-104910467D01*
X171715490Y-104958848D01*
X171957395Y-104958848D01*
X172054157Y-104910467D01*
X172102538Y-104862086D01*
X172150919Y-104765324D01*
X172150919Y-104475039D01*
X172102538Y-104378277D01*
X172054157Y-104329896D01*
X171134919Y-105249134D02*
X172150919Y-105587801D01*
X171134919Y-105926467D01*
X171134919Y-106168372D02*
X171134919Y-106797324D01*
X171521967Y-106458658D01*
X171521967Y-106603800D01*
X171570348Y-106700562D01*
X171618729Y-106748943D01*
X171715490Y-106797324D01*
X171957395Y-106797324D01*
X172054157Y-106748943D01*
X172102538Y-106700562D01*
X172150919Y-106603800D01*
X172150919Y-106313515D01*
X172102538Y-106216753D01*
X172054157Y-106168372D01*
X166293800Y-104889905D02*
X166245419Y-104793143D01*
X166245419Y-104648000D01*
X166293800Y-104502858D01*
X166390562Y-104406096D01*
X166487324Y-104357715D01*
X166680848Y-104309334D01*
X166825990Y-104309334D01*
X167019514Y-104357715D01*
X167116276Y-104406096D01*
X167213038Y-104502858D01*
X167261419Y-104648000D01*
X167261419Y-104744762D01*
X167213038Y-104889905D01*
X167164657Y-104938286D01*
X166825990Y-104938286D01*
X166825990Y-104744762D01*
X167261419Y-105373715D02*
X166245419Y-105373715D01*
X167261419Y-105954286D01*
X166245419Y-105954286D01*
X167261419Y-106438096D02*
X166245419Y-106438096D01*
X166245419Y-106680001D01*
X166293800Y-106825143D01*
X166390562Y-106921905D01*
X166487324Y-106970286D01*
X166680848Y-107018667D01*
X166825990Y-107018667D01*
X167019514Y-106970286D01*
X167116276Y-106921905D01*
X167213038Y-106825143D01*
X167261419Y-106680001D01*
X167261419Y-106438096D01*
X153470429Y-97796048D02*
X153518810Y-97941191D01*
X153567190Y-97989572D01*
X153663952Y-98037953D01*
X153809095Y-98037953D01*
X153905857Y-97989572D01*
X153954238Y-97941191D01*
X154002619Y-97844429D01*
X154002619Y-97457382D01*
X152986619Y-97457382D01*
X152986619Y-97796048D01*
X153035000Y-97892810D01*
X153083381Y-97941191D01*
X153180143Y-97989572D01*
X153276905Y-97989572D01*
X153373667Y-97941191D01*
X153422048Y-97892810D01*
X153470429Y-97796048D01*
X153470429Y-97457382D01*
X154002619Y-98618525D02*
X153954238Y-98521763D01*
X153905857Y-98473382D01*
X153809095Y-98425001D01*
X153518810Y-98425001D01*
X153422048Y-98473382D01*
X153373667Y-98521763D01*
X153325286Y-98618525D01*
X153325286Y-98763667D01*
X153373667Y-98860429D01*
X153422048Y-98908810D01*
X153518810Y-98957191D01*
X153809095Y-98957191D01*
X153905857Y-98908810D01*
X153954238Y-98860429D01*
X154002619Y-98763667D01*
X154002619Y-98618525D01*
X154002619Y-99537763D02*
X153954238Y-99441001D01*
X153905857Y-99392620D01*
X153809095Y-99344239D01*
X153518810Y-99344239D01*
X153422048Y-99392620D01*
X153373667Y-99441001D01*
X153325286Y-99537763D01*
X153325286Y-99682905D01*
X153373667Y-99779667D01*
X153422048Y-99828048D01*
X153518810Y-99876429D01*
X153809095Y-99876429D01*
X153905857Y-99828048D01*
X153954238Y-99779667D01*
X154002619Y-99682905D01*
X154002619Y-99537763D01*
X153325286Y-100166715D02*
X153325286Y-100553763D01*
X152986619Y-100311858D02*
X153857476Y-100311858D01*
X153954238Y-100360239D01*
X154002619Y-100457001D01*
X154002619Y-100553763D01*
X153875619Y-103136096D02*
X153391810Y-102797430D01*
X153875619Y-102555525D02*
X152859619Y-102555525D01*
X152859619Y-102942572D01*
X152908000Y-103039334D01*
X152956381Y-103087715D01*
X153053143Y-103136096D01*
X153198286Y-103136096D01*
X153295048Y-103087715D01*
X153343429Y-103039334D01*
X153391810Y-102942572D01*
X153391810Y-102555525D01*
X153827238Y-103958572D02*
X153875619Y-103861810D01*
X153875619Y-103668287D01*
X153827238Y-103571525D01*
X153730476Y-103523144D01*
X153343429Y-103523144D01*
X153246667Y-103571525D01*
X153198286Y-103668287D01*
X153198286Y-103861810D01*
X153246667Y-103958572D01*
X153343429Y-104006953D01*
X153440190Y-104006953D01*
X153536952Y-103523144D01*
X153827238Y-104394001D02*
X153875619Y-104490763D01*
X153875619Y-104684287D01*
X153827238Y-104781048D01*
X153730476Y-104829429D01*
X153682095Y-104829429D01*
X153585333Y-104781048D01*
X153536952Y-104684287D01*
X153536952Y-104539144D01*
X153488571Y-104442382D01*
X153391810Y-104394001D01*
X153343429Y-104394001D01*
X153246667Y-104442382D01*
X153198286Y-104539144D01*
X153198286Y-104684287D01*
X153246667Y-104781048D01*
X153827238Y-105651905D02*
X153875619Y-105555143D01*
X153875619Y-105361620D01*
X153827238Y-105264858D01*
X153730476Y-105216477D01*
X153343429Y-105216477D01*
X153246667Y-105264858D01*
X153198286Y-105361620D01*
X153198286Y-105555143D01*
X153246667Y-105651905D01*
X153343429Y-105700286D01*
X153440190Y-105700286D01*
X153536952Y-105216477D01*
X153198286Y-105990572D02*
X153198286Y-106377620D01*
X152859619Y-106135715D02*
X153730476Y-106135715D01*
X153827238Y-106184096D01*
X153875619Y-106280858D01*
X153875619Y-106377620D01*
D12*
X105410000Y-88900000D02*
X105410000Y-89916000D01*
X105410000Y-89916000D02*
X104140000Y-89916000D01*
X104140000Y-89916000D02*
X104140000Y-88900000D01*
X149860000Y-89916000D02*
X149860000Y-88900000D01*
X148590000Y-89916000D02*
X149860000Y-89916000D01*
X148590000Y-88900000D02*
X148590000Y-89916000D01*
X149860000Y-113284000D02*
X149860000Y-114300000D01*
X148590000Y-113284000D02*
X149860000Y-113284000D01*
X148590000Y-114300000D02*
X148590000Y-113284000D01*
D13*
X108477938Y-104125958D02*
X108477938Y-102125958D01*
X110527938Y-102125958D02*
X110527938Y-104125958D01*
X105960938Y-98207958D02*
X105960938Y-99407958D01*
X107710938Y-99407958D02*
X107710938Y-98207958D01*
X100638938Y-101702958D02*
X100638938Y-101427958D01*
X103888938Y-101702958D02*
X103888938Y-101427958D01*
X103888938Y-98452958D02*
X103888938Y-98727958D01*
X100638938Y-98452958D02*
X100638938Y-98727958D01*
X100638938Y-101702958D02*
X103888938Y-101702958D01*
X100638938Y-98452958D02*
X103888938Y-98452958D01*
X100638938Y-101427958D02*
X99563938Y-101427958D01*
X108246938Y-98207958D02*
X108246938Y-99407958D01*
X109996938Y-99407958D02*
X109996938Y-98207958D01*
X105937938Y-104149958D02*
X105937938Y-102149958D01*
X107987938Y-102149958D02*
X107987938Y-104149958D01*
X105609500Y-107165204D02*
X105609500Y-109165204D01*
X103559500Y-109165204D02*
X103559500Y-107165204D01*
X100402500Y-107165204D02*
X100402500Y-109165204D01*
X98352500Y-109165204D02*
X98352500Y-107165204D01*
X103069500Y-107165204D02*
X103069500Y-109165204D01*
X101019500Y-109165204D02*
X101019500Y-107165204D01*
X99539500Y-103167704D02*
X99539500Y-103867704D01*
X100739500Y-103867704D02*
X100739500Y-103167704D01*
X97365500Y-104839704D02*
X98365500Y-104839704D01*
X98365500Y-103489704D02*
X97365500Y-103489704D01*
X97726938Y-98330958D02*
X97726938Y-99030958D01*
X98926938Y-99030958D02*
X98926938Y-98330958D01*
X95532938Y-100577958D02*
X95532938Y-100877958D01*
X95532938Y-99677958D02*
X96032938Y-99677958D01*
X95532938Y-99677958D02*
X95032938Y-99677958D01*
X96032938Y-100577958D02*
X95532938Y-99677958D01*
X95032938Y-100577958D02*
X96032938Y-100577958D01*
X95532938Y-99677958D02*
X95032938Y-100577958D01*
X95532938Y-99277958D02*
X95532938Y-99677958D01*
X97132938Y-98677958D02*
X97132938Y-97877958D01*
X97032938Y-98677958D02*
X97132938Y-98677958D01*
X97032938Y-97877958D02*
X97032938Y-98677958D01*
X93932938Y-98677958D02*
X93932938Y-97877958D01*
X94032938Y-98677958D02*
X93932938Y-98677958D01*
X94032938Y-97877958D02*
X94032938Y-98677958D01*
X97232938Y-97877958D02*
X97032938Y-97877958D01*
X97232938Y-102277958D02*
X97032938Y-102277958D01*
X97232938Y-97877958D02*
X97232938Y-102277958D01*
X93832938Y-102277958D02*
X94032938Y-102277958D01*
X93832938Y-97877958D02*
X94032938Y-97877958D01*
X93832938Y-102277958D02*
X93832938Y-97877958D01*
X98926938Y-102078958D02*
X98926938Y-101378958D01*
X97726938Y-101378958D02*
X97726938Y-102078958D01*
X92484938Y-100506458D02*
X92484938Y-100887458D01*
X92484938Y-99490458D02*
X92484938Y-99871458D01*
X92484938Y-99871458D02*
X92103938Y-100506458D01*
X92103938Y-100506458D02*
X92865938Y-100506458D01*
X92865938Y-100506458D02*
X92484938Y-99871458D01*
X91976938Y-99871458D02*
X92992938Y-99871458D01*
X93384938Y-98188958D02*
X93384938Y-101728958D01*
X91584938Y-98188958D02*
X91584938Y-101728958D01*
X122609938Y-101702958D02*
X122609938Y-101427958D01*
X125859938Y-101702958D02*
X125859938Y-101427958D01*
X125859938Y-98452958D02*
X125859938Y-98727958D01*
X122609938Y-98452958D02*
X122609938Y-98727958D01*
X122609938Y-101702958D02*
X125859938Y-101702958D01*
X122609938Y-98452958D02*
X125859938Y-98452958D01*
X122609938Y-101427958D02*
X121534938Y-101427958D01*
X120897938Y-102078958D02*
X120897938Y-101378958D01*
X119697938Y-101378958D02*
X119697938Y-102078958D01*
X117503938Y-100577958D02*
X117503938Y-100877958D01*
X117503938Y-99677958D02*
X118003938Y-99677958D01*
X117503938Y-99677958D02*
X117003938Y-99677958D01*
X118003938Y-100577958D02*
X117503938Y-99677958D01*
X117003938Y-100577958D02*
X118003938Y-100577958D01*
X117503938Y-99677958D02*
X117003938Y-100577958D01*
X117503938Y-99277958D02*
X117503938Y-99677958D01*
X119103938Y-98677958D02*
X119103938Y-97877958D01*
X119003938Y-98677958D02*
X119103938Y-98677958D01*
X119003938Y-97877958D02*
X119003938Y-98677958D01*
X115903938Y-98677958D02*
X115903938Y-97877958D01*
X116003938Y-98677958D02*
X115903938Y-98677958D01*
X116003938Y-97877958D02*
X116003938Y-98677958D01*
X119203938Y-97877958D02*
X119003938Y-97877958D01*
X119203938Y-102277958D02*
X119003938Y-102277958D01*
X119203938Y-97877958D02*
X119203938Y-102277958D01*
X115803938Y-102277958D02*
X116003938Y-102277958D01*
X115803938Y-97877958D02*
X116003938Y-97877958D01*
X115803938Y-102277958D02*
X115803938Y-97877958D01*
X119697938Y-98330958D02*
X119697938Y-99030958D01*
X120897938Y-99030958D02*
X120897938Y-98330958D01*
X114455938Y-100506458D02*
X114455938Y-100887458D01*
X114455938Y-99490458D02*
X114455938Y-99871458D01*
X114455938Y-99871458D02*
X114074938Y-100506458D01*
X114074938Y-100506458D02*
X114836938Y-100506458D01*
X114836938Y-100506458D02*
X114455938Y-99871458D01*
X113947938Y-99871458D02*
X114963938Y-99871458D01*
X115355938Y-98188958D02*
X115355938Y-101728958D01*
X113555938Y-98188958D02*
X113555938Y-101728958D01*
X119336500Y-104839704D02*
X120336500Y-104839704D01*
X120336500Y-103489704D02*
X119336500Y-103489704D01*
X127580500Y-107165204D02*
X127580500Y-109165204D01*
X125530500Y-109165204D02*
X125530500Y-107165204D01*
X125040500Y-107165204D02*
X125040500Y-109165204D01*
X122990500Y-109165204D02*
X122990500Y-107165204D01*
X122373500Y-107165204D02*
X122373500Y-109165204D01*
X120323500Y-109165204D02*
X120323500Y-107165204D01*
X130217938Y-98207958D02*
X130217938Y-99407958D01*
X131967938Y-99407958D02*
X131967938Y-98207958D01*
X127908938Y-104149958D02*
X127908938Y-102149958D01*
X129958938Y-102149958D02*
X129958938Y-104149958D01*
X130448938Y-104125958D02*
X130448938Y-102125958D01*
X132498938Y-102125958D02*
X132498938Y-104125958D01*
X127931938Y-98207958D02*
X127931938Y-99407958D01*
X129681938Y-99407958D02*
X129681938Y-98207958D01*
X121510500Y-103167704D02*
X121510500Y-103867704D01*
X122710500Y-103867704D02*
X122710500Y-103167704D01*
X84093938Y-104149958D02*
X84093938Y-102149958D01*
X86143938Y-102149958D02*
X86143938Y-104149958D01*
X78794938Y-101702958D02*
X78794938Y-101427958D01*
X82044938Y-101702958D02*
X82044938Y-101427958D01*
X82044938Y-98452958D02*
X82044938Y-98727958D01*
X78794938Y-98452958D02*
X78794938Y-98727958D01*
X78794938Y-101702958D02*
X82044938Y-101702958D01*
X78794938Y-98452958D02*
X82044938Y-98452958D01*
X78794938Y-101427958D02*
X77719938Y-101427958D01*
X84116938Y-98207958D02*
X84116938Y-99407958D01*
X85866938Y-99407958D02*
X85866938Y-98207958D01*
X86402938Y-98207958D02*
X86402938Y-99407958D01*
X88152938Y-99407958D02*
X88152938Y-98207958D01*
X77695500Y-103167704D02*
X77695500Y-103867704D01*
X78895500Y-103867704D02*
X78895500Y-103167704D01*
X86633938Y-104125958D02*
X86633938Y-102125958D01*
X88683938Y-102125958D02*
X88683938Y-104125958D01*
X75882938Y-98330958D02*
X75882938Y-99030958D01*
X77082938Y-99030958D02*
X77082938Y-98330958D01*
X75521500Y-104839704D02*
X76521500Y-104839704D01*
X76521500Y-103489704D02*
X75521500Y-103489704D01*
X70640938Y-100506458D02*
X70640938Y-100887458D01*
X70640938Y-99490458D02*
X70640938Y-99871458D01*
X70640938Y-99871458D02*
X70259938Y-100506458D01*
X70259938Y-100506458D02*
X71021938Y-100506458D01*
X71021938Y-100506458D02*
X70640938Y-99871458D01*
X70132938Y-99871458D02*
X71148938Y-99871458D01*
X71540938Y-98188958D02*
X71540938Y-101728958D01*
X69740938Y-98188958D02*
X69740938Y-101728958D01*
X73688938Y-100577958D02*
X73688938Y-100877958D01*
X73688938Y-99677958D02*
X74188938Y-99677958D01*
X73688938Y-99677958D02*
X73188938Y-99677958D01*
X74188938Y-100577958D02*
X73688938Y-99677958D01*
X73188938Y-100577958D02*
X74188938Y-100577958D01*
X73688938Y-99677958D02*
X73188938Y-100577958D01*
X73688938Y-99277958D02*
X73688938Y-99677958D01*
X75288938Y-98677958D02*
X75288938Y-97877958D01*
X75188938Y-98677958D02*
X75288938Y-98677958D01*
X75188938Y-97877958D02*
X75188938Y-98677958D01*
X72088938Y-98677958D02*
X72088938Y-97877958D01*
X72188938Y-98677958D02*
X72088938Y-98677958D01*
X72188938Y-97877958D02*
X72188938Y-98677958D01*
X75388938Y-97877958D02*
X75188938Y-97877958D01*
X75388938Y-102277958D02*
X75188938Y-102277958D01*
X75388938Y-97877958D02*
X75388938Y-102277958D01*
X71988938Y-102277958D02*
X72188938Y-102277958D01*
X71988938Y-97877958D02*
X72188938Y-97877958D01*
X71988938Y-102277958D02*
X71988938Y-97877958D01*
X77082938Y-102078958D02*
X77082938Y-101378958D01*
X75882938Y-101378958D02*
X75882938Y-102078958D01*
X81225500Y-107165204D02*
X81225500Y-109165204D01*
X79175500Y-109165204D02*
X79175500Y-107165204D01*
X83765500Y-107165204D02*
X83765500Y-109165204D01*
X81715500Y-109165204D02*
X81715500Y-107165204D01*
X78558500Y-107165204D02*
X78558500Y-109165204D01*
X76508500Y-109165204D02*
X76508500Y-107165204D01*
X151984000Y-93695000D02*
X151984000Y-92995000D01*
X150784000Y-92995000D02*
X150784000Y-93695000D01*
X150079000Y-93695000D02*
X150079000Y-92995000D01*
X148879000Y-92995000D02*
X148879000Y-93695000D01*
X148174000Y-93707000D02*
X148174000Y-93007000D01*
X146974000Y-93007000D02*
X146974000Y-93707000D01*
X162983000Y-101135000D02*
X162983000Y-103035000D01*
X161883000Y-101135000D02*
X161883000Y-103035000D01*
X162433000Y-102035000D02*
X162433000Y-102485000D01*
X162183000Y-101985000D02*
X162683000Y-101985000D01*
X162433000Y-101985000D02*
X162183000Y-102235000D01*
X162183000Y-102235000D02*
X162683000Y-102235000D01*
X162683000Y-102235000D02*
X162433000Y-101985000D01*
X152059000Y-96893000D02*
X152059000Y-95893000D01*
X150709000Y-95893000D02*
X150709000Y-96893000D01*
X150154000Y-96905000D02*
X150154000Y-95905000D01*
X148804000Y-95905000D02*
X148804000Y-96905000D01*
X148249000Y-96893000D02*
X148249000Y-95893000D01*
X146899000Y-95893000D02*
X146899000Y-96893000D01*
X163108000Y-105910000D02*
X163108000Y-104910000D01*
X161758000Y-104910000D02*
X161758000Y-105910000D01*
X154900000Y-107057000D02*
X154900000Y-108057000D01*
X156250000Y-108057000D02*
X156250000Y-107057000D01*
X163314000Y-96353000D02*
X162314000Y-96353000D01*
X162314000Y-97703000D02*
X163314000Y-97703000D01*
X163108000Y-99814000D02*
X163108000Y-98814000D01*
X161758000Y-98814000D02*
X161758000Y-99814000D01*
X156357000Y-96179000D02*
X157357000Y-96179000D01*
X157357000Y-94829000D02*
X156357000Y-94829000D01*
D14*
X155021280Y-100472240D02*
X160619440Y-100472240D01*
X160619440Y-100472240D02*
X160619440Y-97276920D01*
X160619440Y-97276920D02*
X155021280Y-97276920D01*
X155021280Y-97276920D02*
X155021280Y-100472240D01*
X156621480Y-100073460D02*
X157820360Y-100073460D01*
X157820360Y-100073460D02*
X159019240Y-100073460D01*
X156621480Y-97675700D02*
X157820360Y-97675700D01*
X157820360Y-97675700D02*
X159019240Y-97675700D01*
X157820360Y-97675700D02*
X157820360Y-98275140D01*
X157820360Y-100073460D02*
X157820360Y-99474020D01*
X157820360Y-98275140D02*
X157421580Y-99273360D01*
X155061920Y-105991660D02*
X160660080Y-105991660D01*
X160660080Y-105991660D02*
X160660080Y-102796340D01*
X160660080Y-102796340D02*
X155061920Y-102796340D01*
X155061920Y-102796340D02*
X155061920Y-105991660D01*
X156662120Y-105592880D02*
X157861000Y-105592880D01*
X157861000Y-105592880D02*
X159059880Y-105592880D01*
X156662120Y-103195120D02*
X157861000Y-103195120D01*
X157861000Y-103195120D02*
X159059880Y-103195120D01*
X157861000Y-103195120D02*
X157861000Y-103794560D01*
X157861000Y-105592880D02*
X157861000Y-104993440D01*
X157861000Y-103794560D02*
X157462220Y-104792780D01*
D13*
X135148700Y-113184300D02*
X136148700Y-113184300D01*
X136148700Y-111834300D02*
X135148700Y-111834300D01*
X142476600Y-93588200D02*
X143476600Y-93588200D01*
X143476600Y-92238200D02*
X142476600Y-92238200D01*
X132757800Y-112291500D02*
X131757800Y-112291500D01*
X131757800Y-113641500D02*
X132757800Y-113641500D01*
X137345800Y-93588200D02*
X138345800Y-93588200D01*
X138345800Y-92238200D02*
X137345800Y-92238200D01*
X113133143Y-101902657D02*
X113180762Y-101855038D01*
X113228381Y-101712181D01*
X113228381Y-101616943D01*
X113180762Y-101474085D01*
X113085524Y-101378847D01*
X112990286Y-101331228D01*
X112799810Y-101283609D01*
X112656952Y-101283609D01*
X112466476Y-101331228D01*
X112371238Y-101378847D01*
X112276000Y-101474085D01*
X112228381Y-101616943D01*
X112228381Y-101712181D01*
X112276000Y-101855038D01*
X112323619Y-101902657D01*
X112228381Y-102807419D02*
X112228381Y-102331228D01*
X112704571Y-102283609D01*
X112656952Y-102331228D01*
X112609333Y-102426466D01*
X112609333Y-102664562D01*
X112656952Y-102759800D01*
X112704571Y-102807419D01*
X112799810Y-102855038D01*
X113037905Y-102855038D01*
X113133143Y-102807419D01*
X113180762Y-102759800D01*
X113228381Y-102664562D01*
X113228381Y-102426466D01*
X113180762Y-102331228D01*
X113133143Y-102283609D01*
X112228381Y-103474085D02*
X112228381Y-103569324D01*
X112276000Y-103664562D01*
X112323619Y-103712181D01*
X112418857Y-103759800D01*
X112609333Y-103807419D01*
X112847429Y-103807419D01*
X113037905Y-103759800D01*
X113133143Y-103712181D01*
X113180762Y-103664562D01*
X113228381Y-103569324D01*
X113228381Y-103474085D01*
X113180762Y-103378847D01*
X113133143Y-103331228D01*
X113037905Y-103283609D01*
X112847429Y-103235990D01*
X112609333Y-103235990D01*
X112418857Y-103283609D01*
X112323619Y-103331228D01*
X112276000Y-103378847D01*
X112228381Y-103474085D01*
X112228381Y-104140752D02*
X112228381Y-104807419D01*
X113228381Y-104378847D01*
X107894381Y-94155657D02*
X107418190Y-93822323D01*
X107894381Y-93584228D02*
X106894381Y-93584228D01*
X106894381Y-93965181D01*
X106942000Y-94060419D01*
X106989619Y-94108038D01*
X107084857Y-94155657D01*
X107227714Y-94155657D01*
X107322952Y-94108038D01*
X107370571Y-94060419D01*
X107418190Y-93965181D01*
X107418190Y-93584228D01*
X106894381Y-95060419D02*
X106894381Y-94584228D01*
X107370571Y-94536609D01*
X107322952Y-94584228D01*
X107275333Y-94679466D01*
X107275333Y-94917562D01*
X107322952Y-95012800D01*
X107370571Y-95060419D01*
X107465810Y-95108038D01*
X107703905Y-95108038D01*
X107799143Y-95060419D01*
X107846762Y-95012800D01*
X107894381Y-94917562D01*
X107894381Y-94679466D01*
X107846762Y-94584228D01*
X107799143Y-94536609D01*
X106894381Y-95727085D02*
X106894381Y-95822324D01*
X106942000Y-95917562D01*
X106989619Y-95965181D01*
X107084857Y-96012800D01*
X107275333Y-96060419D01*
X107513429Y-96060419D01*
X107703905Y-96012800D01*
X107799143Y-95965181D01*
X107846762Y-95917562D01*
X107894381Y-95822324D01*
X107894381Y-95727085D01*
X107846762Y-95631847D01*
X107799143Y-95584228D01*
X107703905Y-95536609D01*
X107513429Y-95488990D01*
X107275333Y-95488990D01*
X107084857Y-95536609D01*
X106989619Y-95584228D01*
X106942000Y-95631847D01*
X106894381Y-95727085D01*
X107894381Y-97012800D02*
X107894381Y-96441371D01*
X107894381Y-96727085D02*
X106894381Y-96727085D01*
X107037238Y-96631847D01*
X107132476Y-96536609D01*
X107180095Y-96441371D01*
X109672381Y-94155657D02*
X109196190Y-93822323D01*
X109672381Y-93584228D02*
X108672381Y-93584228D01*
X108672381Y-93965181D01*
X108720000Y-94060419D01*
X108767619Y-94108038D01*
X108862857Y-94155657D01*
X109005714Y-94155657D01*
X109100952Y-94108038D01*
X109148571Y-94060419D01*
X109196190Y-93965181D01*
X109196190Y-93584228D01*
X108672381Y-95060419D02*
X108672381Y-94584228D01*
X109148571Y-94536609D01*
X109100952Y-94584228D01*
X109053333Y-94679466D01*
X109053333Y-94917562D01*
X109100952Y-95012800D01*
X109148571Y-95060419D01*
X109243810Y-95108038D01*
X109481905Y-95108038D01*
X109577143Y-95060419D01*
X109624762Y-95012800D01*
X109672381Y-94917562D01*
X109672381Y-94679466D01*
X109624762Y-94584228D01*
X109577143Y-94536609D01*
X108672381Y-95727085D02*
X108672381Y-95822324D01*
X108720000Y-95917562D01*
X108767619Y-95965181D01*
X108862857Y-96012800D01*
X109053333Y-96060419D01*
X109291429Y-96060419D01*
X109481905Y-96012800D01*
X109577143Y-95965181D01*
X109624762Y-95917562D01*
X109672381Y-95822324D01*
X109672381Y-95727085D01*
X109624762Y-95631847D01*
X109577143Y-95584228D01*
X109481905Y-95536609D01*
X109291429Y-95488990D01*
X109053333Y-95488990D01*
X108862857Y-95536609D01*
X108767619Y-95584228D01*
X108720000Y-95631847D01*
X108672381Y-95727085D01*
X108767619Y-96441371D02*
X108720000Y-96488990D01*
X108672381Y-96584228D01*
X108672381Y-96822324D01*
X108720000Y-96917562D01*
X108767619Y-96965181D01*
X108862857Y-97012800D01*
X108958095Y-97012800D01*
X109100952Y-96965181D01*
X109672381Y-96393752D01*
X109672381Y-97012800D01*
X111863143Y-101902657D02*
X111910762Y-101855038D01*
X111958381Y-101712181D01*
X111958381Y-101616943D01*
X111910762Y-101474085D01*
X111815524Y-101378847D01*
X111720286Y-101331228D01*
X111529810Y-101283609D01*
X111386952Y-101283609D01*
X111196476Y-101331228D01*
X111101238Y-101378847D01*
X111006000Y-101474085D01*
X110958381Y-101616943D01*
X110958381Y-101712181D01*
X111006000Y-101855038D01*
X111053619Y-101902657D01*
X110958381Y-102807419D02*
X110958381Y-102331228D01*
X111434571Y-102283609D01*
X111386952Y-102331228D01*
X111339333Y-102426466D01*
X111339333Y-102664562D01*
X111386952Y-102759800D01*
X111434571Y-102807419D01*
X111529810Y-102855038D01*
X111767905Y-102855038D01*
X111863143Y-102807419D01*
X111910762Y-102759800D01*
X111958381Y-102664562D01*
X111958381Y-102426466D01*
X111910762Y-102331228D01*
X111863143Y-102283609D01*
X110958381Y-103474085D02*
X110958381Y-103569324D01*
X111006000Y-103664562D01*
X111053619Y-103712181D01*
X111148857Y-103759800D01*
X111339333Y-103807419D01*
X111577429Y-103807419D01*
X111767905Y-103759800D01*
X111863143Y-103712181D01*
X111910762Y-103664562D01*
X111958381Y-103569324D01*
X111958381Y-103474085D01*
X111910762Y-103378847D01*
X111863143Y-103331228D01*
X111767905Y-103283609D01*
X111577429Y-103235990D01*
X111339333Y-103235990D01*
X111148857Y-103283609D01*
X111053619Y-103331228D01*
X111006000Y-103378847D01*
X110958381Y-103474085D01*
X110958381Y-104664562D02*
X110958381Y-104474085D01*
X111006000Y-104378847D01*
X111053619Y-104331228D01*
X111196476Y-104235990D01*
X111386952Y-104188371D01*
X111767905Y-104188371D01*
X111863143Y-104235990D01*
X111910762Y-104283609D01*
X111958381Y-104378847D01*
X111958381Y-104569324D01*
X111910762Y-104664562D01*
X111863143Y-104712181D01*
X111767905Y-104759800D01*
X111529810Y-104759800D01*
X111434571Y-104712181D01*
X111386952Y-104664562D01*
X111339333Y-104569324D01*
X111339333Y-104378847D01*
X111386952Y-104283609D01*
X111434571Y-104235990D01*
X111529810Y-104188371D01*
X97385047Y-106426847D02*
X97432666Y-106474466D01*
X97575523Y-106522085D01*
X97670761Y-106522085D01*
X97813619Y-106474466D01*
X97908857Y-106379228D01*
X97956476Y-106283990D01*
X98004095Y-106093514D01*
X98004095Y-105950656D01*
X97956476Y-105760180D01*
X97908857Y-105664942D01*
X97813619Y-105569704D01*
X97670761Y-105522085D01*
X97575523Y-105522085D01*
X97432666Y-105569704D01*
X97385047Y-105617323D01*
X96480285Y-105522085D02*
X96956476Y-105522085D01*
X97004095Y-105998275D01*
X96956476Y-105950656D01*
X96861238Y-105903037D01*
X96623142Y-105903037D01*
X96527904Y-105950656D01*
X96480285Y-105998275D01*
X96432666Y-106093514D01*
X96432666Y-106331609D01*
X96480285Y-106426847D01*
X96527904Y-106474466D01*
X96623142Y-106522085D01*
X96861238Y-106522085D01*
X96956476Y-106474466D01*
X97004095Y-106426847D01*
X95813619Y-105522085D02*
X95718380Y-105522085D01*
X95623142Y-105569704D01*
X95575523Y-105617323D01*
X95527904Y-105712561D01*
X95480285Y-105903037D01*
X95480285Y-106141133D01*
X95527904Y-106331609D01*
X95575523Y-106426847D01*
X95623142Y-106474466D01*
X95718380Y-106522085D01*
X95813619Y-106522085D01*
X95908857Y-106474466D01*
X95956476Y-106426847D01*
X96004095Y-106331609D01*
X96051714Y-106141133D01*
X96051714Y-105903037D01*
X96004095Y-105712561D01*
X95956476Y-105617323D01*
X95908857Y-105569704D01*
X95813619Y-105522085D01*
X95004095Y-106522085D02*
X94813619Y-106522085D01*
X94718380Y-106474466D01*
X94670761Y-106426847D01*
X94575523Y-106283990D01*
X94527904Y-106093514D01*
X94527904Y-105712561D01*
X94575523Y-105617323D01*
X94623142Y-105569704D01*
X94718380Y-105522085D01*
X94908857Y-105522085D01*
X95004095Y-105569704D01*
X95051714Y-105617323D01*
X95099333Y-105712561D01*
X95099333Y-105950656D01*
X95051714Y-106045894D01*
X95004095Y-106093514D01*
X94908857Y-106141133D01*
X94718380Y-106141133D01*
X94623142Y-106093514D01*
X94575523Y-106045894D01*
X94527904Y-105950656D01*
X95734047Y-105252085D02*
X96067381Y-104775894D01*
X96305476Y-105252085D02*
X96305476Y-104252085D01*
X95924523Y-104252085D01*
X95829285Y-104299704D01*
X95781666Y-104347323D01*
X95734047Y-104442561D01*
X95734047Y-104585418D01*
X95781666Y-104680656D01*
X95829285Y-104728275D01*
X95924523Y-104775894D01*
X96305476Y-104775894D01*
X94829285Y-104252085D02*
X95305476Y-104252085D01*
X95353095Y-104728275D01*
X95305476Y-104680656D01*
X95210238Y-104633037D01*
X94972142Y-104633037D01*
X94876904Y-104680656D01*
X94829285Y-104728275D01*
X94781666Y-104823514D01*
X94781666Y-105061609D01*
X94829285Y-105156847D01*
X94876904Y-105204466D01*
X94972142Y-105252085D01*
X95210238Y-105252085D01*
X95305476Y-105204466D01*
X95353095Y-105156847D01*
X94162619Y-104252085D02*
X94067380Y-104252085D01*
X93972142Y-104299704D01*
X93924523Y-104347323D01*
X93876904Y-104442561D01*
X93829285Y-104633037D01*
X93829285Y-104871133D01*
X93876904Y-105061609D01*
X93924523Y-105156847D01*
X93972142Y-105204466D01*
X94067380Y-105252085D01*
X94162619Y-105252085D01*
X94257857Y-105204466D01*
X94305476Y-105156847D01*
X94353095Y-105061609D01*
X94400714Y-104871133D01*
X94400714Y-104633037D01*
X94353095Y-104442561D01*
X94305476Y-104347323D01*
X94257857Y-104299704D01*
X94162619Y-104252085D01*
X93495952Y-104252085D02*
X92876904Y-104252085D01*
X93210238Y-104633037D01*
X93067380Y-104633037D01*
X92972142Y-104680656D01*
X92924523Y-104728275D01*
X92876904Y-104823514D01*
X92876904Y-105061609D01*
X92924523Y-105156847D01*
X92972142Y-105204466D01*
X93067380Y-105252085D01*
X93353095Y-105252085D01*
X93448333Y-105204466D01*
X93495952Y-105156847D01*
X97258143Y-94790657D02*
X97305762Y-94743038D01*
X97353381Y-94600181D01*
X97353381Y-94504943D01*
X97305762Y-94362085D01*
X97210524Y-94266847D01*
X97115286Y-94219228D01*
X96924810Y-94171609D01*
X96781952Y-94171609D01*
X96591476Y-94219228D01*
X96496238Y-94266847D01*
X96401000Y-94362085D01*
X96353381Y-94504943D01*
X96353381Y-94600181D01*
X96401000Y-94743038D01*
X96448619Y-94790657D01*
X96353381Y-95695419D02*
X96353381Y-95219228D01*
X96829571Y-95171609D01*
X96781952Y-95219228D01*
X96734333Y-95314466D01*
X96734333Y-95552562D01*
X96781952Y-95647800D01*
X96829571Y-95695419D01*
X96924810Y-95743038D01*
X97162905Y-95743038D01*
X97258143Y-95695419D01*
X97305762Y-95647800D01*
X97353381Y-95552562D01*
X97353381Y-95314466D01*
X97305762Y-95219228D01*
X97258143Y-95171609D01*
X96353381Y-96362085D02*
X96353381Y-96457324D01*
X96401000Y-96552562D01*
X96448619Y-96600181D01*
X96543857Y-96647800D01*
X96734333Y-96695419D01*
X96972429Y-96695419D01*
X97162905Y-96647800D01*
X97258143Y-96600181D01*
X97305762Y-96552562D01*
X97353381Y-96457324D01*
X97353381Y-96362085D01*
X97305762Y-96266847D01*
X97258143Y-96219228D01*
X97162905Y-96171609D01*
X96972429Y-96123990D01*
X96734333Y-96123990D01*
X96543857Y-96171609D01*
X96448619Y-96219228D01*
X96401000Y-96266847D01*
X96353381Y-96362085D01*
X97353381Y-97647800D02*
X97353381Y-97076371D01*
X97353381Y-97362085D02*
X96353381Y-97362085D01*
X96496238Y-97266847D01*
X96591476Y-97171609D01*
X96639095Y-97076371D01*
X94051381Y-94092228D02*
X93051381Y-94092228D01*
X93051381Y-94330323D01*
X93099000Y-94473181D01*
X93194238Y-94568419D01*
X93289476Y-94616038D01*
X93479952Y-94663657D01*
X93622810Y-94663657D01*
X93813286Y-94616038D01*
X93908524Y-94568419D01*
X94003762Y-94473181D01*
X94051381Y-94330323D01*
X94051381Y-94092228D01*
X93051381Y-95568419D02*
X93051381Y-95092228D01*
X93527571Y-95044609D01*
X93479952Y-95092228D01*
X93432333Y-95187466D01*
X93432333Y-95425562D01*
X93479952Y-95520800D01*
X93527571Y-95568419D01*
X93622810Y-95616038D01*
X93860905Y-95616038D01*
X93956143Y-95568419D01*
X94003762Y-95520800D01*
X94051381Y-95425562D01*
X94051381Y-95187466D01*
X94003762Y-95092228D01*
X93956143Y-95044609D01*
X93051381Y-96235085D02*
X93051381Y-96330324D01*
X93099000Y-96425562D01*
X93146619Y-96473181D01*
X93241857Y-96520800D01*
X93432333Y-96568419D01*
X93670429Y-96568419D01*
X93860905Y-96520800D01*
X93956143Y-96473181D01*
X94003762Y-96425562D01*
X94051381Y-96330324D01*
X94051381Y-96235085D01*
X94003762Y-96139847D01*
X93956143Y-96092228D01*
X93860905Y-96044609D01*
X93670429Y-95996990D01*
X93432333Y-95996990D01*
X93241857Y-96044609D01*
X93146619Y-96092228D01*
X93099000Y-96139847D01*
X93051381Y-96235085D01*
X94051381Y-97520800D02*
X94051381Y-96949371D01*
X94051381Y-97235085D02*
X93051381Y-97235085D01*
X93194238Y-97139847D01*
X93289476Y-97044609D01*
X93337095Y-96949371D01*
X100179143Y-95552657D02*
X100226762Y-95505038D01*
X100274381Y-95362181D01*
X100274381Y-95266943D01*
X100226762Y-95124085D01*
X100131524Y-95028847D01*
X100036286Y-94981228D01*
X99845810Y-94933609D01*
X99702952Y-94933609D01*
X99512476Y-94981228D01*
X99417238Y-95028847D01*
X99322000Y-95124085D01*
X99274381Y-95266943D01*
X99274381Y-95362181D01*
X99322000Y-95505038D01*
X99369619Y-95552657D01*
X99274381Y-96457419D02*
X99274381Y-95981228D01*
X99750571Y-95933609D01*
X99702952Y-95981228D01*
X99655333Y-96076466D01*
X99655333Y-96314562D01*
X99702952Y-96409800D01*
X99750571Y-96457419D01*
X99845810Y-96505038D01*
X100083905Y-96505038D01*
X100179143Y-96457419D01*
X100226762Y-96409800D01*
X100274381Y-96314562D01*
X100274381Y-96076466D01*
X100226762Y-95981228D01*
X100179143Y-95933609D01*
X99274381Y-97124085D02*
X99274381Y-97219324D01*
X99322000Y-97314562D01*
X99369619Y-97362181D01*
X99464857Y-97409800D01*
X99655333Y-97457419D01*
X99893429Y-97457419D01*
X100083905Y-97409800D01*
X100179143Y-97362181D01*
X100226762Y-97314562D01*
X100274381Y-97219324D01*
X100274381Y-97124085D01*
X100226762Y-97028847D01*
X100179143Y-96981228D01*
X100083905Y-96933609D01*
X99893429Y-96885990D01*
X99655333Y-96885990D01*
X99464857Y-96933609D01*
X99369619Y-96981228D01*
X99322000Y-97028847D01*
X99274381Y-97124085D01*
X99274381Y-98362181D02*
X99274381Y-97885990D01*
X99750571Y-97838371D01*
X99702952Y-97885990D01*
X99655333Y-97981228D01*
X99655333Y-98219324D01*
X99702952Y-98314562D01*
X99750571Y-98362181D01*
X99845810Y-98409800D01*
X100083905Y-98409800D01*
X100179143Y-98362181D01*
X100226762Y-98314562D01*
X100274381Y-98219324D01*
X100274381Y-97981228D01*
X100226762Y-97885990D01*
X100179143Y-97838371D01*
X92654381Y-93965228D02*
X91654381Y-93965228D01*
X91654381Y-94203323D01*
X91702000Y-94346181D01*
X91797238Y-94441419D01*
X91892476Y-94489038D01*
X92082952Y-94536657D01*
X92225810Y-94536657D01*
X92416286Y-94489038D01*
X92511524Y-94441419D01*
X92606762Y-94346181D01*
X92654381Y-94203323D01*
X92654381Y-93965228D01*
X91654381Y-95441419D02*
X91654381Y-94965228D01*
X92130571Y-94917609D01*
X92082952Y-94965228D01*
X92035333Y-95060466D01*
X92035333Y-95298562D01*
X92082952Y-95393800D01*
X92130571Y-95441419D01*
X92225810Y-95489038D01*
X92463905Y-95489038D01*
X92559143Y-95441419D01*
X92606762Y-95393800D01*
X92654381Y-95298562D01*
X92654381Y-95060466D01*
X92606762Y-94965228D01*
X92559143Y-94917609D01*
X91654381Y-96108085D02*
X91654381Y-96203324D01*
X91702000Y-96298562D01*
X91749619Y-96346181D01*
X91844857Y-96393800D01*
X92035333Y-96441419D01*
X92273429Y-96441419D01*
X92463905Y-96393800D01*
X92559143Y-96346181D01*
X92606762Y-96298562D01*
X92654381Y-96203324D01*
X92654381Y-96108085D01*
X92606762Y-96012847D01*
X92559143Y-95965228D01*
X92463905Y-95917609D01*
X92273429Y-95869990D01*
X92035333Y-95869990D01*
X91844857Y-95917609D01*
X91749619Y-95965228D01*
X91702000Y-96012847D01*
X91654381Y-96108085D01*
X91749619Y-96822371D02*
X91702000Y-96869990D01*
X91654381Y-96965228D01*
X91654381Y-97203324D01*
X91702000Y-97298562D01*
X91749619Y-97346181D01*
X91844857Y-97393800D01*
X91940095Y-97393800D01*
X92082952Y-97346181D01*
X92654381Y-96774752D01*
X92654381Y-97393800D01*
X122150143Y-95552657D02*
X122197762Y-95505038D01*
X122245381Y-95362181D01*
X122245381Y-95266943D01*
X122197762Y-95124085D01*
X122102524Y-95028847D01*
X122007286Y-94981228D01*
X121816810Y-94933609D01*
X121673952Y-94933609D01*
X121483476Y-94981228D01*
X121388238Y-95028847D01*
X121293000Y-95124085D01*
X121245381Y-95266943D01*
X121245381Y-95362181D01*
X121293000Y-95505038D01*
X121340619Y-95552657D01*
X121578714Y-96409800D02*
X122245381Y-96409800D01*
X121197762Y-96171704D02*
X121912048Y-95933609D01*
X121912048Y-96552657D01*
X121245381Y-97124085D02*
X121245381Y-97219324D01*
X121293000Y-97314562D01*
X121340619Y-97362181D01*
X121435857Y-97409800D01*
X121626333Y-97457419D01*
X121864429Y-97457419D01*
X122054905Y-97409800D01*
X122150143Y-97362181D01*
X122197762Y-97314562D01*
X122245381Y-97219324D01*
X122245381Y-97124085D01*
X122197762Y-97028847D01*
X122150143Y-96981228D01*
X122054905Y-96933609D01*
X121864429Y-96885990D01*
X121626333Y-96885990D01*
X121435857Y-96933609D01*
X121340619Y-96981228D01*
X121293000Y-97028847D01*
X121245381Y-97124085D01*
X121245381Y-98362181D02*
X121245381Y-97885990D01*
X121721571Y-97838371D01*
X121673952Y-97885990D01*
X121626333Y-97981228D01*
X121626333Y-98219324D01*
X121673952Y-98314562D01*
X121721571Y-98362181D01*
X121816810Y-98409800D01*
X122054905Y-98409800D01*
X122150143Y-98362181D01*
X122197762Y-98314562D01*
X122245381Y-98219324D01*
X122245381Y-97981228D01*
X122197762Y-97885990D01*
X122150143Y-97838371D01*
X116022381Y-94092228D02*
X115022381Y-94092228D01*
X115022381Y-94330323D01*
X115070000Y-94473181D01*
X115165238Y-94568419D01*
X115260476Y-94616038D01*
X115450952Y-94663657D01*
X115593810Y-94663657D01*
X115784286Y-94616038D01*
X115879524Y-94568419D01*
X115974762Y-94473181D01*
X116022381Y-94330323D01*
X116022381Y-94092228D01*
X115355714Y-95520800D02*
X116022381Y-95520800D01*
X114974762Y-95282704D02*
X115689048Y-95044609D01*
X115689048Y-95663657D01*
X115022381Y-96235085D02*
X115022381Y-96330324D01*
X115070000Y-96425562D01*
X115117619Y-96473181D01*
X115212857Y-96520800D01*
X115403333Y-96568419D01*
X115641429Y-96568419D01*
X115831905Y-96520800D01*
X115927143Y-96473181D01*
X115974762Y-96425562D01*
X116022381Y-96330324D01*
X116022381Y-96235085D01*
X115974762Y-96139847D01*
X115927143Y-96092228D01*
X115831905Y-96044609D01*
X115641429Y-95996990D01*
X115403333Y-95996990D01*
X115212857Y-96044609D01*
X115117619Y-96092228D01*
X115070000Y-96139847D01*
X115022381Y-96235085D01*
X116022381Y-97520800D02*
X116022381Y-96949371D01*
X116022381Y-97235085D02*
X115022381Y-97235085D01*
X115165238Y-97139847D01*
X115260476Y-97044609D01*
X115308095Y-96949371D01*
X119229143Y-94790657D02*
X119276762Y-94743038D01*
X119324381Y-94600181D01*
X119324381Y-94504943D01*
X119276762Y-94362085D01*
X119181524Y-94266847D01*
X119086286Y-94219228D01*
X118895810Y-94171609D01*
X118752952Y-94171609D01*
X118562476Y-94219228D01*
X118467238Y-94266847D01*
X118372000Y-94362085D01*
X118324381Y-94504943D01*
X118324381Y-94600181D01*
X118372000Y-94743038D01*
X118419619Y-94790657D01*
X118657714Y-95647800D02*
X119324381Y-95647800D01*
X118276762Y-95409704D02*
X118991048Y-95171609D01*
X118991048Y-95790657D01*
X118324381Y-96362085D02*
X118324381Y-96457324D01*
X118372000Y-96552562D01*
X118419619Y-96600181D01*
X118514857Y-96647800D01*
X118705333Y-96695419D01*
X118943429Y-96695419D01*
X119133905Y-96647800D01*
X119229143Y-96600181D01*
X119276762Y-96552562D01*
X119324381Y-96457324D01*
X119324381Y-96362085D01*
X119276762Y-96266847D01*
X119229143Y-96219228D01*
X119133905Y-96171609D01*
X118943429Y-96123990D01*
X118705333Y-96123990D01*
X118514857Y-96171609D01*
X118419619Y-96219228D01*
X118372000Y-96266847D01*
X118324381Y-96362085D01*
X119324381Y-97647800D02*
X119324381Y-97076371D01*
X119324381Y-97362085D02*
X118324381Y-97362085D01*
X118467238Y-97266847D01*
X118562476Y-97171609D01*
X118610095Y-97076371D01*
X114625381Y-93965228D02*
X113625381Y-93965228D01*
X113625381Y-94203323D01*
X113673000Y-94346181D01*
X113768238Y-94441419D01*
X113863476Y-94489038D01*
X114053952Y-94536657D01*
X114196810Y-94536657D01*
X114387286Y-94489038D01*
X114482524Y-94441419D01*
X114577762Y-94346181D01*
X114625381Y-94203323D01*
X114625381Y-93965228D01*
X113958714Y-95393800D02*
X114625381Y-95393800D01*
X113577762Y-95155704D02*
X114292048Y-94917609D01*
X114292048Y-95536657D01*
X113625381Y-96108085D02*
X113625381Y-96203324D01*
X113673000Y-96298562D01*
X113720619Y-96346181D01*
X113815857Y-96393800D01*
X114006333Y-96441419D01*
X114244429Y-96441419D01*
X114434905Y-96393800D01*
X114530143Y-96346181D01*
X114577762Y-96298562D01*
X114625381Y-96203324D01*
X114625381Y-96108085D01*
X114577762Y-96012847D01*
X114530143Y-95965228D01*
X114434905Y-95917609D01*
X114244429Y-95869990D01*
X114006333Y-95869990D01*
X113815857Y-95917609D01*
X113720619Y-95965228D01*
X113673000Y-96012847D01*
X113625381Y-96108085D01*
X113720619Y-96822371D02*
X113673000Y-96869990D01*
X113625381Y-96965228D01*
X113625381Y-97203324D01*
X113673000Y-97298562D01*
X113720619Y-97346181D01*
X113815857Y-97393800D01*
X113911095Y-97393800D01*
X114053952Y-97346181D01*
X114625381Y-96774752D01*
X114625381Y-97393800D01*
X117705047Y-105252085D02*
X118038381Y-104775894D01*
X118276476Y-105252085D02*
X118276476Y-104252085D01*
X117895523Y-104252085D01*
X117800285Y-104299704D01*
X117752666Y-104347323D01*
X117705047Y-104442561D01*
X117705047Y-104585418D01*
X117752666Y-104680656D01*
X117800285Y-104728275D01*
X117895523Y-104775894D01*
X118276476Y-104775894D01*
X116847904Y-104585418D02*
X116847904Y-105252085D01*
X117086000Y-104204466D02*
X117324095Y-104918752D01*
X116705047Y-104918752D01*
X116133619Y-104252085D02*
X116038380Y-104252085D01*
X115943142Y-104299704D01*
X115895523Y-104347323D01*
X115847904Y-104442561D01*
X115800285Y-104633037D01*
X115800285Y-104871133D01*
X115847904Y-105061609D01*
X115895523Y-105156847D01*
X115943142Y-105204466D01*
X116038380Y-105252085D01*
X116133619Y-105252085D01*
X116228857Y-105204466D01*
X116276476Y-105156847D01*
X116324095Y-105061609D01*
X116371714Y-104871133D01*
X116371714Y-104633037D01*
X116324095Y-104442561D01*
X116276476Y-104347323D01*
X116228857Y-104299704D01*
X116133619Y-104252085D01*
X115466952Y-104252085D02*
X114847904Y-104252085D01*
X115181238Y-104633037D01*
X115038380Y-104633037D01*
X114943142Y-104680656D01*
X114895523Y-104728275D01*
X114847904Y-104823514D01*
X114847904Y-105061609D01*
X114895523Y-105156847D01*
X114943142Y-105204466D01*
X115038380Y-105252085D01*
X115324095Y-105252085D01*
X115419333Y-105204466D01*
X115466952Y-105156847D01*
X131643381Y-94155657D02*
X131167190Y-93822323D01*
X131643381Y-93584228D02*
X130643381Y-93584228D01*
X130643381Y-93965181D01*
X130691000Y-94060419D01*
X130738619Y-94108038D01*
X130833857Y-94155657D01*
X130976714Y-94155657D01*
X131071952Y-94108038D01*
X131119571Y-94060419D01*
X131167190Y-93965181D01*
X131167190Y-93584228D01*
X130976714Y-95012800D02*
X131643381Y-95012800D01*
X130595762Y-94774704D02*
X131310048Y-94536609D01*
X131310048Y-95155657D01*
X130643381Y-95727085D02*
X130643381Y-95822324D01*
X130691000Y-95917562D01*
X130738619Y-95965181D01*
X130833857Y-96012800D01*
X131024333Y-96060419D01*
X131262429Y-96060419D01*
X131452905Y-96012800D01*
X131548143Y-95965181D01*
X131595762Y-95917562D01*
X131643381Y-95822324D01*
X131643381Y-95727085D01*
X131595762Y-95631847D01*
X131548143Y-95584228D01*
X131452905Y-95536609D01*
X131262429Y-95488990D01*
X131024333Y-95488990D01*
X130833857Y-95536609D01*
X130738619Y-95584228D01*
X130691000Y-95631847D01*
X130643381Y-95727085D01*
X130738619Y-96441371D02*
X130691000Y-96488990D01*
X130643381Y-96584228D01*
X130643381Y-96822324D01*
X130691000Y-96917562D01*
X130738619Y-96965181D01*
X130833857Y-97012800D01*
X130929095Y-97012800D01*
X131071952Y-96965181D01*
X131643381Y-96393752D01*
X131643381Y-97012800D01*
X133834143Y-101902657D02*
X133881762Y-101855038D01*
X133929381Y-101712181D01*
X133929381Y-101616943D01*
X133881762Y-101474085D01*
X133786524Y-101378847D01*
X133691286Y-101331228D01*
X133500810Y-101283609D01*
X133357952Y-101283609D01*
X133167476Y-101331228D01*
X133072238Y-101378847D01*
X132977000Y-101474085D01*
X132929381Y-101616943D01*
X132929381Y-101712181D01*
X132977000Y-101855038D01*
X133024619Y-101902657D01*
X133262714Y-102759800D02*
X133929381Y-102759800D01*
X132881762Y-102521704D02*
X133596048Y-102283609D01*
X133596048Y-102902657D01*
X132929381Y-103474085D02*
X132929381Y-103569324D01*
X132977000Y-103664562D01*
X133024619Y-103712181D01*
X133119857Y-103759800D01*
X133310333Y-103807419D01*
X133548429Y-103807419D01*
X133738905Y-103759800D01*
X133834143Y-103712181D01*
X133881762Y-103664562D01*
X133929381Y-103569324D01*
X133929381Y-103474085D01*
X133881762Y-103378847D01*
X133834143Y-103331228D01*
X133738905Y-103283609D01*
X133548429Y-103235990D01*
X133310333Y-103235990D01*
X133119857Y-103283609D01*
X133024619Y-103331228D01*
X132977000Y-103378847D01*
X132929381Y-103474085D01*
X132929381Y-104664562D02*
X132929381Y-104474085D01*
X132977000Y-104378847D01*
X133024619Y-104331228D01*
X133167476Y-104235990D01*
X133357952Y-104188371D01*
X133738905Y-104188371D01*
X133834143Y-104235990D01*
X133881762Y-104283609D01*
X133929381Y-104378847D01*
X133929381Y-104569324D01*
X133881762Y-104664562D01*
X133834143Y-104712181D01*
X133738905Y-104759800D01*
X133500810Y-104759800D01*
X133405571Y-104712181D01*
X133357952Y-104664562D01*
X133310333Y-104569324D01*
X133310333Y-104378847D01*
X133357952Y-104283609D01*
X133405571Y-104235990D01*
X133500810Y-104188371D01*
X135104143Y-101902657D02*
X135151762Y-101855038D01*
X135199381Y-101712181D01*
X135199381Y-101616943D01*
X135151762Y-101474085D01*
X135056524Y-101378847D01*
X134961286Y-101331228D01*
X134770810Y-101283609D01*
X134627952Y-101283609D01*
X134437476Y-101331228D01*
X134342238Y-101378847D01*
X134247000Y-101474085D01*
X134199381Y-101616943D01*
X134199381Y-101712181D01*
X134247000Y-101855038D01*
X134294619Y-101902657D01*
X134532714Y-102759800D02*
X135199381Y-102759800D01*
X134151762Y-102521704D02*
X134866048Y-102283609D01*
X134866048Y-102902657D01*
X134199381Y-103474085D02*
X134199381Y-103569324D01*
X134247000Y-103664562D01*
X134294619Y-103712181D01*
X134389857Y-103759800D01*
X134580333Y-103807419D01*
X134818429Y-103807419D01*
X135008905Y-103759800D01*
X135104143Y-103712181D01*
X135151762Y-103664562D01*
X135199381Y-103569324D01*
X135199381Y-103474085D01*
X135151762Y-103378847D01*
X135104143Y-103331228D01*
X135008905Y-103283609D01*
X134818429Y-103235990D01*
X134580333Y-103235990D01*
X134389857Y-103283609D01*
X134294619Y-103331228D01*
X134247000Y-103378847D01*
X134199381Y-103474085D01*
X134199381Y-104140752D02*
X134199381Y-104807419D01*
X135199381Y-104378847D01*
X129865381Y-94155657D02*
X129389190Y-93822323D01*
X129865381Y-93584228D02*
X128865381Y-93584228D01*
X128865381Y-93965181D01*
X128913000Y-94060419D01*
X128960619Y-94108038D01*
X129055857Y-94155657D01*
X129198714Y-94155657D01*
X129293952Y-94108038D01*
X129341571Y-94060419D01*
X129389190Y-93965181D01*
X129389190Y-93584228D01*
X129198714Y-95012800D02*
X129865381Y-95012800D01*
X128817762Y-94774704D02*
X129532048Y-94536609D01*
X129532048Y-95155657D01*
X128865381Y-95727085D02*
X128865381Y-95822324D01*
X128913000Y-95917562D01*
X128960619Y-95965181D01*
X129055857Y-96012800D01*
X129246333Y-96060419D01*
X129484429Y-96060419D01*
X129674905Y-96012800D01*
X129770143Y-95965181D01*
X129817762Y-95917562D01*
X129865381Y-95822324D01*
X129865381Y-95727085D01*
X129817762Y-95631847D01*
X129770143Y-95584228D01*
X129674905Y-95536609D01*
X129484429Y-95488990D01*
X129246333Y-95488990D01*
X129055857Y-95536609D01*
X128960619Y-95584228D01*
X128913000Y-95631847D01*
X128865381Y-95727085D01*
X129865381Y-97012800D02*
X129865381Y-96441371D01*
X129865381Y-96727085D02*
X128865381Y-96727085D01*
X129008238Y-96631847D01*
X129103476Y-96536609D01*
X129151095Y-96441371D01*
X119356047Y-106426847D02*
X119403666Y-106474466D01*
X119546523Y-106522085D01*
X119641761Y-106522085D01*
X119784619Y-106474466D01*
X119879857Y-106379228D01*
X119927476Y-106283990D01*
X119975095Y-106093514D01*
X119975095Y-105950656D01*
X119927476Y-105760180D01*
X119879857Y-105664942D01*
X119784619Y-105569704D01*
X119641761Y-105522085D01*
X119546523Y-105522085D01*
X119403666Y-105569704D01*
X119356047Y-105617323D01*
X118498904Y-105855418D02*
X118498904Y-106522085D01*
X118737000Y-105474466D02*
X118975095Y-106188752D01*
X118356047Y-106188752D01*
X117784619Y-105522085D02*
X117689380Y-105522085D01*
X117594142Y-105569704D01*
X117546523Y-105617323D01*
X117498904Y-105712561D01*
X117451285Y-105903037D01*
X117451285Y-106141133D01*
X117498904Y-106331609D01*
X117546523Y-106426847D01*
X117594142Y-106474466D01*
X117689380Y-106522085D01*
X117784619Y-106522085D01*
X117879857Y-106474466D01*
X117927476Y-106426847D01*
X117975095Y-106331609D01*
X118022714Y-106141133D01*
X118022714Y-105903037D01*
X117975095Y-105712561D01*
X117927476Y-105617323D01*
X117879857Y-105569704D01*
X117784619Y-105522085D01*
X116975095Y-106522085D02*
X116784619Y-106522085D01*
X116689380Y-106474466D01*
X116641761Y-106426847D01*
X116546523Y-106283990D01*
X116498904Y-106093514D01*
X116498904Y-105712561D01*
X116546523Y-105617323D01*
X116594142Y-105569704D01*
X116689380Y-105522085D01*
X116879857Y-105522085D01*
X116975095Y-105569704D01*
X117022714Y-105617323D01*
X117070333Y-105712561D01*
X117070333Y-105950656D01*
X117022714Y-106045894D01*
X116975095Y-106093514D01*
X116879857Y-106141133D01*
X116689380Y-106141133D01*
X116594142Y-106093514D01*
X116546523Y-106045894D01*
X116498904Y-105950656D01*
X90019143Y-101902657D02*
X90066762Y-101855038D01*
X90114381Y-101712181D01*
X90114381Y-101616943D01*
X90066762Y-101474085D01*
X89971524Y-101378847D01*
X89876286Y-101331228D01*
X89685810Y-101283609D01*
X89542952Y-101283609D01*
X89352476Y-101331228D01*
X89257238Y-101378847D01*
X89162000Y-101474085D01*
X89114381Y-101616943D01*
X89114381Y-101712181D01*
X89162000Y-101855038D01*
X89209619Y-101902657D01*
X89114381Y-102235990D02*
X89114381Y-102855038D01*
X89495333Y-102521704D01*
X89495333Y-102664562D01*
X89542952Y-102759800D01*
X89590571Y-102807419D01*
X89685810Y-102855038D01*
X89923905Y-102855038D01*
X90019143Y-102807419D01*
X90066762Y-102759800D01*
X90114381Y-102664562D01*
X90114381Y-102378847D01*
X90066762Y-102283609D01*
X90019143Y-102235990D01*
X89114381Y-103474085D02*
X89114381Y-103569324D01*
X89162000Y-103664562D01*
X89209619Y-103712181D01*
X89304857Y-103759800D01*
X89495333Y-103807419D01*
X89733429Y-103807419D01*
X89923905Y-103759800D01*
X90019143Y-103712181D01*
X90066762Y-103664562D01*
X90114381Y-103569324D01*
X90114381Y-103474085D01*
X90066762Y-103378847D01*
X90019143Y-103331228D01*
X89923905Y-103283609D01*
X89733429Y-103235990D01*
X89495333Y-103235990D01*
X89304857Y-103283609D01*
X89209619Y-103331228D01*
X89162000Y-103378847D01*
X89114381Y-103474085D01*
X89114381Y-104664562D02*
X89114381Y-104474085D01*
X89162000Y-104378847D01*
X89209619Y-104331228D01*
X89352476Y-104235990D01*
X89542952Y-104188371D01*
X89923905Y-104188371D01*
X90019143Y-104235990D01*
X90066762Y-104283609D01*
X90114381Y-104378847D01*
X90114381Y-104569324D01*
X90066762Y-104664562D01*
X90019143Y-104712181D01*
X89923905Y-104759800D01*
X89685810Y-104759800D01*
X89590571Y-104712181D01*
X89542952Y-104664562D01*
X89495333Y-104569324D01*
X89495333Y-104378847D01*
X89542952Y-104283609D01*
X89590571Y-104235990D01*
X89685810Y-104188371D01*
X86050381Y-94155657D02*
X85574190Y-93822323D01*
X86050381Y-93584228D02*
X85050381Y-93584228D01*
X85050381Y-93965181D01*
X85098000Y-94060419D01*
X85145619Y-94108038D01*
X85240857Y-94155657D01*
X85383714Y-94155657D01*
X85478952Y-94108038D01*
X85526571Y-94060419D01*
X85574190Y-93965181D01*
X85574190Y-93584228D01*
X85050381Y-94488990D02*
X85050381Y-95108038D01*
X85431333Y-94774704D01*
X85431333Y-94917562D01*
X85478952Y-95012800D01*
X85526571Y-95060419D01*
X85621810Y-95108038D01*
X85859905Y-95108038D01*
X85955143Y-95060419D01*
X86002762Y-95012800D01*
X86050381Y-94917562D01*
X86050381Y-94631847D01*
X86002762Y-94536609D01*
X85955143Y-94488990D01*
X85050381Y-95727085D02*
X85050381Y-95822324D01*
X85098000Y-95917562D01*
X85145619Y-95965181D01*
X85240857Y-96012800D01*
X85431333Y-96060419D01*
X85669429Y-96060419D01*
X85859905Y-96012800D01*
X85955143Y-95965181D01*
X86002762Y-95917562D01*
X86050381Y-95822324D01*
X86050381Y-95727085D01*
X86002762Y-95631847D01*
X85955143Y-95584228D01*
X85859905Y-95536609D01*
X85669429Y-95488990D01*
X85431333Y-95488990D01*
X85240857Y-95536609D01*
X85145619Y-95584228D01*
X85098000Y-95631847D01*
X85050381Y-95727085D01*
X86050381Y-97012800D02*
X86050381Y-96441371D01*
X86050381Y-96727085D02*
X85050381Y-96727085D01*
X85193238Y-96631847D01*
X85288476Y-96536609D01*
X85336095Y-96441371D01*
X87828381Y-94155657D02*
X87352190Y-93822323D01*
X87828381Y-93584228D02*
X86828381Y-93584228D01*
X86828381Y-93965181D01*
X86876000Y-94060419D01*
X86923619Y-94108038D01*
X87018857Y-94155657D01*
X87161714Y-94155657D01*
X87256952Y-94108038D01*
X87304571Y-94060419D01*
X87352190Y-93965181D01*
X87352190Y-93584228D01*
X86828381Y-94488990D02*
X86828381Y-95108038D01*
X87209333Y-94774704D01*
X87209333Y-94917562D01*
X87256952Y-95012800D01*
X87304571Y-95060419D01*
X87399810Y-95108038D01*
X87637905Y-95108038D01*
X87733143Y-95060419D01*
X87780762Y-95012800D01*
X87828381Y-94917562D01*
X87828381Y-94631847D01*
X87780762Y-94536609D01*
X87733143Y-94488990D01*
X86828381Y-95727085D02*
X86828381Y-95822324D01*
X86876000Y-95917562D01*
X86923619Y-95965181D01*
X87018857Y-96012800D01*
X87209333Y-96060419D01*
X87447429Y-96060419D01*
X87637905Y-96012800D01*
X87733143Y-95965181D01*
X87780762Y-95917562D01*
X87828381Y-95822324D01*
X87828381Y-95727085D01*
X87780762Y-95631847D01*
X87733143Y-95584228D01*
X87637905Y-95536609D01*
X87447429Y-95488990D01*
X87209333Y-95488990D01*
X87018857Y-95536609D01*
X86923619Y-95584228D01*
X86876000Y-95631847D01*
X86828381Y-95727085D01*
X86923619Y-96441371D02*
X86876000Y-96488990D01*
X86828381Y-96584228D01*
X86828381Y-96822324D01*
X86876000Y-96917562D01*
X86923619Y-96965181D01*
X87018857Y-97012800D01*
X87114095Y-97012800D01*
X87256952Y-96965181D01*
X87828381Y-96393752D01*
X87828381Y-97012800D01*
X75541047Y-106426847D02*
X75588666Y-106474466D01*
X75731523Y-106522085D01*
X75826761Y-106522085D01*
X75969619Y-106474466D01*
X76064857Y-106379228D01*
X76112476Y-106283990D01*
X76160095Y-106093514D01*
X76160095Y-105950656D01*
X76112476Y-105760180D01*
X76064857Y-105664942D01*
X75969619Y-105569704D01*
X75826761Y-105522085D01*
X75731523Y-105522085D01*
X75588666Y-105569704D01*
X75541047Y-105617323D01*
X75207714Y-105522085D02*
X74588666Y-105522085D01*
X74922000Y-105903037D01*
X74779142Y-105903037D01*
X74683904Y-105950656D01*
X74636285Y-105998275D01*
X74588666Y-106093514D01*
X74588666Y-106331609D01*
X74636285Y-106426847D01*
X74683904Y-106474466D01*
X74779142Y-106522085D01*
X75064857Y-106522085D01*
X75160095Y-106474466D01*
X75207714Y-106426847D01*
X73969619Y-105522085D02*
X73874380Y-105522085D01*
X73779142Y-105569704D01*
X73731523Y-105617323D01*
X73683904Y-105712561D01*
X73636285Y-105903037D01*
X73636285Y-106141133D01*
X73683904Y-106331609D01*
X73731523Y-106426847D01*
X73779142Y-106474466D01*
X73874380Y-106522085D01*
X73969619Y-106522085D01*
X74064857Y-106474466D01*
X74112476Y-106426847D01*
X74160095Y-106331609D01*
X74207714Y-106141133D01*
X74207714Y-105903037D01*
X74160095Y-105712561D01*
X74112476Y-105617323D01*
X74064857Y-105569704D01*
X73969619Y-105522085D01*
X73160095Y-106522085D02*
X72969619Y-106522085D01*
X72874380Y-106474466D01*
X72826761Y-106426847D01*
X72731523Y-106283990D01*
X72683904Y-106093514D01*
X72683904Y-105712561D01*
X72731523Y-105617323D01*
X72779142Y-105569704D01*
X72874380Y-105522085D01*
X73064857Y-105522085D01*
X73160095Y-105569704D01*
X73207714Y-105617323D01*
X73255333Y-105712561D01*
X73255333Y-105950656D01*
X73207714Y-106045894D01*
X73160095Y-106093514D01*
X73064857Y-106141133D01*
X72874380Y-106141133D01*
X72779142Y-106093514D01*
X72731523Y-106045894D01*
X72683904Y-105950656D01*
X91289143Y-101902657D02*
X91336762Y-101855038D01*
X91384381Y-101712181D01*
X91384381Y-101616943D01*
X91336762Y-101474085D01*
X91241524Y-101378847D01*
X91146286Y-101331228D01*
X90955810Y-101283609D01*
X90812952Y-101283609D01*
X90622476Y-101331228D01*
X90527238Y-101378847D01*
X90432000Y-101474085D01*
X90384381Y-101616943D01*
X90384381Y-101712181D01*
X90432000Y-101855038D01*
X90479619Y-101902657D01*
X90384381Y-102235990D02*
X90384381Y-102855038D01*
X90765333Y-102521704D01*
X90765333Y-102664562D01*
X90812952Y-102759800D01*
X90860571Y-102807419D01*
X90955810Y-102855038D01*
X91193905Y-102855038D01*
X91289143Y-102807419D01*
X91336762Y-102759800D01*
X91384381Y-102664562D01*
X91384381Y-102378847D01*
X91336762Y-102283609D01*
X91289143Y-102235990D01*
X90384381Y-103474085D02*
X90384381Y-103569324D01*
X90432000Y-103664562D01*
X90479619Y-103712181D01*
X90574857Y-103759800D01*
X90765333Y-103807419D01*
X91003429Y-103807419D01*
X91193905Y-103759800D01*
X91289143Y-103712181D01*
X91336762Y-103664562D01*
X91384381Y-103569324D01*
X91384381Y-103474085D01*
X91336762Y-103378847D01*
X91289143Y-103331228D01*
X91193905Y-103283609D01*
X91003429Y-103235990D01*
X90765333Y-103235990D01*
X90574857Y-103283609D01*
X90479619Y-103331228D01*
X90432000Y-103378847D01*
X90384381Y-103474085D01*
X90384381Y-104140752D02*
X90384381Y-104807419D01*
X91384381Y-104378847D01*
X75414143Y-94790657D02*
X75461762Y-94743038D01*
X75509381Y-94600181D01*
X75509381Y-94504943D01*
X75461762Y-94362085D01*
X75366524Y-94266847D01*
X75271286Y-94219228D01*
X75080810Y-94171609D01*
X74937952Y-94171609D01*
X74747476Y-94219228D01*
X74652238Y-94266847D01*
X74557000Y-94362085D01*
X74509381Y-94504943D01*
X74509381Y-94600181D01*
X74557000Y-94743038D01*
X74604619Y-94790657D01*
X74509381Y-95123990D02*
X74509381Y-95743038D01*
X74890333Y-95409704D01*
X74890333Y-95552562D01*
X74937952Y-95647800D01*
X74985571Y-95695419D01*
X75080810Y-95743038D01*
X75318905Y-95743038D01*
X75414143Y-95695419D01*
X75461762Y-95647800D01*
X75509381Y-95552562D01*
X75509381Y-95266847D01*
X75461762Y-95171609D01*
X75414143Y-95123990D01*
X74509381Y-96362085D02*
X74509381Y-96457324D01*
X74557000Y-96552562D01*
X74604619Y-96600181D01*
X74699857Y-96647800D01*
X74890333Y-96695419D01*
X75128429Y-96695419D01*
X75318905Y-96647800D01*
X75414143Y-96600181D01*
X75461762Y-96552562D01*
X75509381Y-96457324D01*
X75509381Y-96362085D01*
X75461762Y-96266847D01*
X75414143Y-96219228D01*
X75318905Y-96171609D01*
X75128429Y-96123990D01*
X74890333Y-96123990D01*
X74699857Y-96171609D01*
X74604619Y-96219228D01*
X74557000Y-96266847D01*
X74509381Y-96362085D01*
X75509381Y-97647800D02*
X75509381Y-97076371D01*
X75509381Y-97362085D02*
X74509381Y-97362085D01*
X74652238Y-97266847D01*
X74747476Y-97171609D01*
X74795095Y-97076371D01*
X73890047Y-105252085D02*
X74223381Y-104775894D01*
X74461476Y-105252085D02*
X74461476Y-104252085D01*
X74080523Y-104252085D01*
X73985285Y-104299704D01*
X73937666Y-104347323D01*
X73890047Y-104442561D01*
X73890047Y-104585418D01*
X73937666Y-104680656D01*
X73985285Y-104728275D01*
X74080523Y-104775894D01*
X74461476Y-104775894D01*
X73556714Y-104252085D02*
X72937666Y-104252085D01*
X73271000Y-104633037D01*
X73128142Y-104633037D01*
X73032904Y-104680656D01*
X72985285Y-104728275D01*
X72937666Y-104823514D01*
X72937666Y-105061609D01*
X72985285Y-105156847D01*
X73032904Y-105204466D01*
X73128142Y-105252085D01*
X73413857Y-105252085D01*
X73509095Y-105204466D01*
X73556714Y-105156847D01*
X72318619Y-104252085D02*
X72223380Y-104252085D01*
X72128142Y-104299704D01*
X72080523Y-104347323D01*
X72032904Y-104442561D01*
X71985285Y-104633037D01*
X71985285Y-104871133D01*
X72032904Y-105061609D01*
X72080523Y-105156847D01*
X72128142Y-105204466D01*
X72223380Y-105252085D01*
X72318619Y-105252085D01*
X72413857Y-105204466D01*
X72461476Y-105156847D01*
X72509095Y-105061609D01*
X72556714Y-104871133D01*
X72556714Y-104633037D01*
X72509095Y-104442561D01*
X72461476Y-104347323D01*
X72413857Y-104299704D01*
X72318619Y-104252085D01*
X71651952Y-104252085D02*
X71032904Y-104252085D01*
X71366238Y-104633037D01*
X71223380Y-104633037D01*
X71128142Y-104680656D01*
X71080523Y-104728275D01*
X71032904Y-104823514D01*
X71032904Y-105061609D01*
X71080523Y-105156847D01*
X71128142Y-105204466D01*
X71223380Y-105252085D01*
X71509095Y-105252085D01*
X71604333Y-105204466D01*
X71651952Y-105156847D01*
X70810381Y-93965228D02*
X69810381Y-93965228D01*
X69810381Y-94203323D01*
X69858000Y-94346181D01*
X69953238Y-94441419D01*
X70048476Y-94489038D01*
X70238952Y-94536657D01*
X70381810Y-94536657D01*
X70572286Y-94489038D01*
X70667524Y-94441419D01*
X70762762Y-94346181D01*
X70810381Y-94203323D01*
X70810381Y-93965228D01*
X69810381Y-94869990D02*
X69810381Y-95489038D01*
X70191333Y-95155704D01*
X70191333Y-95298562D01*
X70238952Y-95393800D01*
X70286571Y-95441419D01*
X70381810Y-95489038D01*
X70619905Y-95489038D01*
X70715143Y-95441419D01*
X70762762Y-95393800D01*
X70810381Y-95298562D01*
X70810381Y-95012847D01*
X70762762Y-94917609D01*
X70715143Y-94869990D01*
X69810381Y-96108085D02*
X69810381Y-96203324D01*
X69858000Y-96298562D01*
X69905619Y-96346181D01*
X70000857Y-96393800D01*
X70191333Y-96441419D01*
X70429429Y-96441419D01*
X70619905Y-96393800D01*
X70715143Y-96346181D01*
X70762762Y-96298562D01*
X70810381Y-96203324D01*
X70810381Y-96108085D01*
X70762762Y-96012847D01*
X70715143Y-95965228D01*
X70619905Y-95917609D01*
X70429429Y-95869990D01*
X70191333Y-95869990D01*
X70000857Y-95917609D01*
X69905619Y-95965228D01*
X69858000Y-96012847D01*
X69810381Y-96108085D01*
X69905619Y-96822371D02*
X69858000Y-96869990D01*
X69810381Y-96965228D01*
X69810381Y-97203324D01*
X69858000Y-97298562D01*
X69905619Y-97346181D01*
X70000857Y-97393800D01*
X70096095Y-97393800D01*
X70238952Y-97346181D01*
X70810381Y-96774752D01*
X70810381Y-97393800D01*
X72207381Y-94092228D02*
X71207381Y-94092228D01*
X71207381Y-94330323D01*
X71255000Y-94473181D01*
X71350238Y-94568419D01*
X71445476Y-94616038D01*
X71635952Y-94663657D01*
X71778810Y-94663657D01*
X71969286Y-94616038D01*
X72064524Y-94568419D01*
X72159762Y-94473181D01*
X72207381Y-94330323D01*
X72207381Y-94092228D01*
X71207381Y-94996990D02*
X71207381Y-95616038D01*
X71588333Y-95282704D01*
X71588333Y-95425562D01*
X71635952Y-95520800D01*
X71683571Y-95568419D01*
X71778810Y-95616038D01*
X72016905Y-95616038D01*
X72112143Y-95568419D01*
X72159762Y-95520800D01*
X72207381Y-95425562D01*
X72207381Y-95139847D01*
X72159762Y-95044609D01*
X72112143Y-94996990D01*
X71207381Y-96235085D02*
X71207381Y-96330324D01*
X71255000Y-96425562D01*
X71302619Y-96473181D01*
X71397857Y-96520800D01*
X71588333Y-96568419D01*
X71826429Y-96568419D01*
X72016905Y-96520800D01*
X72112143Y-96473181D01*
X72159762Y-96425562D01*
X72207381Y-96330324D01*
X72207381Y-96235085D01*
X72159762Y-96139847D01*
X72112143Y-96092228D01*
X72016905Y-96044609D01*
X71826429Y-95996990D01*
X71588333Y-95996990D01*
X71397857Y-96044609D01*
X71302619Y-96092228D01*
X71255000Y-96139847D01*
X71207381Y-96235085D01*
X72207381Y-97520800D02*
X72207381Y-96949371D01*
X72207381Y-97235085D02*
X71207381Y-97235085D01*
X71350238Y-97139847D01*
X71445476Y-97044609D01*
X71493095Y-96949371D01*
X78335143Y-95552657D02*
X78382762Y-95505038D01*
X78430381Y-95362181D01*
X78430381Y-95266943D01*
X78382762Y-95124085D01*
X78287524Y-95028847D01*
X78192286Y-94981228D01*
X78001810Y-94933609D01*
X77858952Y-94933609D01*
X77668476Y-94981228D01*
X77573238Y-95028847D01*
X77478000Y-95124085D01*
X77430381Y-95266943D01*
X77430381Y-95362181D01*
X77478000Y-95505038D01*
X77525619Y-95552657D01*
X77430381Y-95885990D02*
X77430381Y-96505038D01*
X77811333Y-96171704D01*
X77811333Y-96314562D01*
X77858952Y-96409800D01*
X77906571Y-96457419D01*
X78001810Y-96505038D01*
X78239905Y-96505038D01*
X78335143Y-96457419D01*
X78382762Y-96409800D01*
X78430381Y-96314562D01*
X78430381Y-96028847D01*
X78382762Y-95933609D01*
X78335143Y-95885990D01*
X77430381Y-97124085D02*
X77430381Y-97219324D01*
X77478000Y-97314562D01*
X77525619Y-97362181D01*
X77620857Y-97409800D01*
X77811333Y-97457419D01*
X78049429Y-97457419D01*
X78239905Y-97409800D01*
X78335143Y-97362181D01*
X78382762Y-97314562D01*
X78430381Y-97219324D01*
X78430381Y-97124085D01*
X78382762Y-97028847D01*
X78335143Y-96981228D01*
X78239905Y-96933609D01*
X78049429Y-96885990D01*
X77811333Y-96885990D01*
X77620857Y-96933609D01*
X77525619Y-96981228D01*
X77478000Y-97028847D01*
X77430381Y-97124085D01*
X77430381Y-98362181D02*
X77430381Y-97885990D01*
X77906571Y-97838371D01*
X77858952Y-97885990D01*
X77811333Y-97981228D01*
X77811333Y-98219324D01*
X77858952Y-98314562D01*
X77906571Y-98362181D01*
X78001810Y-98409800D01*
X78239905Y-98409800D01*
X78335143Y-98362181D01*
X78382762Y-98314562D01*
X78430381Y-98219324D01*
X78430381Y-97981228D01*
X78382762Y-97885990D01*
X78335143Y-97838371D01*
X153265143Y-92352953D02*
X153312762Y-92305334D01*
X153360381Y-92162477D01*
X153360381Y-92067239D01*
X153312762Y-91924381D01*
X153217524Y-91829143D01*
X153122286Y-91781524D01*
X152931810Y-91733905D01*
X152788952Y-91733905D01*
X152598476Y-91781524D01*
X152503238Y-91829143D01*
X152408000Y-91924381D01*
X152360381Y-92067239D01*
X152360381Y-92162477D01*
X152408000Y-92305334D01*
X152455619Y-92352953D01*
X153360381Y-93305334D02*
X153360381Y-92733905D01*
X153360381Y-93019619D02*
X152360381Y-93019619D01*
X152503238Y-92924381D01*
X152598476Y-92829143D01*
X152646095Y-92733905D01*
X152360381Y-93924381D02*
X152360381Y-94019620D01*
X152408000Y-94114858D01*
X152455619Y-94162477D01*
X152550857Y-94210096D01*
X152741333Y-94257715D01*
X152979429Y-94257715D01*
X153169905Y-94210096D01*
X153265143Y-94162477D01*
X153312762Y-94114858D01*
X153360381Y-94019620D01*
X153360381Y-93924381D01*
X153312762Y-93829143D01*
X153265143Y-93781524D01*
X153169905Y-93733905D01*
X152979429Y-93686286D01*
X152741333Y-93686286D01*
X152550857Y-93733905D01*
X152455619Y-93781524D01*
X152408000Y-93829143D01*
X152360381Y-93924381D01*
X153360381Y-95210096D02*
X153360381Y-94638667D01*
X153360381Y-94924381D02*
X152360381Y-94924381D01*
X152503238Y-94829143D01*
X152598476Y-94733905D01*
X152646095Y-94638667D01*
X150598047Y-91416143D02*
X150645666Y-91463762D01*
X150788523Y-91511381D01*
X150883761Y-91511381D01*
X151026619Y-91463762D01*
X151121857Y-91368524D01*
X151169476Y-91273286D01*
X151217095Y-91082810D01*
X151217095Y-90939952D01*
X151169476Y-90749476D01*
X151121857Y-90654238D01*
X151026619Y-90559000D01*
X150883761Y-90511381D01*
X150788523Y-90511381D01*
X150645666Y-90559000D01*
X150598047Y-90606619D01*
X149645666Y-91511381D02*
X150217095Y-91511381D01*
X149931381Y-91511381D02*
X149931381Y-90511381D01*
X150026619Y-90654238D01*
X150121857Y-90749476D01*
X150217095Y-90797095D01*
X149026619Y-90511381D02*
X148931380Y-90511381D01*
X148836142Y-90559000D01*
X148788523Y-90606619D01*
X148740904Y-90701857D01*
X148693285Y-90892333D01*
X148693285Y-91130429D01*
X148740904Y-91320905D01*
X148788523Y-91416143D01*
X148836142Y-91463762D01*
X148931380Y-91511381D01*
X149026619Y-91511381D01*
X149121857Y-91463762D01*
X149169476Y-91416143D01*
X149217095Y-91320905D01*
X149264714Y-91130429D01*
X149264714Y-90892333D01*
X149217095Y-90701857D01*
X149169476Y-90606619D01*
X149121857Y-90559000D01*
X149026619Y-90511381D01*
X148312333Y-90606619D02*
X148264714Y-90559000D01*
X148169476Y-90511381D01*
X147931380Y-90511381D01*
X147836142Y-90559000D01*
X147788523Y-90606619D01*
X147740904Y-90701857D01*
X147740904Y-90797095D01*
X147788523Y-90939952D01*
X148359952Y-91511381D01*
X147740904Y-91511381D01*
X146407143Y-92225953D02*
X146454762Y-92178334D01*
X146502381Y-92035477D01*
X146502381Y-91940239D01*
X146454762Y-91797381D01*
X146359524Y-91702143D01*
X146264286Y-91654524D01*
X146073810Y-91606905D01*
X145930952Y-91606905D01*
X145740476Y-91654524D01*
X145645238Y-91702143D01*
X145550000Y-91797381D01*
X145502381Y-91940239D01*
X145502381Y-92035477D01*
X145550000Y-92178334D01*
X145597619Y-92225953D01*
X146502381Y-93178334D02*
X146502381Y-92606905D01*
X146502381Y-92892619D02*
X145502381Y-92892619D01*
X145645238Y-92797381D01*
X145740476Y-92702143D01*
X145788095Y-92606905D01*
X145502381Y-93797381D02*
X145502381Y-93892620D01*
X145550000Y-93987858D01*
X145597619Y-94035477D01*
X145692857Y-94083096D01*
X145883333Y-94130715D01*
X146121429Y-94130715D01*
X146311905Y-94083096D01*
X146407143Y-94035477D01*
X146454762Y-93987858D01*
X146502381Y-93892620D01*
X146502381Y-93797381D01*
X146454762Y-93702143D01*
X146407143Y-93654524D01*
X146311905Y-93606905D01*
X146121429Y-93559286D01*
X145883333Y-93559286D01*
X145692857Y-93606905D01*
X145597619Y-93654524D01*
X145550000Y-93702143D01*
X145502381Y-93797381D01*
X145502381Y-94464048D02*
X145502381Y-95083096D01*
X145883333Y-94749762D01*
X145883333Y-94892620D01*
X145930952Y-94987858D01*
X145978571Y-95035477D01*
X146073810Y-95083096D01*
X146311905Y-95083096D01*
X146407143Y-95035477D01*
X146454762Y-94987858D01*
X146502381Y-94892620D01*
X146502381Y-94606905D01*
X146454762Y-94511667D01*
X146407143Y-94464048D01*
X161456476Y-102433381D02*
X161456476Y-101433381D01*
X161218381Y-101433381D01*
X161075523Y-101481000D01*
X160980285Y-101576238D01*
X160932666Y-101671476D01*
X160885047Y-101861952D01*
X160885047Y-102004810D01*
X160932666Y-102195286D01*
X160980285Y-102290524D01*
X161075523Y-102385762D01*
X161218381Y-102433381D01*
X161456476Y-102433381D01*
X159932666Y-102433381D02*
X160504095Y-102433381D01*
X160218381Y-102433381D02*
X160218381Y-101433381D01*
X160313619Y-101576238D01*
X160408857Y-101671476D01*
X160504095Y-101719095D01*
X159313619Y-101433381D02*
X159218380Y-101433381D01*
X159123142Y-101481000D01*
X159075523Y-101528619D01*
X159027904Y-101623857D01*
X158980285Y-101814333D01*
X158980285Y-102052429D01*
X159027904Y-102242905D01*
X159075523Y-102338143D01*
X159123142Y-102385762D01*
X159218380Y-102433381D01*
X159313619Y-102433381D01*
X159408857Y-102385762D01*
X159456476Y-102338143D01*
X159504095Y-102242905D01*
X159551714Y-102052429D01*
X159551714Y-101814333D01*
X159504095Y-101623857D01*
X159456476Y-101528619D01*
X159408857Y-101481000D01*
X159313619Y-101433381D01*
X158027904Y-102433381D02*
X158599333Y-102433381D01*
X158313619Y-102433381D02*
X158313619Y-101433381D01*
X158408857Y-101576238D01*
X158504095Y-101671476D01*
X158599333Y-101719095D01*
X151836381Y-98575953D02*
X151360190Y-98242619D01*
X151836381Y-98004524D02*
X150836381Y-98004524D01*
X150836381Y-98385477D01*
X150884000Y-98480715D01*
X150931619Y-98528334D01*
X151026857Y-98575953D01*
X151169714Y-98575953D01*
X151264952Y-98528334D01*
X151312571Y-98480715D01*
X151360190Y-98385477D01*
X151360190Y-98004524D01*
X151836381Y-99528334D02*
X151836381Y-98956905D01*
X151836381Y-99242619D02*
X150836381Y-99242619D01*
X150979238Y-99147381D01*
X151074476Y-99052143D01*
X151122095Y-98956905D01*
X150836381Y-100147381D02*
X150836381Y-100242620D01*
X150884000Y-100337858D01*
X150931619Y-100385477D01*
X151026857Y-100433096D01*
X151217333Y-100480715D01*
X151455429Y-100480715D01*
X151645905Y-100433096D01*
X151741143Y-100385477D01*
X151788762Y-100337858D01*
X151836381Y-100242620D01*
X151836381Y-100147381D01*
X151788762Y-100052143D01*
X151741143Y-100004524D01*
X151645905Y-99956905D01*
X151455429Y-99909286D01*
X151217333Y-99909286D01*
X151026857Y-99956905D01*
X150931619Y-100004524D01*
X150884000Y-100052143D01*
X150836381Y-100147381D01*
X151836381Y-101433096D02*
X151836381Y-100861667D01*
X151836381Y-101147381D02*
X150836381Y-101147381D01*
X150979238Y-101052143D01*
X151074476Y-100956905D01*
X151122095Y-100861667D01*
X149931381Y-98575953D02*
X149455190Y-98242619D01*
X149931381Y-98004524D02*
X148931381Y-98004524D01*
X148931381Y-98385477D01*
X148979000Y-98480715D01*
X149026619Y-98528334D01*
X149121857Y-98575953D01*
X149264714Y-98575953D01*
X149359952Y-98528334D01*
X149407571Y-98480715D01*
X149455190Y-98385477D01*
X149455190Y-98004524D01*
X149931381Y-99528334D02*
X149931381Y-98956905D01*
X149931381Y-99242619D02*
X148931381Y-99242619D01*
X149074238Y-99147381D01*
X149169476Y-99052143D01*
X149217095Y-98956905D01*
X148931381Y-100147381D02*
X148931381Y-100242620D01*
X148979000Y-100337858D01*
X149026619Y-100385477D01*
X149121857Y-100433096D01*
X149312333Y-100480715D01*
X149550429Y-100480715D01*
X149740905Y-100433096D01*
X149836143Y-100385477D01*
X149883762Y-100337858D01*
X149931381Y-100242620D01*
X149931381Y-100147381D01*
X149883762Y-100052143D01*
X149836143Y-100004524D01*
X149740905Y-99956905D01*
X149550429Y-99909286D01*
X149312333Y-99909286D01*
X149121857Y-99956905D01*
X149026619Y-100004524D01*
X148979000Y-100052143D01*
X148931381Y-100147381D01*
X149026619Y-100861667D02*
X148979000Y-100909286D01*
X148931381Y-101004524D01*
X148931381Y-101242620D01*
X148979000Y-101337858D01*
X149026619Y-101385477D01*
X149121857Y-101433096D01*
X149217095Y-101433096D01*
X149359952Y-101385477D01*
X149931381Y-100814048D01*
X149931381Y-101433096D01*
X148026381Y-98575953D02*
X147550190Y-98242619D01*
X148026381Y-98004524D02*
X147026381Y-98004524D01*
X147026381Y-98385477D01*
X147074000Y-98480715D01*
X147121619Y-98528334D01*
X147216857Y-98575953D01*
X147359714Y-98575953D01*
X147454952Y-98528334D01*
X147502571Y-98480715D01*
X147550190Y-98385477D01*
X147550190Y-98004524D01*
X148026381Y-99528334D02*
X148026381Y-98956905D01*
X148026381Y-99242619D02*
X147026381Y-99242619D01*
X147169238Y-99147381D01*
X147264476Y-99052143D01*
X147312095Y-98956905D01*
X147026381Y-100147381D02*
X147026381Y-100242620D01*
X147074000Y-100337858D01*
X147121619Y-100385477D01*
X147216857Y-100433096D01*
X147407333Y-100480715D01*
X147645429Y-100480715D01*
X147835905Y-100433096D01*
X147931143Y-100385477D01*
X147978762Y-100337858D01*
X148026381Y-100242620D01*
X148026381Y-100147381D01*
X147978762Y-100052143D01*
X147931143Y-100004524D01*
X147835905Y-99956905D01*
X147645429Y-99909286D01*
X147407333Y-99909286D01*
X147216857Y-99956905D01*
X147121619Y-100004524D01*
X147074000Y-100052143D01*
X147026381Y-100147381D01*
X147026381Y-100814048D02*
X147026381Y-101433096D01*
X147407333Y-101099762D01*
X147407333Y-101242620D01*
X147454952Y-101337858D01*
X147502571Y-101385477D01*
X147597810Y-101433096D01*
X147835905Y-101433096D01*
X147931143Y-101385477D01*
X147978762Y-101337858D01*
X148026381Y-101242620D01*
X148026381Y-100956905D01*
X147978762Y-100861667D01*
X147931143Y-100814048D01*
X164536381Y-104290953D02*
X164060190Y-103957619D01*
X164536381Y-103719524D02*
X163536381Y-103719524D01*
X163536381Y-104100477D01*
X163584000Y-104195715D01*
X163631619Y-104243334D01*
X163726857Y-104290953D01*
X163869714Y-104290953D01*
X163964952Y-104243334D01*
X164012571Y-104195715D01*
X164060190Y-104100477D01*
X164060190Y-103719524D01*
X164536381Y-105243334D02*
X164536381Y-104671905D01*
X164536381Y-104957619D02*
X163536381Y-104957619D01*
X163679238Y-104862381D01*
X163774476Y-104767143D01*
X163822095Y-104671905D01*
X163536381Y-105862381D02*
X163536381Y-105957620D01*
X163584000Y-106052858D01*
X163631619Y-106100477D01*
X163726857Y-106148096D01*
X163917333Y-106195715D01*
X164155429Y-106195715D01*
X164345905Y-106148096D01*
X164441143Y-106100477D01*
X164488762Y-106052858D01*
X164536381Y-105957620D01*
X164536381Y-105862381D01*
X164488762Y-105767143D01*
X164441143Y-105719524D01*
X164345905Y-105671905D01*
X164155429Y-105624286D01*
X163917333Y-105624286D01*
X163726857Y-105671905D01*
X163631619Y-105719524D01*
X163584000Y-105767143D01*
X163536381Y-105862381D01*
X163869714Y-107052858D02*
X164536381Y-107052858D01*
X163488762Y-106814762D02*
X164203048Y-106576667D01*
X164203048Y-107195715D01*
X156694047Y-110053381D02*
X157027381Y-109577190D01*
X157265476Y-110053381D02*
X157265476Y-109053381D01*
X156884523Y-109053381D01*
X156789285Y-109101000D01*
X156741666Y-109148619D01*
X156694047Y-109243857D01*
X156694047Y-109386714D01*
X156741666Y-109481952D01*
X156789285Y-109529571D01*
X156884523Y-109577190D01*
X157265476Y-109577190D01*
X155741666Y-110053381D02*
X156313095Y-110053381D01*
X156027381Y-110053381D02*
X156027381Y-109053381D01*
X156122619Y-109196238D01*
X156217857Y-109291476D01*
X156313095Y-109339095D01*
X155122619Y-109053381D02*
X155027380Y-109053381D01*
X154932142Y-109101000D01*
X154884523Y-109148619D01*
X154836904Y-109243857D01*
X154789285Y-109434333D01*
X154789285Y-109672429D01*
X154836904Y-109862905D01*
X154884523Y-109958143D01*
X154932142Y-110005762D01*
X155027380Y-110053381D01*
X155122619Y-110053381D01*
X155217857Y-110005762D01*
X155265476Y-109958143D01*
X155313095Y-109862905D01*
X155360714Y-109672429D01*
X155360714Y-109434333D01*
X155313095Y-109243857D01*
X155265476Y-109148619D01*
X155217857Y-109101000D01*
X155122619Y-109053381D01*
X153884523Y-109053381D02*
X154360714Y-109053381D01*
X154408333Y-109529571D01*
X154360714Y-109481952D01*
X154265476Y-109434333D01*
X154027380Y-109434333D01*
X153932142Y-109481952D01*
X153884523Y-109529571D01*
X153836904Y-109624810D01*
X153836904Y-109862905D01*
X153884523Y-109958143D01*
X153932142Y-110005762D01*
X154027380Y-110053381D01*
X154265476Y-110053381D01*
X154360714Y-110005762D01*
X154408333Y-109958143D01*
X163933047Y-95892881D02*
X164266381Y-95416690D01*
X164504476Y-95892881D02*
X164504476Y-94892881D01*
X164123523Y-94892881D01*
X164028285Y-94940500D01*
X163980666Y-94988119D01*
X163933047Y-95083357D01*
X163933047Y-95226214D01*
X163980666Y-95321452D01*
X164028285Y-95369071D01*
X164123523Y-95416690D01*
X164504476Y-95416690D01*
X162980666Y-95892881D02*
X163552095Y-95892881D01*
X163266381Y-95892881D02*
X163266381Y-94892881D01*
X163361619Y-95035738D01*
X163456857Y-95130976D01*
X163552095Y-95178595D01*
X162361619Y-94892881D02*
X162266380Y-94892881D01*
X162171142Y-94940500D01*
X162123523Y-94988119D01*
X162075904Y-95083357D01*
X162028285Y-95273833D01*
X162028285Y-95511929D01*
X162075904Y-95702405D01*
X162123523Y-95797643D01*
X162171142Y-95845262D01*
X162266380Y-95892881D01*
X162361619Y-95892881D01*
X162456857Y-95845262D01*
X162504476Y-95797643D01*
X162552095Y-95702405D01*
X162599714Y-95511929D01*
X162599714Y-95273833D01*
X162552095Y-95083357D01*
X162504476Y-94988119D01*
X162456857Y-94940500D01*
X162361619Y-94892881D01*
X161171142Y-94892881D02*
X161361619Y-94892881D01*
X161456857Y-94940500D01*
X161504476Y-94988119D01*
X161599714Y-95130976D01*
X161647333Y-95321452D01*
X161647333Y-95702405D01*
X161599714Y-95797643D01*
X161552095Y-95845262D01*
X161456857Y-95892881D01*
X161266380Y-95892881D01*
X161171142Y-95845262D01*
X161123523Y-95797643D01*
X161075904Y-95702405D01*
X161075904Y-95464310D01*
X161123523Y-95369071D01*
X161171142Y-95321452D01*
X161266380Y-95273833D01*
X161456857Y-95273833D01*
X161552095Y-95321452D01*
X161599714Y-95369071D01*
X161647333Y-95464310D01*
X164536381Y-98702953D02*
X164060190Y-98369619D01*
X164536381Y-98131524D02*
X163536381Y-98131524D01*
X163536381Y-98512477D01*
X163584000Y-98607715D01*
X163631619Y-98655334D01*
X163726857Y-98702953D01*
X163869714Y-98702953D01*
X163964952Y-98655334D01*
X164012571Y-98607715D01*
X164060190Y-98512477D01*
X164060190Y-98131524D01*
X164536381Y-99655334D02*
X164536381Y-99083905D01*
X164536381Y-99369619D02*
X163536381Y-99369619D01*
X163679238Y-99274381D01*
X163774476Y-99179143D01*
X163822095Y-99083905D01*
X163536381Y-100274381D02*
X163536381Y-100369620D01*
X163584000Y-100464858D01*
X163631619Y-100512477D01*
X163726857Y-100560096D01*
X163917333Y-100607715D01*
X164155429Y-100607715D01*
X164345905Y-100560096D01*
X164441143Y-100512477D01*
X164488762Y-100464858D01*
X164536381Y-100369620D01*
X164536381Y-100274381D01*
X164488762Y-100179143D01*
X164441143Y-100131524D01*
X164345905Y-100083905D01*
X164155429Y-100036286D01*
X163917333Y-100036286D01*
X163726857Y-100083905D01*
X163631619Y-100131524D01*
X163584000Y-100179143D01*
X163536381Y-100274381D01*
X163536381Y-100941048D02*
X163536381Y-101607715D01*
X164536381Y-101179143D01*
X157964047Y-94432381D02*
X158297381Y-93956190D01*
X158535476Y-94432381D02*
X158535476Y-93432381D01*
X158154523Y-93432381D01*
X158059285Y-93480000D01*
X158011666Y-93527619D01*
X157964047Y-93622857D01*
X157964047Y-93765714D01*
X158011666Y-93860952D01*
X158059285Y-93908571D01*
X158154523Y-93956190D01*
X158535476Y-93956190D01*
X157011666Y-94432381D02*
X157583095Y-94432381D01*
X157297381Y-94432381D02*
X157297381Y-93432381D01*
X157392619Y-93575238D01*
X157487857Y-93670476D01*
X157583095Y-93718095D01*
X156392619Y-93432381D02*
X156297380Y-93432381D01*
X156202142Y-93480000D01*
X156154523Y-93527619D01*
X156106904Y-93622857D01*
X156059285Y-93813333D01*
X156059285Y-94051429D01*
X156106904Y-94241905D01*
X156154523Y-94337143D01*
X156202142Y-94384762D01*
X156297380Y-94432381D01*
X156392619Y-94432381D01*
X156487857Y-94384762D01*
X156535476Y-94337143D01*
X156583095Y-94241905D01*
X156630714Y-94051429D01*
X156630714Y-93813333D01*
X156583095Y-93622857D01*
X156535476Y-93527619D01*
X156487857Y-93480000D01*
X156392619Y-93432381D01*
X155487857Y-93860952D02*
X155583095Y-93813333D01*
X155630714Y-93765714D01*
X155678333Y-93670476D01*
X155678333Y-93622857D01*
X155630714Y-93527619D01*
X155583095Y-93480000D01*
X155487857Y-93432381D01*
X155297380Y-93432381D01*
X155202142Y-93480000D01*
X155154523Y-93527619D01*
X155106904Y-93622857D01*
X155106904Y-93670476D01*
X155154523Y-93765714D01*
X155202142Y-93813333D01*
X155297380Y-93860952D01*
X155487857Y-93860952D01*
X155583095Y-93908571D01*
X155630714Y-93956190D01*
X155678333Y-94051429D01*
X155678333Y-94241905D01*
X155630714Y-94337143D01*
X155583095Y-94384762D01*
X155487857Y-94432381D01*
X155297380Y-94432381D01*
X155202142Y-94384762D01*
X155154523Y-94337143D01*
X155106904Y-94241905D01*
X155106904Y-94051429D01*
X155154523Y-93956190D01*
X155202142Y-93908571D01*
X155297380Y-93860952D01*
X136615347Y-111259881D02*
X136948681Y-110783690D01*
X137186776Y-111259881D02*
X137186776Y-110259881D01*
X136805823Y-110259881D01*
X136710585Y-110307500D01*
X136662966Y-110355119D01*
X136615347Y-110450357D01*
X136615347Y-110593214D01*
X136662966Y-110688452D01*
X136710585Y-110736071D01*
X136805823Y-110783690D01*
X137186776Y-110783690D01*
X135662966Y-111259881D02*
X136234395Y-111259881D01*
X135948681Y-111259881D02*
X135948681Y-110259881D01*
X136043919Y-110402738D01*
X136139157Y-110497976D01*
X136234395Y-110545595D01*
X135043919Y-110259881D02*
X134948680Y-110259881D01*
X134853442Y-110307500D01*
X134805823Y-110355119D01*
X134758204Y-110450357D01*
X134710585Y-110640833D01*
X134710585Y-110878929D01*
X134758204Y-111069405D01*
X134805823Y-111164643D01*
X134853442Y-111212262D01*
X134948680Y-111259881D01*
X135043919Y-111259881D01*
X135139157Y-111212262D01*
X135186776Y-111164643D01*
X135234395Y-111069405D01*
X135282014Y-110878929D01*
X135282014Y-110640833D01*
X135234395Y-110450357D01*
X135186776Y-110355119D01*
X135139157Y-110307500D01*
X135043919Y-110259881D01*
X134234395Y-111259881D02*
X134043919Y-111259881D01*
X133948680Y-111212262D01*
X133901061Y-111164643D01*
X133805823Y-111021786D01*
X133758204Y-110831310D01*
X133758204Y-110450357D01*
X133805823Y-110355119D01*
X133853442Y-110307500D01*
X133948680Y-110259881D01*
X134139157Y-110259881D01*
X134234395Y-110307500D01*
X134282014Y-110355119D01*
X134329633Y-110450357D01*
X134329633Y-110688452D01*
X134282014Y-110783690D01*
X134234395Y-110831310D01*
X134139157Y-110878929D01*
X133948680Y-110878929D01*
X133853442Y-110831310D01*
X133805823Y-110783690D01*
X133758204Y-110688452D01*
X144095647Y-91465581D02*
X144428981Y-90989390D01*
X144667076Y-91465581D02*
X144667076Y-90465581D01*
X144286123Y-90465581D01*
X144190885Y-90513200D01*
X144143266Y-90560819D01*
X144095647Y-90656057D01*
X144095647Y-90798914D01*
X144143266Y-90894152D01*
X144190885Y-90941771D01*
X144286123Y-90989390D01*
X144667076Y-90989390D01*
X143143266Y-91465581D02*
X143714695Y-91465581D01*
X143428981Y-91465581D02*
X143428981Y-90465581D01*
X143524219Y-90608438D01*
X143619457Y-90703676D01*
X143714695Y-90751295D01*
X142190885Y-91465581D02*
X142762314Y-91465581D01*
X142476600Y-91465581D02*
X142476600Y-90465581D01*
X142571838Y-90608438D01*
X142667076Y-90703676D01*
X142762314Y-90751295D01*
X141571838Y-90465581D02*
X141476599Y-90465581D01*
X141381361Y-90513200D01*
X141333742Y-90560819D01*
X141286123Y-90656057D01*
X141238504Y-90846533D01*
X141238504Y-91084629D01*
X141286123Y-91275105D01*
X141333742Y-91370343D01*
X141381361Y-91417962D01*
X141476599Y-91465581D01*
X141571838Y-91465581D01*
X141667076Y-91417962D01*
X141714695Y-91370343D01*
X141762314Y-91275105D01*
X141809933Y-91084629D01*
X141809933Y-90846533D01*
X141762314Y-90656057D01*
X141714695Y-90560819D01*
X141667076Y-90513200D01*
X141571838Y-90465581D01*
X132513247Y-112034581D02*
X132846581Y-111558390D01*
X133084676Y-112034581D02*
X133084676Y-111034581D01*
X132703723Y-111034581D01*
X132608485Y-111082200D01*
X132560866Y-111129819D01*
X132513247Y-111225057D01*
X132513247Y-111367914D01*
X132560866Y-111463152D01*
X132608485Y-111510771D01*
X132703723Y-111558390D01*
X133084676Y-111558390D01*
X131560866Y-112034581D02*
X132132295Y-112034581D01*
X131846581Y-112034581D02*
X131846581Y-111034581D01*
X131941819Y-111177438D01*
X132037057Y-111272676D01*
X132132295Y-111320295D01*
X130608485Y-112034581D02*
X131179914Y-112034581D01*
X130894200Y-112034581D02*
X130894200Y-111034581D01*
X130989438Y-111177438D01*
X131084676Y-111272676D01*
X131179914Y-111320295D01*
X130227533Y-111129819D02*
X130179914Y-111082200D01*
X130084676Y-111034581D01*
X129846580Y-111034581D01*
X129751342Y-111082200D01*
X129703723Y-111129819D01*
X129656104Y-111225057D01*
X129656104Y-111320295D01*
X129703723Y-111463152D01*
X130275152Y-112034581D01*
X129656104Y-112034581D01*
X138964847Y-91465581D02*
X139298181Y-90989390D01*
X139536276Y-91465581D02*
X139536276Y-90465581D01*
X139155323Y-90465581D01*
X139060085Y-90513200D01*
X139012466Y-90560819D01*
X138964847Y-90656057D01*
X138964847Y-90798914D01*
X139012466Y-90894152D01*
X139060085Y-90941771D01*
X139155323Y-90989390D01*
X139536276Y-90989390D01*
X138012466Y-91465581D02*
X138583895Y-91465581D01*
X138298181Y-91465581D02*
X138298181Y-90465581D01*
X138393419Y-90608438D01*
X138488657Y-90703676D01*
X138583895Y-90751295D01*
X137060085Y-91465581D02*
X137631514Y-91465581D01*
X137345800Y-91465581D02*
X137345800Y-90465581D01*
X137441038Y-90608438D01*
X137536276Y-90703676D01*
X137631514Y-90751295D01*
X136726752Y-90465581D02*
X136107704Y-90465581D01*
X136441038Y-90846533D01*
X136298180Y-90846533D01*
X136202942Y-90894152D01*
X136155323Y-90941771D01*
X136107704Y-91037010D01*
X136107704Y-91275105D01*
X136155323Y-91370343D01*
X136202942Y-91417962D01*
X136298180Y-91465581D01*
X136583895Y-91465581D01*
X136679133Y-91417962D01*
X136726752Y-91370343D01*
M02*
