G04 #@! TF.FileFunction,Legend,Top*
%FSLAX46Y46*%
G04 Gerber Fmt 4.6, Leading zero omitted, Abs format (unit mm)*
G04 Created by KiCad (PCBNEW 4.0.0-rc1-stable) date 2/20/2017 10:27:06 PM*
%MOMM*%
G01*
G04 APERTURE LIST*
%ADD10C,0.100000*%
%ADD11C,0.177800*%
%ADD12C,0.300000*%
%ADD13C,0.150000*%
G04 APERTURE END LIST*
D10*
D11*
X130076424Y-90821329D02*
X129737758Y-90821329D01*
X129737758Y-91353519D02*
X129737758Y-90337519D01*
X130221567Y-90337519D01*
X131044043Y-91353519D02*
X131044043Y-90821329D01*
X130995662Y-90724567D01*
X130898900Y-90676186D01*
X130705377Y-90676186D01*
X130608615Y-90724567D01*
X131044043Y-91305138D02*
X130947281Y-91353519D01*
X130705377Y-91353519D01*
X130608615Y-91305138D01*
X130560234Y-91208376D01*
X130560234Y-91111614D01*
X130608615Y-91014852D01*
X130705377Y-90966471D01*
X130947281Y-90966471D01*
X131044043Y-90918090D01*
X131963281Y-90676186D02*
X131963281Y-91353519D01*
X131527853Y-90676186D02*
X131527853Y-91208376D01*
X131576234Y-91305138D01*
X131672996Y-91353519D01*
X131818138Y-91353519D01*
X131914900Y-91305138D01*
X131963281Y-91256757D01*
X132398710Y-91305138D02*
X132495472Y-91353519D01*
X132688996Y-91353519D01*
X132785757Y-91305138D01*
X132834138Y-91208376D01*
X132834138Y-91159995D01*
X132785757Y-91063233D01*
X132688996Y-91014852D01*
X132543853Y-91014852D01*
X132447091Y-90966471D01*
X132398710Y-90869710D01*
X132398710Y-90821329D01*
X132447091Y-90724567D01*
X132543853Y-90676186D01*
X132688996Y-90676186D01*
X132785757Y-90724567D01*
X133124424Y-90676186D02*
X133511472Y-90676186D01*
X133269567Y-90337519D02*
X133269567Y-91208376D01*
X133317948Y-91305138D01*
X133414710Y-91353519D01*
X133511472Y-91353519D01*
X135108042Y-91353519D02*
X134624233Y-91353519D01*
X134624233Y-90337519D01*
X135446709Y-91353519D02*
X135446709Y-90676186D01*
X135446709Y-90337519D02*
X135398328Y-90385900D01*
X135446709Y-90434281D01*
X135495090Y-90385900D01*
X135446709Y-90337519D01*
X135446709Y-90434281D01*
X136365947Y-90676186D02*
X136365947Y-91498662D01*
X136317566Y-91595424D01*
X136269185Y-91643805D01*
X136172424Y-91692186D01*
X136027281Y-91692186D01*
X135930519Y-91643805D01*
X136365947Y-91305138D02*
X136269185Y-91353519D01*
X136075662Y-91353519D01*
X135978900Y-91305138D01*
X135930519Y-91256757D01*
X135882138Y-91159995D01*
X135882138Y-90869710D01*
X135930519Y-90772948D01*
X135978900Y-90724567D01*
X136075662Y-90676186D01*
X136269185Y-90676186D01*
X136365947Y-90724567D01*
X136849757Y-91353519D02*
X136849757Y-90337519D01*
X137285185Y-91353519D02*
X137285185Y-90821329D01*
X137236804Y-90724567D01*
X137140042Y-90676186D01*
X136994900Y-90676186D01*
X136898138Y-90724567D01*
X136849757Y-90772948D01*
X137623852Y-90676186D02*
X138010900Y-90676186D01*
X137768995Y-90337519D02*
X137768995Y-91208376D01*
X137817376Y-91305138D01*
X137914138Y-91353519D01*
X138010900Y-91353519D01*
X138349566Y-91353519D02*
X138349566Y-90676186D01*
X138349566Y-90337519D02*
X138301185Y-90385900D01*
X138349566Y-90434281D01*
X138397947Y-90385900D01*
X138349566Y-90337519D01*
X138349566Y-90434281D01*
X138833376Y-90676186D02*
X138833376Y-91353519D01*
X138833376Y-90772948D02*
X138881757Y-90724567D01*
X138978519Y-90676186D01*
X139123661Y-90676186D01*
X139220423Y-90724567D01*
X139268804Y-90821329D01*
X139268804Y-91353519D01*
X140188042Y-90676186D02*
X140188042Y-91498662D01*
X140139661Y-91595424D01*
X140091280Y-91643805D01*
X139994519Y-91692186D01*
X139849376Y-91692186D01*
X139752614Y-91643805D01*
X140188042Y-91305138D02*
X140091280Y-91353519D01*
X139897757Y-91353519D01*
X139800995Y-91305138D01*
X139752614Y-91256757D01*
X139704233Y-91159995D01*
X139704233Y-90869710D01*
X139752614Y-90772948D01*
X139800995Y-90724567D01*
X139897757Y-90676186D01*
X140091280Y-90676186D01*
X140188042Y-90724567D01*
X131189187Y-91937719D02*
X131818139Y-91937719D01*
X131479473Y-92324767D01*
X131624615Y-92324767D01*
X131721377Y-92373148D01*
X131769758Y-92421529D01*
X131818139Y-92518290D01*
X131818139Y-92760195D01*
X131769758Y-92856957D01*
X131721377Y-92905338D01*
X131624615Y-92953719D01*
X131334330Y-92953719D01*
X131237568Y-92905338D01*
X131189187Y-92856957D01*
X133608234Y-92856957D02*
X133559853Y-92905338D01*
X133414710Y-92953719D01*
X133317948Y-92953719D01*
X133172806Y-92905338D01*
X133076044Y-92808576D01*
X133027663Y-92711814D01*
X132979282Y-92518290D01*
X132979282Y-92373148D01*
X133027663Y-92179624D01*
X133076044Y-92082862D01*
X133172806Y-91986100D01*
X133317948Y-91937719D01*
X133414710Y-91937719D01*
X133559853Y-91986100D01*
X133608234Y-92034481D01*
X134043663Y-92953719D02*
X134043663Y-91937719D01*
X134479091Y-92953719D02*
X134479091Y-92421529D01*
X134430710Y-92324767D01*
X134333948Y-92276386D01*
X134188806Y-92276386D01*
X134092044Y-92324767D01*
X134043663Y-92373148D01*
X135398329Y-92953719D02*
X135398329Y-92421529D01*
X135349948Y-92324767D01*
X135253186Y-92276386D01*
X135059663Y-92276386D01*
X134962901Y-92324767D01*
X135398329Y-92905338D02*
X135301567Y-92953719D01*
X135059663Y-92953719D01*
X134962901Y-92905338D01*
X134914520Y-92808576D01*
X134914520Y-92711814D01*
X134962901Y-92615052D01*
X135059663Y-92566671D01*
X135301567Y-92566671D01*
X135398329Y-92518290D01*
X135882139Y-92276386D02*
X135882139Y-92953719D01*
X135882139Y-92373148D02*
X135930520Y-92324767D01*
X136027282Y-92276386D01*
X136172424Y-92276386D01*
X136269186Y-92324767D01*
X136317567Y-92421529D01*
X136317567Y-92953719D01*
X136801377Y-92276386D02*
X136801377Y-92953719D01*
X136801377Y-92373148D02*
X136849758Y-92324767D01*
X136946520Y-92276386D01*
X137091662Y-92276386D01*
X137188424Y-92324767D01*
X137236805Y-92421529D01*
X137236805Y-92953719D01*
X138107662Y-92905338D02*
X138010900Y-92953719D01*
X137817377Y-92953719D01*
X137720615Y-92905338D01*
X137672234Y-92808576D01*
X137672234Y-92421529D01*
X137720615Y-92324767D01*
X137817377Y-92276386D01*
X138010900Y-92276386D01*
X138107662Y-92324767D01*
X138156043Y-92421529D01*
X138156043Y-92518290D01*
X137672234Y-92615052D01*
X138736615Y-92953719D02*
X138639853Y-92905338D01*
X138591472Y-92808576D01*
X138591472Y-91937719D01*
X129882901Y-93634681D02*
X129931282Y-93586300D01*
X130028044Y-93537919D01*
X130269948Y-93537919D01*
X130366710Y-93586300D01*
X130415091Y-93634681D01*
X130463472Y-93731443D01*
X130463472Y-93828205D01*
X130415091Y-93973348D01*
X129834520Y-94553919D01*
X130463472Y-94553919D01*
X130850520Y-94263633D02*
X131334329Y-94263633D01*
X130753758Y-94553919D02*
X131092425Y-93537919D01*
X131431091Y-94553919D01*
X133027662Y-94553919D02*
X132543853Y-94553919D01*
X132543853Y-93537919D01*
X133366329Y-94021729D02*
X133704995Y-94021729D01*
X133850138Y-94553919D02*
X133366329Y-94553919D01*
X133366329Y-93537919D01*
X133850138Y-93537919D01*
X134285567Y-94553919D02*
X134285567Y-93537919D01*
X134527472Y-93537919D01*
X134672614Y-93586300D01*
X134769376Y-93683062D01*
X134817757Y-93779824D01*
X134866138Y-93973348D01*
X134866138Y-94118490D01*
X134817757Y-94312014D01*
X134769376Y-94408776D01*
X134672614Y-94505538D01*
X134527472Y-94553919D01*
X134285567Y-94553919D01*
X136075662Y-94553919D02*
X136075662Y-93537919D01*
X136317567Y-93537919D01*
X136462709Y-93586300D01*
X136559471Y-93683062D01*
X136607852Y-93779824D01*
X136656233Y-93973348D01*
X136656233Y-94118490D01*
X136607852Y-94312014D01*
X136559471Y-94408776D01*
X136462709Y-94505538D01*
X136317567Y-94553919D01*
X136075662Y-94553919D01*
X137091662Y-94553919D02*
X137091662Y-93876586D01*
X137091662Y-94070110D02*
X137140043Y-93973348D01*
X137188424Y-93924967D01*
X137285186Y-93876586D01*
X137381947Y-93876586D01*
X137720614Y-94553919D02*
X137720614Y-93876586D01*
X137720614Y-93537919D02*
X137672233Y-93586300D01*
X137720614Y-93634681D01*
X137768995Y-93586300D01*
X137720614Y-93537919D01*
X137720614Y-93634681D01*
X138107662Y-93876586D02*
X138349567Y-94553919D01*
X138591471Y-93876586D01*
X139365566Y-94505538D02*
X139268804Y-94553919D01*
X139075281Y-94553919D01*
X138978519Y-94505538D01*
X138930138Y-94408776D01*
X138930138Y-94021729D01*
X138978519Y-93924967D01*
X139075281Y-93876586D01*
X139268804Y-93876586D01*
X139365566Y-93924967D01*
X139413947Y-94021729D01*
X139413947Y-94118490D01*
X138930138Y-94215252D01*
X139849376Y-94553919D02*
X139849376Y-93876586D01*
X139849376Y-94070110D02*
X139897757Y-93973348D01*
X139946138Y-93924967D01*
X140042900Y-93876586D01*
X140139661Y-93876586D01*
X132616424Y-96154119D02*
X132277758Y-95670310D01*
X132035853Y-96154119D02*
X132035853Y-95138119D01*
X132422900Y-95138119D01*
X132519662Y-95186500D01*
X132568043Y-95234881D01*
X132616424Y-95331643D01*
X132616424Y-95476786D01*
X132568043Y-95573548D01*
X132519662Y-95621929D01*
X132422900Y-95670310D01*
X132035853Y-95670310D01*
X133438900Y-96105738D02*
X133342138Y-96154119D01*
X133148615Y-96154119D01*
X133051853Y-96105738D01*
X133003472Y-96008976D01*
X133003472Y-95621929D01*
X133051853Y-95525167D01*
X133148615Y-95476786D01*
X133342138Y-95476786D01*
X133438900Y-95525167D01*
X133487281Y-95621929D01*
X133487281Y-95718690D01*
X133003472Y-95815452D01*
X133825948Y-95476786D02*
X134067853Y-96154119D01*
X134309757Y-95476786D01*
X134696805Y-96057357D02*
X134745186Y-96105738D01*
X134696805Y-96154119D01*
X134648424Y-96105738D01*
X134696805Y-96057357D01*
X134696805Y-96154119D01*
X136148234Y-95138119D02*
X136244995Y-95138119D01*
X136341757Y-95186500D01*
X136390138Y-95234881D01*
X136438519Y-95331643D01*
X136486900Y-95525167D01*
X136486900Y-95767071D01*
X136438519Y-95960595D01*
X136390138Y-96057357D01*
X136341757Y-96105738D01*
X136244995Y-96154119D01*
X136148234Y-96154119D01*
X136051472Y-96105738D01*
X136003091Y-96057357D01*
X135954710Y-95960595D01*
X135906329Y-95767071D01*
X135906329Y-95525167D01*
X135954710Y-95331643D01*
X136003091Y-95234881D01*
X136051472Y-95186500D01*
X136148234Y-95138119D01*
X136922329Y-96057357D02*
X136970710Y-96105738D01*
X136922329Y-96154119D01*
X136873948Y-96105738D01*
X136922329Y-96057357D01*
X136922329Y-96154119D01*
X137841567Y-95476786D02*
X137841567Y-96154119D01*
X137599663Y-95089738D02*
X137357758Y-95815452D01*
X137986710Y-95815452D01*
X177434119Y-106214333D02*
X176950310Y-106552999D01*
X177434119Y-106794904D02*
X176418119Y-106794904D01*
X176418119Y-106407857D01*
X176466500Y-106311095D01*
X176514881Y-106262714D01*
X176611643Y-106214333D01*
X176756786Y-106214333D01*
X176853548Y-106262714D01*
X176901929Y-106311095D01*
X176950310Y-106407857D01*
X176950310Y-106794904D01*
X176418119Y-105875666D02*
X177434119Y-105198333D01*
X176418119Y-105198333D02*
X177434119Y-105875666D01*
X173814619Y-106819095D02*
X173814619Y-106238524D01*
X174830619Y-106528809D02*
X173814619Y-106528809D01*
X173814619Y-105996619D02*
X174830619Y-105319286D01*
X173814619Y-105319286D02*
X174830619Y-105996619D01*
X171147619Y-106858404D02*
X171147619Y-106229452D01*
X171534667Y-106568118D01*
X171534667Y-106422976D01*
X171583048Y-106326214D01*
X171631429Y-106277833D01*
X171728190Y-106229452D01*
X171970095Y-106229452D01*
X172066857Y-106277833D01*
X172115238Y-106326214D01*
X172163619Y-106422976D01*
X172163619Y-106713261D01*
X172115238Y-106810023D01*
X172066857Y-106858404D01*
X171147619Y-105939166D02*
X172163619Y-105600499D01*
X171147619Y-105261833D01*
X171147619Y-105019928D02*
X171147619Y-104390976D01*
X171534667Y-104729642D01*
X171534667Y-104584500D01*
X171583048Y-104487738D01*
X171631429Y-104439357D01*
X171728190Y-104390976D01*
X171970095Y-104390976D01*
X172066857Y-104439357D01*
X172115238Y-104487738D01*
X172163619Y-104584500D01*
X172163619Y-104874785D01*
X172115238Y-104971547D01*
X172066857Y-105019928D01*
X166306500Y-106438095D02*
X166258119Y-106534857D01*
X166258119Y-106680000D01*
X166306500Y-106825142D01*
X166403262Y-106921904D01*
X166500024Y-106970285D01*
X166693548Y-107018666D01*
X166838690Y-107018666D01*
X167032214Y-106970285D01*
X167128976Y-106921904D01*
X167225738Y-106825142D01*
X167274119Y-106680000D01*
X167274119Y-106583238D01*
X167225738Y-106438095D01*
X167177357Y-106389714D01*
X166838690Y-106389714D01*
X166838690Y-106583238D01*
X167274119Y-105954285D02*
X166258119Y-105954285D01*
X167274119Y-105373714D01*
X166258119Y-105373714D01*
X167274119Y-104889904D02*
X166258119Y-104889904D01*
X166258119Y-104647999D01*
X166306500Y-104502857D01*
X166403262Y-104406095D01*
X166500024Y-104357714D01*
X166693548Y-104309333D01*
X166838690Y-104309333D01*
X167032214Y-104357714D01*
X167128976Y-104406095D01*
X167225738Y-104502857D01*
X167274119Y-104647999D01*
X167274119Y-104889904D01*
D12*
X125773715Y-109898571D02*
X125273715Y-109184286D01*
X124916572Y-109898571D02*
X124916572Y-108398571D01*
X125488000Y-108398571D01*
X125630858Y-108470000D01*
X125702286Y-108541429D01*
X125773715Y-108684286D01*
X125773715Y-108898571D01*
X125702286Y-109041429D01*
X125630858Y-109112857D01*
X125488000Y-109184286D01*
X124916572Y-109184286D01*
X126416572Y-109327143D02*
X127559429Y-109327143D01*
X126988000Y-109898571D02*
X126988000Y-108755714D01*
X102822572Y-108398571D02*
X103179715Y-109898571D01*
X103465429Y-108827143D01*
X103751143Y-109898571D01*
X104108286Y-108398571D01*
X104679715Y-109327143D02*
X105822572Y-109327143D01*
X105251143Y-109898571D02*
X105251143Y-108755714D01*
X81855572Y-108858857D02*
X82069858Y-108930286D01*
X82141286Y-109001714D01*
X82212715Y-109144571D01*
X82212715Y-109358857D01*
X82141286Y-109501714D01*
X82069858Y-109573143D01*
X81927000Y-109644571D01*
X81355572Y-109644571D01*
X81355572Y-108144571D01*
X81855572Y-108144571D01*
X81998429Y-108216000D01*
X82069858Y-108287429D01*
X82141286Y-108430286D01*
X82141286Y-108573143D01*
X82069858Y-108716000D01*
X81998429Y-108787429D01*
X81855572Y-108858857D01*
X81355572Y-108858857D01*
X82855572Y-109073143D02*
X83998429Y-109073143D01*
X83427000Y-109644571D02*
X83427000Y-108501714D01*
D13*
X91417000Y-107591204D02*
X95917000Y-107591204D01*
X91417000Y-94591204D02*
X95917000Y-94591204D01*
X91417000Y-107591204D02*
X91417000Y-94591204D01*
X104417000Y-107591204D02*
X99917000Y-107591204D01*
X104417000Y-94591204D02*
X104417000Y-107591204D01*
X99917000Y-94591204D02*
X104417000Y-94591204D01*
X113388000Y-107591204D02*
X117888000Y-107591204D01*
X113388000Y-94591204D02*
X117888000Y-94591204D01*
X113388000Y-107591204D02*
X113388000Y-94591204D01*
X126388000Y-107591204D02*
X121888000Y-107591204D01*
X126388000Y-94591204D02*
X126388000Y-107591204D01*
X121888000Y-94591204D02*
X126388000Y-94591204D01*
X69573000Y-107591204D02*
X74073000Y-107591204D01*
X69573000Y-94591204D02*
X74073000Y-94591204D01*
X69573000Y-107591204D02*
X69573000Y-94591204D01*
X82573000Y-107591204D02*
X78073000Y-107591204D01*
X82573000Y-94591204D02*
X82573000Y-107591204D01*
X78073000Y-94591204D02*
X82573000Y-94591204D01*
X188130000Y-106100000D02*
X188130000Y-97100000D01*
X175630000Y-97100000D02*
X177230000Y-97100000D01*
X175630000Y-99400000D02*
X175630000Y-97100000D01*
X175630000Y-106100000D02*
X190130000Y-106100000D01*
X175630000Y-103800000D02*
X175630000Y-106100000D01*
X190130000Y-97100000D02*
X181930000Y-97100000D01*
X190130000Y-106100000D02*
X190130000Y-97100000D01*
X173945186Y-99430308D02*
X173945186Y-98430308D01*
X172245186Y-98430308D02*
X172245186Y-99430308D01*
X171182186Y-101128308D02*
X170182186Y-101128308D01*
X170182186Y-102828308D02*
X171182186Y-102828308D01*
X164114186Y-102577308D02*
X164114186Y-98077308D01*
X164114186Y-98077308D02*
X168614186Y-98077308D01*
X168614186Y-98077308D02*
X168614186Y-102577308D01*
X168614186Y-102577308D02*
X164114186Y-102577308D01*
X178181000Y-110109000D02*
X165481000Y-110109000D01*
X165481000Y-110109000D02*
X165481000Y-107569000D01*
X165481000Y-107569000D02*
X178181000Y-107569000D01*
X181001000Y-110389000D02*
X179451000Y-110389000D01*
X178181000Y-110109000D02*
X178181000Y-107569000D01*
X179451000Y-107289000D02*
X181001000Y-107289000D01*
X181001000Y-107289000D02*
X181001000Y-110389000D01*
X171301186Y-99387308D02*
X169301186Y-99387308D01*
X171301186Y-96187308D02*
X169301186Y-96187308D01*
X171801186Y-99287308D02*
X171301186Y-99287308D01*
X171301186Y-99287308D02*
X171301186Y-99387308D01*
X87122000Y-107696000D02*
X89662000Y-107696000D01*
X84302000Y-107416000D02*
X85852000Y-107416000D01*
X87122000Y-107696000D02*
X87122000Y-110236000D01*
X85852000Y-110516000D02*
X84302000Y-110516000D01*
X84302000Y-110516000D02*
X84302000Y-107416000D01*
X87122000Y-110236000D02*
X89662000Y-110236000D01*
X89662000Y-110236000D02*
X89662000Y-107696000D01*
X130937000Y-107950000D02*
X133477000Y-107950000D01*
X128117000Y-107670000D02*
X129667000Y-107670000D01*
X130937000Y-107950000D02*
X130937000Y-110490000D01*
X129667000Y-110770000D02*
X128117000Y-110770000D01*
X128117000Y-110770000D02*
X128117000Y-107670000D01*
X130937000Y-110490000D02*
X133477000Y-110490000D01*
X133477000Y-110490000D02*
X133477000Y-107950000D01*
X108966000Y-107950000D02*
X111506000Y-107950000D01*
X106146000Y-107670000D02*
X107696000Y-107670000D01*
X108966000Y-107950000D02*
X108966000Y-110490000D01*
X107696000Y-110770000D02*
X106146000Y-110770000D01*
X106146000Y-110770000D02*
X106146000Y-107670000D01*
X108966000Y-110490000D02*
X111506000Y-110490000D01*
X111506000Y-110490000D02*
X111506000Y-107950000D01*
X167880186Y-97319308D02*
X166880186Y-97319308D01*
X166880186Y-95969308D02*
X167880186Y-95969308D01*
X136971400Y-111132300D02*
X136971400Y-112132300D01*
X135621400Y-112132300D02*
X135621400Y-111132300D01*
X135621400Y-109198600D02*
X135621400Y-108198600D01*
X136971400Y-108198600D02*
X136971400Y-109198600D01*
X144738269Y-102342392D02*
X143956329Y-102551912D01*
X143876661Y-102622558D01*
X143842989Y-102680879D01*
X143821642Y-102785196D01*
X143870942Y-102969183D01*
X143941587Y-103048851D01*
X143999908Y-103082523D01*
X144104226Y-103103870D01*
X144886166Y-102894350D01*
X144179059Y-104119095D02*
X144031163Y-103567137D01*
X144105111Y-103843115D02*
X145071037Y-103584296D01*
X144908398Y-103529277D01*
X144791756Y-103461934D01*
X144721110Y-103382266D01*
X145305206Y-104458229D02*
X145329856Y-104550223D01*
X145308509Y-104654540D01*
X145274837Y-104712861D01*
X145195169Y-104783507D01*
X145023508Y-104878803D01*
X144793525Y-104940426D01*
X144597215Y-104943729D01*
X144492897Y-104922382D01*
X144434576Y-104888710D01*
X144363930Y-104809042D01*
X144339281Y-104717048D01*
X144360628Y-104612730D01*
X144394299Y-104554409D01*
X144473967Y-104483764D01*
X144645628Y-104388468D01*
X144875611Y-104326845D01*
X145071922Y-104323542D01*
X145176239Y-104344889D01*
X145234561Y-104378561D01*
X145305206Y-104458229D01*
X144672048Y-105958953D02*
X144524151Y-105406995D01*
X144598100Y-105682974D02*
X145564025Y-105424155D01*
X145401387Y-105369136D01*
X145284744Y-105301793D01*
X145214099Y-105222125D01*
X98750381Y-102210251D02*
X98750381Y-102686442D01*
X97750381Y-102686442D01*
X97750381Y-101400727D02*
X97750381Y-101876918D01*
X98226571Y-101924537D01*
X98178952Y-101876918D01*
X98131333Y-101781680D01*
X98131333Y-101543584D01*
X98178952Y-101448346D01*
X98226571Y-101400727D01*
X98321810Y-101353108D01*
X98559905Y-101353108D01*
X98655143Y-101400727D01*
X98702762Y-101448346D01*
X98750381Y-101543584D01*
X98750381Y-101781680D01*
X98702762Y-101876918D01*
X98655143Y-101924537D01*
X97750381Y-100734061D02*
X97750381Y-100638822D01*
X97798000Y-100543584D01*
X97845619Y-100495965D01*
X97940857Y-100448346D01*
X98131333Y-100400727D01*
X98369429Y-100400727D01*
X98559905Y-100448346D01*
X98655143Y-100495965D01*
X98702762Y-100543584D01*
X98750381Y-100638822D01*
X98750381Y-100734061D01*
X98702762Y-100829299D01*
X98655143Y-100876918D01*
X98559905Y-100924537D01*
X98369429Y-100972156D01*
X98131333Y-100972156D01*
X97940857Y-100924537D01*
X97845619Y-100876918D01*
X97798000Y-100829299D01*
X97750381Y-100734061D01*
X98750381Y-99448346D02*
X98750381Y-100019775D01*
X98750381Y-99734061D02*
X97750381Y-99734061D01*
X97893238Y-99829299D01*
X97988476Y-99924537D01*
X98036095Y-100019775D01*
X120721381Y-102211047D02*
X120721381Y-102687238D01*
X119721381Y-102687238D01*
X120054714Y-101449142D02*
X120721381Y-101449142D01*
X119673762Y-101687238D02*
X120388048Y-101925333D01*
X120388048Y-101306285D01*
X119721381Y-100734857D02*
X119721381Y-100639618D01*
X119769000Y-100544380D01*
X119816619Y-100496761D01*
X119911857Y-100449142D01*
X120102333Y-100401523D01*
X120340429Y-100401523D01*
X120530905Y-100449142D01*
X120626143Y-100496761D01*
X120673762Y-100544380D01*
X120721381Y-100639618D01*
X120721381Y-100734857D01*
X120673762Y-100830095D01*
X120626143Y-100877714D01*
X120530905Y-100925333D01*
X120340429Y-100972952D01*
X120102333Y-100972952D01*
X119911857Y-100925333D01*
X119816619Y-100877714D01*
X119769000Y-100830095D01*
X119721381Y-100734857D01*
X120721381Y-99449142D02*
X120721381Y-100020571D01*
X120721381Y-99734857D02*
X119721381Y-99734857D01*
X119864238Y-99830095D01*
X119959476Y-99925333D01*
X120007095Y-100020571D01*
X76906381Y-102210251D02*
X76906381Y-102686442D01*
X75906381Y-102686442D01*
X75906381Y-101972156D02*
X75906381Y-101353108D01*
X76287333Y-101686442D01*
X76287333Y-101543584D01*
X76334952Y-101448346D01*
X76382571Y-101400727D01*
X76477810Y-101353108D01*
X76715905Y-101353108D01*
X76811143Y-101400727D01*
X76858762Y-101448346D01*
X76906381Y-101543584D01*
X76906381Y-101829299D01*
X76858762Y-101924537D01*
X76811143Y-101972156D01*
X75906381Y-100734061D02*
X75906381Y-100638822D01*
X75954000Y-100543584D01*
X76001619Y-100495965D01*
X76096857Y-100448346D01*
X76287333Y-100400727D01*
X76525429Y-100400727D01*
X76715905Y-100448346D01*
X76811143Y-100495965D01*
X76858762Y-100543584D01*
X76906381Y-100638822D01*
X76906381Y-100734061D01*
X76858762Y-100829299D01*
X76811143Y-100876918D01*
X76715905Y-100924537D01*
X76525429Y-100972156D01*
X76287333Y-100972156D01*
X76096857Y-100924537D01*
X76001619Y-100876918D01*
X75954000Y-100829299D01*
X75906381Y-100734061D01*
X76906381Y-99448346D02*
X76906381Y-100019775D01*
X76906381Y-99734061D02*
X75906381Y-99734061D01*
X76049238Y-99829299D01*
X76144476Y-99924537D01*
X76192095Y-100019775D01*
X187428143Y-103766666D02*
X187475762Y-103814285D01*
X187523381Y-103957142D01*
X187523381Y-104052380D01*
X187475762Y-104195238D01*
X187380524Y-104290476D01*
X187285286Y-104338095D01*
X187094810Y-104385714D01*
X186951952Y-104385714D01*
X186761476Y-104338095D01*
X186666238Y-104290476D01*
X186571000Y-104195238D01*
X186523381Y-104052380D01*
X186523381Y-103957142D01*
X186571000Y-103814285D01*
X186618619Y-103766666D01*
X186523381Y-103147619D02*
X186523381Y-102957142D01*
X186571000Y-102861904D01*
X186666238Y-102766666D01*
X186856714Y-102719047D01*
X187190048Y-102719047D01*
X187380524Y-102766666D01*
X187475762Y-102861904D01*
X187523381Y-102957142D01*
X187523381Y-103147619D01*
X187475762Y-103242857D01*
X187380524Y-103338095D01*
X187190048Y-103385714D01*
X186856714Y-103385714D01*
X186666238Y-103338095D01*
X186571000Y-103242857D01*
X186523381Y-103147619D01*
X187523381Y-102290476D02*
X186523381Y-102290476D01*
X187523381Y-101719047D01*
X186523381Y-101719047D01*
X187523381Y-100719047D02*
X187523381Y-101290476D01*
X187523381Y-101004762D02*
X186523381Y-101004762D01*
X186666238Y-101100000D01*
X186761476Y-101195238D01*
X186809095Y-101290476D01*
X186523381Y-100100000D02*
X186523381Y-100004761D01*
X186571000Y-99909523D01*
X186618619Y-99861904D01*
X186713857Y-99814285D01*
X186904333Y-99766666D01*
X187142429Y-99766666D01*
X187332905Y-99814285D01*
X187428143Y-99861904D01*
X187475762Y-99909523D01*
X187523381Y-100004761D01*
X187523381Y-100100000D01*
X187475762Y-100195238D01*
X187428143Y-100242857D01*
X187332905Y-100290476D01*
X187142429Y-100338095D01*
X186904333Y-100338095D01*
X186713857Y-100290476D01*
X186618619Y-100242857D01*
X186571000Y-100195238D01*
X186523381Y-100100000D01*
X187523381Y-98814285D02*
X187523381Y-99385714D01*
X187523381Y-99100000D02*
X186523381Y-99100000D01*
X186666238Y-99195238D01*
X186761476Y-99290476D01*
X186809095Y-99385714D01*
X175109143Y-99163047D02*
X175156762Y-99210666D01*
X175204381Y-99353523D01*
X175204381Y-99448761D01*
X175156762Y-99591619D01*
X175061524Y-99686857D01*
X174966286Y-99734476D01*
X174775810Y-99782095D01*
X174632952Y-99782095D01*
X174442476Y-99734476D01*
X174347238Y-99686857D01*
X174252000Y-99591619D01*
X174204381Y-99448761D01*
X174204381Y-99353523D01*
X174252000Y-99210666D01*
X174299619Y-99163047D01*
X174299619Y-98782095D02*
X174252000Y-98734476D01*
X174204381Y-98639238D01*
X174204381Y-98401142D01*
X174252000Y-98305904D01*
X174299619Y-98258285D01*
X174394857Y-98210666D01*
X174490095Y-98210666D01*
X174632952Y-98258285D01*
X175204381Y-98829714D01*
X175204381Y-98210666D01*
X174204381Y-97591619D02*
X174204381Y-97496380D01*
X174252000Y-97401142D01*
X174299619Y-97353523D01*
X174394857Y-97305904D01*
X174585333Y-97258285D01*
X174823429Y-97258285D01*
X175013905Y-97305904D01*
X175109143Y-97353523D01*
X175156762Y-97401142D01*
X175204381Y-97496380D01*
X175204381Y-97591619D01*
X175156762Y-97686857D01*
X175109143Y-97734476D01*
X175013905Y-97782095D01*
X174823429Y-97829714D01*
X174585333Y-97829714D01*
X174394857Y-97782095D01*
X174299619Y-97734476D01*
X174252000Y-97686857D01*
X174204381Y-97591619D01*
X175204381Y-96305904D02*
X175204381Y-96877333D01*
X175204381Y-96591619D02*
X174204381Y-96591619D01*
X174347238Y-96686857D01*
X174442476Y-96782095D01*
X174490095Y-96877333D01*
X169563139Y-103989143D02*
X169515520Y-104036762D01*
X169372663Y-104084381D01*
X169277425Y-104084381D01*
X169134567Y-104036762D01*
X169039329Y-103941524D01*
X168991710Y-103846286D01*
X168944091Y-103655810D01*
X168944091Y-103512952D01*
X168991710Y-103322476D01*
X169039329Y-103227238D01*
X169134567Y-103132000D01*
X169277425Y-103084381D01*
X169372663Y-103084381D01*
X169515520Y-103132000D01*
X169563139Y-103179619D01*
X169944091Y-103179619D02*
X169991710Y-103132000D01*
X170086948Y-103084381D01*
X170325044Y-103084381D01*
X170420282Y-103132000D01*
X170467901Y-103179619D01*
X170515520Y-103274857D01*
X170515520Y-103370095D01*
X170467901Y-103512952D01*
X169896472Y-104084381D01*
X170515520Y-104084381D01*
X171134567Y-103084381D02*
X171229806Y-103084381D01*
X171325044Y-103132000D01*
X171372663Y-103179619D01*
X171420282Y-103274857D01*
X171467901Y-103465333D01*
X171467901Y-103703429D01*
X171420282Y-103893905D01*
X171372663Y-103989143D01*
X171325044Y-104036762D01*
X171229806Y-104084381D01*
X171134567Y-104084381D01*
X171039329Y-104036762D01*
X170991710Y-103989143D01*
X170944091Y-103893905D01*
X170896472Y-103703429D01*
X170896472Y-103465333D01*
X170944091Y-103274857D01*
X170991710Y-103179619D01*
X171039329Y-103132000D01*
X171134567Y-103084381D01*
X171848853Y-103179619D02*
X171896472Y-103132000D01*
X171991710Y-103084381D01*
X172229806Y-103084381D01*
X172325044Y-103132000D01*
X172372663Y-103179619D01*
X172420282Y-103274857D01*
X172420282Y-103370095D01*
X172372663Y-103512952D01*
X171801234Y-104084381D01*
X172420282Y-104084381D01*
X165245139Y-103954689D02*
X164768948Y-103954689D01*
X164768948Y-102954689D01*
X165530853Y-103049927D02*
X165578472Y-103002308D01*
X165673710Y-102954689D01*
X165911806Y-102954689D01*
X166007044Y-103002308D01*
X166054663Y-103049927D01*
X166102282Y-103145165D01*
X166102282Y-103240403D01*
X166054663Y-103383260D01*
X165483234Y-103954689D01*
X166102282Y-103954689D01*
X166721329Y-102954689D02*
X166816568Y-102954689D01*
X166911806Y-103002308D01*
X166959425Y-103049927D01*
X167007044Y-103145165D01*
X167054663Y-103335641D01*
X167054663Y-103573737D01*
X167007044Y-103764213D01*
X166959425Y-103859451D01*
X166911806Y-103907070D01*
X166816568Y-103954689D01*
X166721329Y-103954689D01*
X166626091Y-103907070D01*
X166578472Y-103859451D01*
X166530853Y-103764213D01*
X166483234Y-103573737D01*
X166483234Y-103335641D01*
X166530853Y-103145165D01*
X166578472Y-103049927D01*
X166626091Y-103002308D01*
X166721329Y-102954689D01*
X168007044Y-103954689D02*
X167435615Y-103954689D01*
X167721329Y-103954689D02*
X167721329Y-102954689D01*
X167626091Y-103097546D01*
X167530853Y-103192784D01*
X167435615Y-103240403D01*
X168586900Y-94839689D02*
X168586900Y-95649213D01*
X168634519Y-95744451D01*
X168682138Y-95792070D01*
X168777376Y-95839689D01*
X168967853Y-95839689D01*
X169063091Y-95792070D01*
X169110710Y-95744451D01*
X169158329Y-95649213D01*
X169158329Y-94839689D01*
X169586900Y-94934927D02*
X169634519Y-94887308D01*
X169729757Y-94839689D01*
X169967853Y-94839689D01*
X170063091Y-94887308D01*
X170110710Y-94934927D01*
X170158329Y-95030165D01*
X170158329Y-95125403D01*
X170110710Y-95268260D01*
X169539281Y-95839689D01*
X170158329Y-95839689D01*
X170777376Y-94839689D02*
X170872615Y-94839689D01*
X170967853Y-94887308D01*
X171015472Y-94934927D01*
X171063091Y-95030165D01*
X171110710Y-95220641D01*
X171110710Y-95458737D01*
X171063091Y-95649213D01*
X171015472Y-95744451D01*
X170967853Y-95792070D01*
X170872615Y-95839689D01*
X170777376Y-95839689D01*
X170682138Y-95792070D01*
X170634519Y-95744451D01*
X170586900Y-95649213D01*
X170539281Y-95458737D01*
X170539281Y-95220641D01*
X170586900Y-95030165D01*
X170634519Y-94934927D01*
X170682138Y-94887308D01*
X170777376Y-94839689D01*
X172063091Y-95839689D02*
X171491662Y-95839689D01*
X171777376Y-95839689D02*
X171777376Y-94839689D01*
X171682138Y-94982546D01*
X171586900Y-95077784D01*
X171491662Y-95125403D01*
X164996953Y-95575381D02*
X164663619Y-95099190D01*
X164425524Y-95575381D02*
X164425524Y-94575381D01*
X164806477Y-94575381D01*
X164901715Y-94623000D01*
X164949334Y-94670619D01*
X164996953Y-94765857D01*
X164996953Y-94908714D01*
X164949334Y-95003952D01*
X164901715Y-95051571D01*
X164806477Y-95099190D01*
X164425524Y-95099190D01*
X165377905Y-94670619D02*
X165425524Y-94623000D01*
X165520762Y-94575381D01*
X165758858Y-94575381D01*
X165854096Y-94623000D01*
X165901715Y-94670619D01*
X165949334Y-94765857D01*
X165949334Y-94861095D01*
X165901715Y-95003952D01*
X165330286Y-95575381D01*
X165949334Y-95575381D01*
X166568381Y-94575381D02*
X166663620Y-94575381D01*
X166758858Y-94623000D01*
X166806477Y-94670619D01*
X166854096Y-94765857D01*
X166901715Y-94956333D01*
X166901715Y-95194429D01*
X166854096Y-95384905D01*
X166806477Y-95480143D01*
X166758858Y-95527762D01*
X166663620Y-95575381D01*
X166568381Y-95575381D01*
X166473143Y-95527762D01*
X166425524Y-95480143D01*
X166377905Y-95384905D01*
X166330286Y-95194429D01*
X166330286Y-94956333D01*
X166377905Y-94765857D01*
X166425524Y-94670619D01*
X166473143Y-94623000D01*
X166568381Y-94575381D01*
X167854096Y-95575381D02*
X167282667Y-95575381D01*
X167568381Y-95575381D02*
X167568381Y-94575381D01*
X167473143Y-94718238D01*
X167377905Y-94813476D01*
X167282667Y-94861095D01*
X135250181Y-112752047D02*
X134773990Y-113085381D01*
X135250181Y-113323476D02*
X134250181Y-113323476D01*
X134250181Y-112942523D01*
X134297800Y-112847285D01*
X134345419Y-112799666D01*
X134440657Y-112752047D01*
X134583514Y-112752047D01*
X134678752Y-112799666D01*
X134726371Y-112847285D01*
X134773990Y-112942523D01*
X134773990Y-113323476D01*
X135250181Y-111799666D02*
X135250181Y-112371095D01*
X135250181Y-112085381D02*
X134250181Y-112085381D01*
X134393038Y-112180619D01*
X134488276Y-112275857D01*
X134535895Y-112371095D01*
X135250181Y-110847285D02*
X135250181Y-111418714D01*
X135250181Y-111133000D02*
X134250181Y-111133000D01*
X134393038Y-111228238D01*
X134488276Y-111323476D01*
X134535895Y-111418714D01*
X135250181Y-109894904D02*
X135250181Y-110466333D01*
X135250181Y-110180619D02*
X134250181Y-110180619D01*
X134393038Y-110275857D01*
X134488276Y-110371095D01*
X134535895Y-110466333D01*
X135212081Y-109056347D02*
X134735890Y-109389681D01*
X135212081Y-109627776D02*
X134212081Y-109627776D01*
X134212081Y-109246823D01*
X134259700Y-109151585D01*
X134307319Y-109103966D01*
X134402557Y-109056347D01*
X134545414Y-109056347D01*
X134640652Y-109103966D01*
X134688271Y-109151585D01*
X134735890Y-109246823D01*
X134735890Y-109627776D01*
X135212081Y-108103966D02*
X135212081Y-108675395D01*
X135212081Y-108389681D02*
X134212081Y-108389681D01*
X134354938Y-108484919D01*
X134450176Y-108580157D01*
X134497795Y-108675395D01*
X135212081Y-107151585D02*
X135212081Y-107723014D01*
X135212081Y-107437300D02*
X134212081Y-107437300D01*
X134354938Y-107532538D01*
X134450176Y-107627776D01*
X134497795Y-107723014D01*
X134545414Y-106294442D02*
X135212081Y-106294442D01*
X134164462Y-106532538D02*
X134878748Y-106770633D01*
X134878748Y-106151585D01*
M02*
